<svg id="eGOSAEwMX9K1" xmlns="http://www.w3.org/2000/svg" xmlns:xlink="http://www.w3.org/1999/xlink" viewBox="0 0 889 475" shape-rendering="geometricPrecision" text-rendering="geometricPrecision">
<style>
<![CDATA[#eGOSAEwMX9K2_to {animation: eGOSAEwMX9K2_to__to 3000ms linear 1 normal forwards}@keyframes eGOSAEwMX9K2_to__to { 0% {offset-distance: 0%} 16.666667% {offset-distance: 0%} 30% {offset-distance: 100%} 100% {offset-distance: 100%}} #eGOSAEwMX9K2_ts {animation: eGOSAEwMX9K2_ts__ts 3000ms linear 1 normal forwards}@keyframes eGOSAEwMX9K2_ts__ts { 0% {transform: scale(0.815575,0.815575)} 16.666667% {transform: scale(0.815575,0.815575)} 30% {transform: scale(0.285702,0.285702)} 100% {transform: scale(0.285702,0.285702)}} #eGOSAEwMX9K2 {animation: eGOSAEwMX9K2_c_o 3000ms linear 1 normal forwards}@keyframes eGOSAEwMX9K2_c_o { 0% {opacity: 0} 16.666667% {opacity: 0} 23.333333% {opacity: 1} 100% {opacity: 1}} #eGOSAEwMX9K6_to {animation: eGOSAEwMX9K6_to__to 3000ms linear 1 normal forwards}@keyframes eGOSAEwMX9K6_to__to { 0% {transform: translate(423.481686px,327.141923px)} 6.666667% {transform: translate(444.498060px,327.141923px)} 16.666667% {transform: translate(444.499996px,327.141923px)} 30% {transform: translate(444.499996px,327.141923px)} 33.333333% {transform: translate(444.499996px,342.635866px)} 40% {transform: translate(444.499996px,328.248634px)} 100% {transform: translate(444.499996px,328.248634px)}} #eGOSAEwMX9K6 {animation: eGOSAEwMX9K6_c_o 3000ms linear 1 normal forwards}@keyframes eGOSAEwMX9K6_c_o { 0% {opacity: 0} 6.666667% {opacity: 1} 100% {opacity: 1}} #eGOSAEwMX9K7 {animation: eGOSAEwMX9K7_c_o 3000ms linear 1 normal forwards}@keyframes eGOSAEwMX9K7_c_o { 0% {opacity: 0} 16.666667% {opacity: 0} 40% {opacity: 0} 46.666667% {opacity: 1} 100% {opacity: 1}}]]>
</style>
<g id="eGOSAEwMX9K2_to" style="offset-path:path('M369.531023,95.430295C441.722369,122.668185,465.458685,154.419330,473.998951,282.464312');offset-rotate:0deg">
  <g id="eGOSAEwMX9K2_ts" transform="scale(0.815575,0.815575)">
    <g id="eGOSAEwMX9K2" transform="translate(-84,-79.583716)" opacity="0">
      <path id="eGOSAEwMX9K3" d="M83.644000,0.135616C83.873300,0.048267,84.126700,0.048268,84.356000,0.135617L165.547000,31.065500C166.406000,31.392600,166.406000,32.607400,165.547000,32.934500L84.356000,63.864400C84.126700,63.951700,83.873300,63.951700,83.644000,63.864400L2.453030,32.934500C1.594350,32.607400,1.594360,31.392600,2.453030,31.065500L83.644000,0.135616Z" fill="rgb(35,35,35)" stroke="none" stroke-width="1"/>
      <path id="eGOSAEwMX9K4" d="M81.500000,69.736800C81.500000,69.321900,81.243800,68.950100,80.856000,68.802300L1.356000,38.516600C0.701462,38.267300,0,38.750700,0,39.451100L0,79.000100L0,119.500000L0,127.811000C0,128.226000,0.256250,128.598000,0.644005,128.745000L80.144000,159.031000C80.798500,159.280000,81.500000,158.797000,81.500000,158.097000L81.500000,69.736800ZM87.144000,68.802300C86.756200,68.950100,86.500000,69.321900,86.500000,69.736800L86.500000,158.097000C86.500000,158.797000,87.201500,159.280000,87.856000,159.031000L167.356000,128.745000C167.744000,128.598000,168,128.226000,168,127.811000L168,119.500000L168,79.000100L168,39.451100C168,38.750700,167.299000,38.267300,166.644000,38.516600L87.144000,68.802300Z" clip-rule="evenodd" fill="rgb(35,35,35)" fill-rule="evenodd" stroke="none" stroke-width="1"/>
      <path id="eGOSAEwMX9K5" d="M59.997100,123.404000C61.738400,123.948000,63.163200,123.949000,64.277200,123.409000C64.489800,123.305000,64.996400,122.949000,65.166300,122.784000C65.618100,122.344000,65.925200,121.869000,66.130100,121.293000C66.760400,119.522000,66.436000,116.791000,65.202100,113.482000C64.145700,110.649000,62.515500,107.633000,59.671400,103.248000C59.252500,102.603000,58.004900,100.708000,57.996900,100.705000C57.993900,100.704000,58.061900,100.852000,58.147400,101.034000C58.886900,102.604000,59.519700,104.369000,59.864400,105.825000C60.418100,108.162000,60.351300,109.976000,59.668800,111.158000C59.197900,111.973000,58.390700,112.537000,57.483100,112.686000C55.894100,112.945000,53.567700,112.190000,50.726600,110.492000C50.531000,110.375000,40.838300,104.225000,29.187100,96.825300C17.535900,89.425200,8.001560,83.372200,8.000070,83.373900C7.996770,83.375500,35.069000,105.198000,49.122700,116.522000C51.348300,118.315000,51.943500,118.780000,52.989800,119.539000C55.664500,121.478000,58.060400,122.800000,59.997100,123.404000Z" fill="rgb(255,255,255)" stroke="none" stroke-width="1"/>
    </g>
  </g>
</g>
<g id="eGOSAEwMX9K6_to" transform="translate(423.481686,327.141923)">
  <path id="eGOSAEwMX9K6" d="M670.429000,446.857000C670.429000,454.389000,667.764000,460.820000,662.435000,466.149000C657.105000,471.478000,650.675000,474.143000,643.143000,474.143000C635.611000,474.143000,629.180000,471.478000,623.851000,466.149000C618.522000,460.820000,615.857000,454.389000,615.857000,446.857000C615.857000,439.325000,618.522000,432.894000,623.851000,427.565000C629.180000,422.236000,635.611000,419.571000,643.143000,419.571000C650.675000,419.571000,657.105000,422.236000,662.435000,427.565000C667.764000,432.894000,670.429000,439.325000,670.429000,446.857000ZM861.429000,446.857000C861.429000,454.389000,858.764000,460.820000,853.435000,466.149000C848.105000,471.478000,841.675000,474.143000,834.143000,474.143000C826.611000,474.143000,820.180000,471.478000,814.851000,466.149000C809.522000,460.820000,806.857000,454.389000,806.857000,446.857000C806.857000,439.325000,809.522000,432.894000,814.851000,427.565000C820.180000,422.236000,826.611000,419.571000,834.143000,419.571000C841.675000,419.571000,848.105000,422.236000,853.435000,427.565000C858.764000,432.894000,861.429000,439.325000,861.429000,446.857000ZM888.714000,214.929000L888.714000,324.071000C888.714000,327.482000,887.577000,330.502000,885.304000,333.131000C883.030000,335.760000,880.116000,337.288000,876.564000,337.714000L654.015000,363.721000C654.157000,364.716000,654.476000,366.243000,654.974000,368.304000C655.471000,370.365000,655.898000,372.248000,656.253000,373.953000C656.608000,375.658000,656.786000,377.222000,656.786000,378.643000C656.786000,380.917000,655.080000,385.464000,651.670000,392.286000L847.786000,392.286000C851.481000,392.286000,854.678000,393.636000,857.378000,396.336000C860.078000,399.036000,861.429000,402.234000,861.429000,405.929000C861.429000,409.623000,860.078000,412.821000,857.378000,415.521000C854.678000,418.221000,851.481000,419.571000,847.786000,419.571000L629.500000,419.571000C625.805000,419.571000,622.608000,418.221000,619.907000,415.521000C617.207000,412.821000,615.857000,409.623000,615.857000,405.929000C615.857000,403.939000,616.639000,401.132000,618.202000,397.508000C619.765000,393.884000,621.861000,389.657000,624.491000,384.825000C627.120000,379.993000,628.576000,377.293000,628.860000,376.724000L591.129000,201.286000L547.643000,201.286000C543.948000,201.286000,540.750000,199.936000,538.050000,197.235000C535.350000,194.535000,534,191.338000,534,187.643000C534,183.948000,535.350000,180.750000,538.050000,178.050000C540.750000,175.350000,543.948000,174,547.643000,174L602.214000,174C604.488000,174,606.513000,174.462000,608.290000,175.386000C610.066000,176.309000,611.487000,177.411000,612.553000,178.690000C613.619000,179.969000,614.543000,181.710000,615.324000,183.912000C616.106000,186.115000,616.639000,187.998000,616.923000,189.561000C617.207000,191.125000,617.598000,193.221000,618.095000,195.850000C618.593000,198.479000,618.913000,200.291000,619.055000,201.286000L875.071000,201.286000C878.766000,201.286000,881.964000,202.636000,884.664000,205.336000C887.364000,208.036000,888.714000,211.234000,888.714000,214.929000Z" transform="scale(0.765282,0.765282) translate(-711.356995,-324.071503)" opacity="0" fill="rgb(35,35,35)" stroke="none" stroke-width="1"/>
</g>
<path id="eGOSAEwMX9K7" d="M59.997100,123.404000C61.738400,123.948000,63.163200,123.949000,64.277200,123.409000C64.489800,123.305000,64.996400,122.949000,65.166300,122.784000C65.618100,122.344000,65.925200,121.869000,66.130100,121.293000C66.760400,119.522000,66.436000,116.791000,65.202100,113.482000C64.145700,110.649000,62.515500,107.633000,59.671400,103.248000C59.252500,102.603000,58.004900,100.708000,57.996900,100.705000C57.993900,100.704000,58.061900,100.852000,58.147400,101.034000C58.886900,102.604000,59.519700,104.369000,59.864400,105.825000C60.418100,108.162000,60.351300,109.976000,59.668800,111.158000C59.197900,111.973000,58.390700,112.537000,57.483100,112.686000C55.894100,112.945000,53.567700,112.190000,50.726600,110.492000C50.531000,110.375000,40.838300,104.225000,29.187100,96.825300C17.535900,89.425200,8.001560,83.372200,8.000070,83.373900C7.996770,83.375500,35.069000,105.198000,49.122700,116.522000C51.348300,118.315000,51.943500,118.780000,52.989800,119.539000C55.664500,121.478000,58.060400,122.800000,59.997100,123.404000Z" transform="matrix(1.41678642193317 -0.49266239416645 0.49266239416645 1.41678642193317 371.07211425765098 165.21442491950208)" opacity="0" fill="rgb(255,255,255)" stroke="none" stroke-width="1"/>
</svg>