<svg xmlns="http://www.w3.org/2000/svg" width="40" height="36" viewBox="0 0 40 36" fill="none">
   <path d="M1.86664 2.26669H8.8" stroke="black" stroke-width="2" stroke-miterlimit="10" stroke-linecap="round" />
   <path d="M8.80005 2.26669L14.6667 25.2" stroke="black" stroke-width="2" stroke-miterlimit="10" stroke-linecap="round" />
   <path d="M15.7333 25.2H37.7333" stroke="black" stroke-width="2" stroke-miterlimit="10" stroke-linecap="round" />
   <path d="M18.4 34.2667C20.6092 34.2667 22.4 32.4759 22.4 30.2667C22.4 28.0576 20.6092 26.2667 18.4 26.2667C16.1908 26.2667 14.4 28.0576 14.4 30.2667C14.4 32.4759 16.1908 34.2667 18.4 34.2667Z" stroke="black" stroke-width="2" stroke-miterlimit="10" stroke-linecap="round" />
   <path d="M33.7333 34.2667C35.9424 34.2667 37.7333 32.4759 37.7333 30.2667C37.7333 28.0576 35.9424 26.2667 33.7333 26.2667C31.5241 26.2667 29.7333 28.0576 29.7333 30.2667C29.7333 32.4759 31.5241 34.2667 33.7333 34.2667Z" stroke="black" stroke-width="2" stroke-miterlimit="10" stroke-linecap="round" />
   <path d="M34.2667 19.4667H15.0666C14.2666 19.4667 13.4666 18.9333 13.3333 18.1333L10.8 9.20002C10.5333 8.00002 11.3333 6.93335 12.5333 6.93335H36.6666C37.8666 6.93335 38.8 8.13335 38.4 9.20002L35.8666 18.1333C35.8666 18.9333 35.2 19.4667 34.2667 19.4667Z" stroke="black" stroke-width="2" stroke-miterlimit="10" stroke-linecap="round" />
</svg>