<svg width="36" height="44" fill="none" xmlns="http://www.w3.org/2000/svg"><g clip-path="url(#a)"><path d="M31.533 0H3.667A3.671 3.671 0 0 0 0 3.667v36.666A3.671 3.671 0 0 0 3.667 44h27.866a3.671 3.671 0 0 0 3.667-3.667V3.667A3.671 3.671 0 0 0 31.533 0zM10.267 1.467h14.666v1.466H10.267V1.467zM30.8 4.4v7.333H4.4V4.4h26.4zm2.933 35.933a2.2 2.2 0 0 1-2.2 2.2H3.667a2.2 2.2 0 0 1-2.2-2.2V3.667a2.2 2.2 0 0 1 2.2-2.2H8.8v1.466H3.667a.733.733 0 0 0-.734.734v8.8c0 .405.329.733.734.733h27.866a.733.733 0 0 0 .734-.733v-8.8a.733.733 0 0 0-.734-.734H26.4V1.467h5.133a2.2 2.2 0 0 1 2.2 2.2v36.666z" fill="url(#b)"/><path d="M17.6 14.666a3.667 3.667 0 1 0 0 7.334 3.667 3.667 0 0 0 0-7.334zm0 5.867a2.2 2.2 0 1 1 0-4.4 2.2 2.2 0 0 1 0 4.4z" fill="url(#c)"/><path d="M27.133 14.666a3.667 3.667 0 1 0 0 7.334 3.667 3.667 0 0 0 0-7.334zm0 5.867a2.2 2.2 0 1 1 0-4.4 2.2 2.2 0 0 1 0 4.4z" fill="url(#d)"/><path d="M8.067 14.666a3.667 3.667 0 1 0 0 7.334 3.667 3.667 0 0 0 0-7.334zm0 5.867a2.2 2.2 0 1 1 0-4.4 2.2 2.2 0 0 1 0 4.4z" fill="url(#e)"/><path d="M17.6 23.467a3.667 3.667 0 1 0 0 7.333 3.667 3.667 0 0 0 0-7.333zm0 5.867a2.2 2.2 0 1 1 0-4.4 2.2 2.2 0 0 1 0 4.4z" fill="url(#f)"/><path d="M27.133 23.467a3.667 3.667 0 1 0 0 7.333 3.667 3.667 0 0 0 0-7.333zm0 5.867a2.2 2.2 0 1 1 0-4.4 2.2 2.2 0 0 1 0 4.4z" fill="url(#g)"/><path d="M8.067 23.467a3.667 3.667 0 1 0 0 7.333 3.667 3.667 0 0 0 0-7.333zm0 5.867a2.2 2.2 0 1 1 0-4.4 2.2 2.2 0 0 1 0 4.4z" fill="url(#h)"/><path d="M17.6 32.267a3.667 3.667 0 1 0 0 7.333 3.667 3.667 0 0 0 0-7.333zm0 5.866a2.2 2.2 0 1 1 0-4.4 2.2 2.2 0 0 1 0 4.4z" fill="url(#i)"/><path d="M8.067 32.267a3.667 3.667 0 1 0 0 7.333 3.667 3.667 0 0 0 0-7.333zm0 5.866a2.2 2.2 0 1 1 0-4.4 2.2 2.2 0 0 1 0 4.4z" fill="url(#j)"/><path d="M30.067 32.267H24.2a.733.733 0 0 0-.733.733v7.333c0 .405.328.734.733.734h5.867a.733.733 0 0 0 .733-.734V33a.733.733 0 0 0-.733-.733zm-.734 7.333h-4.4v-5.867h4.4V39.6z" fill="url(#k)"/><path d="M26.4 8.8h-1.467v1.467H26.4V8.8z" fill="url(#l)"/><path d="M29.333 8.8h-1.466v1.467h1.466V8.8z" fill="url(#m)"/><path d="M8.8 7.333V5.867H7.333v1.466H5.867V8.8h1.466v1.467H8.8V8.8h1.467V7.333H8.8z" fill="url(#n)"/><path d="M27.867 37.4h-.734a.733.733 0 0 0 0 1.467h.734a.733.733 0 0 0 0-1.467z" fill="url(#o)"/></g><defs><linearGradient id="b" x1="17.6" y1="0" x2="17.6" y2="44" gradientUnits="userSpaceOnUse"><stop stop-color="#5FCCE3"/><stop offset="1" stop-color="#D6A7FF"/></linearGradient><linearGradient id="c" x1="17.6" y1="14.666" x2="17.6" y2="22" gradientUnits="userSpaceOnUse"><stop stop-color="#5FCCE3"/><stop offset="1" stop-color="#D6A7FF"/></linearGradient><linearGradient id="d" x1="27.133" y1="14.666" x2="27.133" y2="22" gradientUnits="userSpaceOnUse"><stop stop-color="#5FCCE3"/><stop offset="1" stop-color="#D6A7FF"/></linearGradient><linearGradient id="e" x1="8.067" y1="14.666" x2="8.067" y2="22" gradientUnits="userSpaceOnUse"><stop stop-color="#5FCCE3"/><stop offset="1" stop-color="#D6A7FF"/></linearGradient><linearGradient id="f" x1="17.6" y1="23.467" x2="17.6" y2="30.8" gradientUnits="userSpaceOnUse"><stop stop-color="#5FCCE3"/><stop offset="1" stop-color="#D6A7FF"/></linearGradient><linearGradient id="g" x1="27.133" y1="23.467" x2="27.133" y2="30.8" gradientUnits="userSpaceOnUse"><stop stop-color="#5FCCE3"/><stop offset="1" stop-color="#D6A7FF"/></linearGradient><linearGradient id="h" x1="8.067" y1="23.467" x2="8.067" y2="30.8" gradientUnits="userSpaceOnUse"><stop stop-color="#5FCCE3"/><stop offset="1" stop-color="#D6A7FF"/></linearGradient><linearGradient id="i" x1="17.6" y1="32.267" x2="17.6" y2="39.6" gradientUnits="userSpaceOnUse"><stop stop-color="#5FCCE3"/><stop offset="1" stop-color="#D6A7FF"/></linearGradient><linearGradient id="j" x1="8.067" y1="32.267" x2="8.067" y2="39.6" gradientUnits="userSpaceOnUse"><stop stop-color="#5FCCE3"/><stop offset="1" stop-color="#D6A7FF"/></linearGradient><linearGradient id="k" x1="27.133" y1="32.267" x2="27.133" y2="41.067" gradientUnits="userSpaceOnUse"><stop stop-color="#5FCCE3"/><stop offset="1" stop-color="#D6A7FF"/></linearGradient><linearGradient id="l" x1="25.667" y1="8.8" x2="25.667" y2="10.267" gradientUnits="userSpaceOnUse"><stop stop-color="#5FCCE3"/><stop offset="1" stop-color="#D6A7FF"/></linearGradient><linearGradient id="m" x1="28.6" y1="8.8" x2="28.6" y2="10.267" gradientUnits="userSpaceOnUse"><stop stop-color="#5FCCE3"/><stop offset="1" stop-color="#D6A7FF"/></linearGradient><linearGradient id="n" x1="8.067" y1="5.867" x2="8.067" y2="10.267" gradientUnits="userSpaceOnUse"><stop stop-color="#5FCCE3"/><stop offset="1" stop-color="#D6A7FF"/></linearGradient><linearGradient id="o" x1="27.5" y1="37.4" x2="27.5" y2="38.867" gradientUnits="userSpaceOnUse"><stop stop-color="#5FCCE3"/><stop offset="1" stop-color="#D6A7FF"/></linearGradient><clipPath id="a"><path fill="#fff" d="M0 0h35.2v44H0z"/></clipPath></defs></svg>