<svg width="37" height="39" fill="none" xmlns="http://www.w3.org/2000/svg"><path fill-rule="evenodd" clip-rule="evenodd" d="M7.948.126a1.499 1.499 0 0 0-.782.912c-.042.155-.077.631-.077 1.056v.774l-1.482.034c-1.658.038-2.09.13-3.019.648C1.841 3.966.958 4.91.574 5.708-.05 7.002.001 5.655.001 20.946c0 15.265-.048 13.95.56 15.21.558 1.158 1.64 2.115 2.918 2.58l.647.235 11.85.022c10.455.018 11.884.007 12.15-.095.232-.09 1.256-1.089 4.511-4.404l4.21-4.287.085-.426c.062-.307.079-3.483.062-11.47-.026-12.395.025-11.32-.596-12.608-.44-.913-1.333-1.818-2.236-2.266-.88-.436-1.524-.554-3.034-.554h-1.24l-.001-.78c0-.929-.081-1.269-.382-1.617-.65-.753-1.891-.594-2.315.296-.127.266-.153.471-.153 1.211v.89H9.938v-.89c0-.74-.026-.945-.153-1.211-.318-.67-1.17-.973-1.837-.656zm-.846 6.55c.033 1.041.148 1.363.602 1.698.546.402 1.24.362 1.759-.1.402-.36.475-.608.475-1.615v-.88h17.1v.88c0 1.007.072 1.256.475 1.615.518.462 1.213.502 1.759.1.46-.34.573-.658.603-1.699l.025-.895h1.19c1.016 0 1.252.023 1.601.155.516.197.977.646 1.235 1.205l.198.43.02 9.928.021 9.927-3.095.001c-3.302.002-3.754.04-4.415.384-.446.23-1.128.91-1.372 1.365-.372.695-.418 1.154-.42 4.177v2.763l-10.181-.02-10.181-.02-.345-.173a2.49 2.49 0 0 1-1.11-1.16l-.195-.42V20.946c0-12.706.007-13.39.135-13.68.215-.488.492-.85.817-1.068.538-.362.765-.407 2.059-.413l1.21-.005.03.895zm2.407 6.535c-1.14.586-1.306 2.097-.324 2.952 1.482 1.29 3.611-.504 2.653-2.235-.319-.576-.773-.857-1.441-.892-.42-.022-.558.005-.888.175zm7.891-.046c-.633.298-1.012.916-1.012 1.646 0 .752.382 1.34 1.065 1.638.688.301 1.422.142 1.964-.425 1.068-1.118.26-3.008-1.283-3.002-.262 0-.553.058-.734.143zm7.78.012c-1.584.817-1.135 3.261.625 3.41 1.117.094 1.978-.797 1.887-1.954-.046-.575-.285-.98-.793-1.343-.272-.194-.404-.233-.86-.254-.437-.02-.6.008-.86.141zm-7.367 7.083c-.548.104-1.01.463-1.276.994-.24.478-.194 1.292.1 1.742.421.648 1.182.95 1.942.77.522-.125 1.106-.702 1.254-1.242.352-1.275-.746-2.506-2.02-2.264zm7.824.01c-.44.08-.719.243-1.018.598a1.796 1.796 0 0 0 .777 2.863c1.12.402 2.316-.474 2.316-1.697 0-.493-.152-.888-.472-1.227a1.737 1.737 0 0 0-1.603-.536zm-16.132.152c-.833.42-1.209 1.544-.794 2.38.321.647.883.997 1.602.997.839 0 1.458-.476 1.694-1.304.105-.364.11-.495.034-.84-.112-.508-.462-.985-.896-1.217-.445-.239-1.183-.246-1.64-.016zm.283 7.116a1.946 1.946 0 0 0-1.066.904c-.235.462-.227 1.196.02 1.648.243.446.72.807 1.219.92 1.21.275 2.351-.884 2.08-2.114-.227-1.032-1.29-1.673-2.253-1.358zm7.816-.005c-1.078.355-1.554 1.615-.99 2.616.734 1.3 2.524 1.18 3.142-.21.601-1.348-.755-2.865-2.152-2.406zm15.058 2.807c0 .011-1.114 1.151-2.475 2.534l-2.475 2.514v-2.381c0-2.28.007-2.388.15-2.534.144-.146.25-.152 2.475-.152 1.279 0 2.325.009 2.325.02z" fill="#6346BF"/></svg>