<svg width="94" height="94" fill="none" xmlns="http://www.w3.org/2000/svg"><path d="M81.976 47A34.977 34.977 0 1 1 19.04 25.982a1.285 1.285 0 0 1 2.056 1.543 32.395 32.395 0 1 0 6.67-6.61 1.284 1.284 0 1 1-1.527-2.067A34.98 34.98 0 0 1 81.975 47zM23.133 24.508a1.28 1.28 0 0 0 .91-.378c.125-.125.25-.25.379-.374a1.285 1.285 0 1 0-1.793-1.842c-.137.133-.272.266-.406.402a1.286 1.286 0 0 0 .91 2.192zm42.3 44.529c.315 0 .618-.116.853-.326.361-.32.713-.649 1.056-.987a1.287 1.287 0 0 0-1.801-1.836c-.314.308-.635.608-.963.9a1.285 1.285 0 0 0 .855 2.249zm3.807-5.38a1.287 1.287 0 0 0 1.786-.34 29.015 29.015 0 1 0-9.78 8.996 1.286 1.286 0 0 0-1.262-2.24 26.476 26.476 0 1 1 8.916-8.202 1.285 1.285 0 0 0 .34 1.785zM34.466 44.121l8.242 8.493a1.285 1.285 0 1 0 1.844-1.79l-8.242-8.491a4.57 4.57 0 1 0-6.561 6.368L40.432 59.71a4.6 4.6 0 0 0 3.28 1.388h.08a4.59 4.59 0 0 0 3.31-1.502L64.36 40.545a4.573 4.573 0 0 0-6.778-6.14L46.954 46.138a1.286 1.286 0 0 0 1.905 1.726l10.625-11.732a2.003 2.003 0 0 1 2.97 2.688L45.197 57.87a2.003 2.003 0 0 1-2.92.05L31.593 46.912a2.002 2.002 0 1 1 2.872-2.79v.001z" fill="url(#a)"/><defs><linearGradient id="a" x1="71.721" y1="71.721" x2="22.268" y2="22.269" gradientUnits="userSpaceOnUse"><stop stop-color="#D7A7FF"/><stop offset="1" stop-color="#5BCDE2"/></linearGradient></defs></svg>