<svg width="77" height="77" fill="none" xmlns="http://www.w3.org/2000/svg"><path d="M38.5 77C59.763 77 77 59.763 77 38.5S59.763 0 38.5 0 0 17.237 0 38.5 17.237 77 38.5 77z" fill="#FD9827"/><path d="M77 38.5c0-4.461-.761-8.744-2.157-12.729L58.951 9.88s-10.8 3.078-12.505 7.616l-6.949-6.69-4.055 5.287-5.303-5.287-3.495 5.287-5.754-5.287h-4.847l5.162 18.183c0 2.95-1.768 7.374-1.768 7.374l4.95 4.972.43 26.62 8.728 8.729c1.623.208 3.276.316 4.955.316C59.763 77 77 59.763 77 38.5z" fill="#EA7B0C"/><path d="M22.788 37.2h9.964v13.083h-9.964V37.2z" fill="#FFE780"/><path d="M27.771 37.2h4.981v13.083h-4.98V37.2z" fill="#FBBE2C"/><path d="M27.77 68.925a4.982 4.982 0 0 1-4.982-4.982v-18.02h9.964v18.02a4.982 4.982 0 0 1-4.982 4.982z" fill="#605553"/><path d="M48.988 37.2h9.963v13.083h-9.963V37.2z" fill="#FFE780"/><path d="M53.97 37.2h4.982v13.083h-4.983V37.2z" fill="#FBBE2C"/><path d="M53.97 68.925a4.982 4.982 0 0 1-4.982-4.982v-18.02h9.963v18.02a4.982 4.982 0 0 1-4.981 4.982z" fill="#605553"/><path d="M58.952 45.922v18.021a4.982 4.982 0 0 1-4.983 4.983V45.922h4.983z" fill="#4C403F"/><path d="M58.951 37.952h-8.349a5.524 5.524 0 0 1-5.524-5.525V21.858c0-6.615 5.363-11.978 11.978-11.978h1.895v28.072zM34.65 10.806v12.633a2.256 2.256 0 0 1-4.511 0V10.806h-4.737v12.633a2.256 2.256 0 0 1-4.512 0V10.806h-4.847v18.182c0 5.366 4.35 9.715 9.715 9.715h4.024c5.366 0 9.715-4.349 9.715-9.715V10.806h-4.846z" fill="#EEF9FF"/><path d="M39.497 10.806v18.183c0 4.329-2.832 7.997-6.745 9.25a9.69 9.69 0 0 1-2.97.464h-2.01V10.805h2.368v12.633a2.254 2.254 0 0 0 2.254 2.256h.002a2.256 2.256 0 0 0 2.255-2.256V10.806h4.846z" fill="#D2EBFF"/><path d="M32.752 45.922v18.021a4.982 4.982 0 0 1-4.98 4.983V45.922h4.98z" fill="#4C403F"/><path d="M58.952 9.88V37.95h-4.983V10.282c.985-.263 2.02-.403 3.088-.403h1.895z" fill="#D2EBFF"/></svg>