<svg width="40" height="40" fill="none" xmlns="http://www.w3.org/2000/svg"><path fill-rule="evenodd" clip-rule="evenodd" d="M19.178.078c-1.181.317-1.998.975-4.01 3.233-.312.349-.777.792-1.035.986-.67.503-1.012.549-3.644.484-2.325-.058-2.836-.004-3.693.388-.586.269-1.31.977-1.6 1.566-.431.879-.49 1.39-.43 3.768.065 2.66.023 2.96-.51 3.665a8.802 8.802 0 0 1-.989 1.038C.641 17.524 0 18.466 0 20.009c0 1.554.566 2.383 3.3 4.833.347.312.79.777.983 1.033.501.667.547 1.012.482 3.64-.044 1.785-.033 2.21.073 2.705.34 1.594 1.35 2.605 2.945 2.944.495.106.92.117 2.706.073 2.661-.066 2.962-.024 3.667.51.276.208.744.653 1.039.987C17.514 39.36 18.456 40 20 40c1.553 0 2.43-.597 4.807-3.27a8.933 8.933 0 0 1 1.039-.985c.703-.532 1.005-.574 3.665-.508 2.325.057 2.836.004 3.693-.389.596-.272 1.288-.955 1.59-1.57.434-.88.496-1.431.442-3.915-.057-2.586-.02-2.844.513-3.533.188-.244.64-.711 1.004-1.038C39.455 22.364 40 21.562 40 20.009c0-1.55-.601-2.431-3.295-4.83-.348-.312-.792-.776-.986-1.034-.504-.67-.55-1.012-.484-3.642.044-1.785.033-2.21-.073-2.705-.34-1.599-1.337-2.59-2.954-2.941-.488-.106-.927-.118-2.81-.078-2.648.057-2.864.025-3.588-.531a9.116 9.116 0 0 1-1.009-.966C23.051 1.313 22.127.518 21.214.197c-.584-.205-1.512-.26-2.036-.119zm1.337 2.545c.424.193 1.203.93 2.106 1.996.989 1.166 1.834 1.874 2.712 2.273.817.37 1.538.443 4.15.419 2.275-.021 2.393-.015 2.653.137.526.31.59.531.585 2.033-.002.732-.014 1.806-.027 2.387-.032 1.44.169 2.442.641 3.213.514.837 1.115 1.512 2.062 2.31 1.477 1.247 2.141 2.06 2.141 2.618 0 .557-.66 1.365-2.141 2.62-.879.744-1.28 1.166-1.787 1.88-.703.99-.935 1.913-.906 3.601.054 3.075.031 3.742-.138 4.03a1.44 1.44 0 0 1-.43.43c-.288.168-.956.19-4.03.135-1.683-.03-2.61.203-3.603.907-.715.508-1.137.909-1.882 1.787-1.255 1.48-2.063 2.14-2.621 2.14-.558 0-1.371-.664-2.619-2.14-1.131-1.339-2.32-2.238-3.343-2.529-.438-.124-.83-.141-3.2-.141-2.577 0-2.715-.008-2.974-.16a1.44 1.44 0 0 1-.43-.43c-.153-.26-.159-.377-.138-2.651.034-3.595-.096-4.07-1.583-5.822-.175-.206-.68-.678-1.123-1.05-1.435-1.203-2.128-2.053-2.128-2.607 0-.557.66-1.365 2.141-2.62 1.167-.988 1.875-1.833 2.274-2.71.37-.817.444-1.538.42-4.149-.022-2.274-.016-2.392.137-2.651.087-.15.281-.343.43-.43.26-.153.377-.16 2.675-.138 2.136.02 2.486.005 3.155-.131 1.328-.271 2.398-1.03 3.818-2.709C18.656 3.118 19.455 2.478 20 2.478c.108 0 .34.066.515.145zm-6.458 8.743c-1.986.533-3.214 2.588-2.708 4.53.524 2.01 2.577 3.25 4.536 2.74 2.006-.521 3.252-2.575 2.745-4.522-.528-2.029-2.606-3.277-4.573-2.748zm11.738 1.215c-.108.042-3.112 2.99-6.676 6.55-4.595 4.59-6.505 6.55-6.566 6.73-.196.594.246 1.407.866 1.593.72.215.283.6 7.425-6.53 6.94-6.93 6.76-6.73 6.641-7.367-.06-.318-.427-.778-.758-.95-.249-.128-.643-.14-.932-.026zm-10.311 1.273c.804.336 1 1.39.375 2.016-.508.507-1.234.507-1.742 0-.968-.969.1-2.545 1.367-2.016zm8.597 7.531c-1.986.534-3.214 2.589-2.708 4.53.524 2.011 2.577 3.251 4.536 2.741 2.006-.522 3.252-2.576 2.745-4.522-.529-2.03-2.606-3.278-4.573-2.749zm1.427 2.488c.804.336 1 1.39.375 2.016-.88.88-2.322.092-2.09-1.142.138-.737.996-1.174 1.715-.874z" fill="#6346BF"/></svg>