<svg width="72" height="72" fill="none" xmlns="http://www.w3.org/2000/svg"><g clip-path="url(#a)"><path d="M60.575 28.112s10.37 10.73 10.37 27.177c0 0-9.025 3.295-22.766 3.295-5.402 0-10.076-.51-13.758-1.128-5.684-.954-9.009-2.167-9.009-2.167 0-16.447 10.37-27.177 10.37-27.177v-6.708l-5.591-4.592-4.779-3.924 9.126-8.18a6.477 6.477 0 0 1 3.9-1.644A6.471 6.471 0 0 1 43.24 4.74l.972.886a5.89 5.89 0 0 0 7.933 0l.973-.886a6.486 6.486 0 0 1 8.7-.032l9.127 8.18-10.37 8.516v6.708z" fill="#80B4FB"/><path d="M38.982 16.524v12.239s-4.233 12.86-4.233 19.148c0 2.503-.15 6.11-.328 9.545-5.684-.954-9.009-2.167-9.009-2.167 0-16.447 10.37-27.177 10.37-27.177V14.859h1.534c.92 0 1.666.745 1.666 1.665zM38.438 3.064c-3.178 2.96-6.863 9.189-8.246 13.748l-4.779-3.924 9.126-8.18a6.477 6.477 0 0 1 3.9-1.644zM55.971 3.229C55.635 4.81 53 16.442 48.18 18.13c-4.82-1.689-7.455-13.32-7.791-14.902A6.471 6.471 0 0 1 43.24 4.74l.973.886a5.89 5.89 0 0 0 7.933 0l.973-.886a6.472 6.472 0 0 1 2.852-1.511z" fill="#61A2F9"/><path d="M39.667 44.006a322.394 322.394 0 0 0-33.654 0 4.722 4.722 0 0 0-4.44 4.113 64.012 64.012 0 0 0 0 16.29 4.721 4.721 0 0 0 4.44 4.112c11.218.586 22.436.586 33.654 0a4.722 4.722 0 0 0 4.441-4.112c.694-5.43.694-10.86 0-16.29a4.722 4.722 0 0 0-4.44-4.113z" fill="#DB5B6F"/><path d="M8.06 68.621c-.683-.03-1.365-.064-2.047-.1a4.722 4.722 0 0 1-4.44-4.113 64.045 64.045 0 0 1 0-16.29 4.721 4.721 0 0 1 4.44-4.111c.682-.035 1.364-.07 2.047-.1a4.942 4.942 0 0 0-2.715 3.805 67.191 67.191 0 0 0 0 17.102 4.947 4.947 0 0 0 2.715 3.807z" fill="#D54653"/><path d="M44.107 55.315a4.72 4.72 0 0 1-4.44 4.11 321.685 321.685 0 0 1-33.654 0 4.72 4.72 0 0 1-4.441-4.11 66.764 66.764 0 0 1-.358-3.576 63.83 63.83 0 0 0-.012 8.87 4.982 4.982 0 0 0 3.901 2.232c11.826.618 23.65.618 35.473 0a4.982 4.982 0 0 0 3.903-2.234 63.844 63.844 0 0 0-.014-8.875 63.68 63.68 0 0 1-.358 3.583z" fill="#D54653"/><path d="M28.52 63.12c-3.39.185-6.78.185-10.17 0a2.967 2.967 0 0 1-2.787-2.737 37.886 37.886 0 0 1 0-6.1 2.967 2.967 0 0 1 2.786-2.736c3.39-.185 6.78-.185 10.17 0a2.967 2.967 0 0 1 2.787 2.737 37.909 37.909 0 0 1 0 6.099 2.967 2.967 0 0 1-2.786 2.736z" fill="#FFD064"/><path d="M23.434 59.511c-1.387 0-2.79-.033-4.183-.098a34.234 34.234 0 0 1 0-4.16 89.847 89.847 0 0 1 8.367 0 34.275 34.275 0 0 1 0 4.16 89.838 89.838 0 0 1-4.183.098z" fill="#DB5B6F"/><path d="M66.685 35.026c-2.149-3.928-4.285-6.467-5.055-7.326v-5.798l9.985-8.199a1.055 1.055 0 0 0 .034-1.6l-7.555-6.771a1.055 1.055 0 0 0-1.407 1.57l6.639 5.951-7.696 6.32v-4.314a1.055 1.055 0 1 0-2.11 0v12.36a70.814 70.814 0 0 1-22.684 0V14.86a1.055 1.055 0 1 0-2.109 0v4.314l-7.696-6.32 8.21-7.36a5.42 5.42 0 0 1 4.27-1.355c.308 1.328 1.018 4.113 2.108 6.888 1.792 4.56 3.881 7.285 6.21 8.1a1.056 1.056 0 0 0 .698 0c2.33-.815 4.419-3.54 6.21-8.1 1.089-2.77 1.798-5.547 2.108-6.878a5.424 5.424 0 0 1 2.782.395 1.055 1.055 0 1 0 .83-1.94 7.562 7.562 0 0 0-8.048 1.357l-.974.886a4.815 4.815 0 0 1-6.513 0l-.973-.886a7.523 7.523 0 0 0-10.116-.037l-9.126 8.18a1.054 1.054 0 0 0 .035 1.6l9.985 8.2v5.796c-.692.77-2.469 2.871-4.363 6.094-1.604-.855-3.3-1.699-5.018-2.553a221.259 221.259 0 0 1-4.466-2.263c1.418-1.777 2.513-3.788 2.993-6.146.733-3.603-.34-6.822-2.942-8.831-2.467-1.905-5.865-2.329-8.455-1.056-1.388.682-3.717 2.452-3.717 6.643 0 2.653 1.685 5.162 5.152 7.668 1.084.784 2.303 1.544 3.6 2.285-1.608 1.582-3.454 2.99-5.198 4.32-3.755 2.864-7.317 5.583-7.41 9.247a5.77 5.77 0 0 0-4.377 4.879 65.395 65.395 0 0 0 0 16.556 5.775 5.775 0 0 0 5.432 5.033 324.723 324.723 0 0 0 33.764 0 5.772 5.772 0 0 0 5.431-5.033c.21-1.642.356-3.291.44-4.943.859.026 1.724.04 2.585.04 13.77 0 22.753-3.222 23.129-3.36.416-.152.693-.547.693-.99 0-8.72-2.89-15.832-5.315-20.263zM43.502 6.406a6.915 6.915 0 0 0 9.354 0l.973-.886c.198-.18.407-.343.625-.49-.366 1.397-.928 3.314-1.68 5.224-1.757 4.474-3.417 6.15-4.595 6.734-1.178-.584-2.838-2.26-4.596-6.734-.75-1.91-1.313-3.828-1.68-5.226.218.147.427.31.627.492l.972.885zM10.87 19.585c0-2.291.878-3.934 2.538-4.75.695-.341 1.488-.507 2.305-.507 1.365 0 2.794.463 3.93 1.34 1.142.88 2.94 2.928 2.164 6.74-.425 2.091-1.465 3.91-2.823 5.54-4.558-2.555-8.114-5.267-8.114-8.362zM6.068 45.06c1.88-.098 3.76-.18 5.59-.242a1.055 1.055 0 1 0-.073-2.109c-1.492.052-3.018.116-4.55.19.272-2.566 3.21-4.81 6.557-7.362 1.967-1.5 4.054-3.092 5.849-4.936 1.616.861 3.303 1.7 4.966 2.527 1.663.827 3.34 1.661 4.931 2.51a44.538 44.538 0 0 0-2.923 6.898c-3.548-.04-7.09-.024-10.606.053a1.055 1.055 0 0 0-1.031 1.078 1.05 1.05 0 0 0 1.077 1.031 322.22 322.22 0 0 1 23.758.362 3.661 3.661 0 0 1 3.448 3.193c.148 1.157.262 2.318.346 3.481a62.908 62.908 0 0 1-.346 3.448 3.661 3.661 0 0 1-3.45 3.19 323.42 323.42 0 0 1-7.152.293c.05-1.49.018-2.985-.102-4.466-.161-2.003-1.786-3.596-3.78-3.705a94.469 94.469 0 0 0-10.285 0c-1.994.11-3.619 1.702-3.78 3.705-.12 1.492-.153 3-.1 4.5a325.9 325.9 0 0 1-8.344-.327 3.66 3.66 0 0 1-3.45-3.19 67.056 67.056 0 0 1-.345-3.435c.083-1.167.197-2.333.346-3.494a3.663 3.663 0 0 1 3.449-3.193zm25.126-8.399c3.417 1.956 6.178 4.001 7.106 6.225-3.216-.154-6.443-.26-9.67-.318a42.33 42.33 0 0 1 2.564-5.907zm-.94 23.637a1.921 1.921 0 0 1-1.792 1.768 92.41 92.41 0 0 1-10.055 0 1.921 1.921 0 0 1-1.793-1.768 37.027 37.027 0 0 1 0-5.93 1.92 1.92 0 0 1 1.793-1.768 92.081 92.081 0 0 1 10.055 0 1.92 1.92 0 0 1 1.793 1.769 37.027 37.027 0 0 1 0 5.929zm9.359 7.17c-11.13.58-22.415.58-33.544 0a3.666 3.666 0 0 1-3.45-3.194 63.198 63.198 0 0 1-.457-5.485 5.772 5.772 0 0 0 3.796 1.69c2.85.15 5.736.26 8.597.334.31 1.838 1.86 3.257 3.736 3.36a94.295 94.295 0 0 0 10.286 0c1.889-.104 3.446-1.54 3.742-3.393 2.446-.072 4.93-.172 7.402-.301a5.774 5.774 0 0 0 3.798-1.69 63.064 63.064 0 0 1-.458 5.486 3.664 3.664 0 0 1-3.448 3.193zm26.816-11.995a81.16 81.16 0 0 0-1.196-9.409 1.054 1.054 0 1 0-2.073.39 79.149 79.149 0 0 1 1.184 9.481c-.812.166-1.733.34-2.752.508a81.668 81.668 0 0 0-1.35-12.573 1.055 1.055 0 0 0-2.074.389 79.607 79.607 0 0 1 1.323 12.5 83.516 83.516 0 0 1-13.823.731 65.269 65.269 0 0 0-.515-9.504 5.766 5.766 0 0 0-4.58-4.924c-.774-3.223-4.083-5.812-8.348-8.246 1.685-2.853 3.262-4.778 3.951-5.567 3.984.663 7.993.995 12.003.995s8.018-.332 12.002-.995c.791.905 2.75 3.298 4.688 6.853 2.22 4.074 4.853 10.53 5.013 18.428-.686.217-1.862.563-3.453.943z" fill="#000"/><path d="M27.667 54.2a90.99 90.99 0 0 0-8.465 0c-.538.025-.97.452-1.004.99a35.45 35.45 0 0 0 0 4.287c.033.538.466.964 1.004.99a91.07 91.07 0 0 0 8.465 0c.538-.026.97-.452 1.003-.99a35.491 35.491 0 0 0 0-4.287 1.055 1.055 0 0 0-1.003-.99zm-1.058 4.2c-2.12.075-4.23.075-6.35 0a33.51 33.51 0 0 1 0-2.132 88.08 88.08 0 0 1 6.35 0c.022.71.022 1.422 0 2.131z" fill="#000"/></g><defs><clipPath id="a"><path fill="#fff" d="M0 0h72v72H0z"/></clipPath></defs></svg>