<svg width="33" height="32" fill="none" xmlns="http://www.w3.org/2000/svg"><ellipse cx="16.5" cy="16" rx="16.5" ry="16" fill="#6346BF"/><path d="M24.418 9.145H9.582c-.871 0-1.582.71-1.582 1.582v10.546c0 .87.708 1.582 1.582 1.582h14.836c.869 0 1.582-.707 1.582-1.582V10.727c0-.87-.708-1.582-1.582-1.582zm-.218 1.054-7.166 7.166L9.806 10.2H24.2zM9.055 21.055V10.94l5.079 5.036-5.08 5.079zm.745.746 5.083-5.083 1.78 1.766a.527.527 0 0 0 .745-.002l1.736-1.736L24.2 21.8H9.8zm15.145-.746L19.89 16l5.055-5.055v10.11z" fill="#fff"/></svg>