<svg width="18" height="18" fill="none" xmlns="http://www.w3.org/2000/svg"><g clip-path="url(#a)"><path d="M11.18 4.42c.024-.027.139-.118.591-.118h1.483a.875.875 0 0 0 .875-.874V.842a.875.875 0 0 0-.873-.874l-2.203-.003c-1.36 0-2.515.447-3.342 1.294-.824.843-1.259 2.02-1.259 3.404v1.395H4.767a.875.875 0 0 0-.875.873v2.786c0 .481.393.873.875.873h1.685v6.502c0 .481.393.873.875.873h2.888a.875.875 0 0 0 .875-.873V10.59h2.06a.875.875 0 0 0 .874-.873l.002-2.786a.876.876 0 0 0-.883-.873H11.09V4.956c0-.36.049-.49.09-.536z" fill="#fff"/></g><defs><clipPath id="a"><path fill="#fff" d="M0 0h18v18H0z"/></clipPath></defs></svg>