<svg width="25" height="25" fill="none" xmlns="http://www.w3.org/2000/svg"><g clip-path="url(#a)"><path d="M24.071 0H1.025A.976.976 0 0 0 .05.977a9.538 9.538 0 0 0 3.198 7.122L7.524 11.9a3.48 3.48 0 0 1 1.167 2.6v9.522a.977.977 0 0 0 1.518.813l5.762-3.841a.977.977 0 0 0 .434-.813V14.5c0-.992.426-1.94 1.167-2.599l4.277-3.8A9.538 9.538 0 0 0 25.047.976.976.976 0 0 0 24.072 0zm-3.52 6.64-4.276 3.8a5.435 5.435 0 0 0-1.823 4.06v5.159l-3.808 2.539v-7.699c0-1.55-.664-3.029-1.823-4.058L4.545 6.639a7.586 7.586 0 0 1-2.48-4.686h20.966a7.584 7.584 0 0 1-2.48 4.686z" fill="#32C1DB"/></g><defs><clipPath id="a"><path fill="#fff" d="M0 0h25v25H0z"/></clipPath></defs></svg>