<svg width="75" height="75" fill="none" xmlns="http://www.w3.org/2000/svg"><g clip-path="url(#a)"><path d="M43.821 12.166a8.655 8.655 0 0 0 12.24 12.239c3.379-3.38 6.537-12.018 3.158-15.397-3.38-3.38-12.018-.222-15.398 3.158z" fill="#77BC4D"/><path d="M43.822 12.166a8.642 8.642 0 0 0-2.393 7.689 8.603 8.603 0 0 1 2.393-4.548c3.379-3.38 12.017-6.537 15.396-3.158.713.712 1.135 1.658 1.325 2.74.33-2.352.023-4.534-1.325-5.882-3.38-3.38-12.017-.221-15.396 3.16z" fill="#479838"/><path d="m27.342 15.242-.842 3.47a5.96 5.96 0 0 1-2.026 3.245c-2.267 1.852-5.778 1.945-8.12-.4-2.341-2.34-2.252-5.845-.405-8.112a5.963 5.963 0 0 1 3.25-2.034l3.47-.842 4.673 4.673z" fill="#F74F43"/><path d="m22.67 10.57 4.672 4.672-.842 3.47a5.961 5.961 0 0 1-2.026 3.245 7.955 7.955 0 0 1-1.29-2.796l-.223-.922a6.688 6.688 0 0 1-1.937-1.352 6.678 6.678 0 0 1-1.348-1.935l-.925-.224a7.999 7.999 0 0 1-2.802-1.284 5.963 5.963 0 0 1 3.25-2.033l3.47-.842z" fill="#CE2828"/><path d="M35.586 10.843a5.966 5.966 0 0 1-3.252 2.033l-3.469.844-4.673-4.674.843-3.469a5.974 5.974 0 0 1 2.026-3.246c2.266-1.85 5.777-1.944 8.121.399 2.34 2.34 2.25 5.846.404 8.113z" fill="#F74F43"/><path d="M35.586 10.843a5.966 5.966 0 0 1-3.252 2.033l-3.469.844-4.673-4.674.843-3.469a5.974 5.974 0 0 1 2.026-3.246 7.949 7.949 0 0 1 1.289 2.797l.224.92a6.734 6.734 0 0 1 3.286 3.29l.924.224c1.036.251 1.98.69 2.802 1.281z" fill="#CE2828"/><path d="M16.353 2.73C19.688-.604 25.386.994 26.5 5.577l.842 3.47-4.672 4.672-3.47-.842c-4.582-1.114-6.181-6.812-2.847-10.147zM35.181 21.558c-3.334 3.335-9.033 1.736-10.146-2.846l-.843-3.47 4.673-4.673 3.47.843c4.582 1.113 6.181 6.812 2.846 10.146z" fill="#FF7061"/><path d="M30.571 12.145a4.804 4.804 0 1 1-9.608-.001 4.804 4.804 0 0 1 9.608 0z" fill="#FFD2BC"/><path d="M50.56 37.884c-2.527-3.621-6.723-5.993-11.474-5.993-4.752 0-8.948 2.372-11.476 5.993h22.95z" fill="#CBD359"/><path d="M51.754 73.755H27.062a1.412 1.412 0 0 1-1.408-1.297l-2.35-28.51h32.208l-2.35 28.51a1.412 1.412 0 0 1-1.408 1.297z" fill="#D0DAAD"/><path d="M31.159 73.755h-4.097a1.414 1.414 0 0 1-1.408-1.297l-2.35-28.51h4.097l2.349 28.51c.06.733.674 1.297 1.409 1.297z" fill="#B9C394"/><path d="M56.111 46.495H22.706c-.78 0-1.413-.633-1.413-1.413v-6.925c0-.78.633-1.412 1.413-1.412h33.407c.78 0 1.412.632 1.412 1.413v6.924c0 .78-.633 1.413-1.413 1.413z" fill="#FFF0D0"/><path d="M26.802 46.495h-4.096a1.412 1.412 0 0 1-1.413-1.413v-6.925c0-.78.632-1.412 1.413-1.412h4.096c-.78 0-1.413.633-1.413 1.413v6.924c0 .78.632 1.413 1.413 1.413z" fill="#EAD2C1"/><path d="M53.955 62.837c-.603-.05-1.135.4-1.185 1.005l-.703 8.526a.315.315 0 0 1-.313.288H38.256a1.099 1.099 0 1 0 0 2.198h13.498a2.526 2.526 0 0 0 2.503-2.305l.703-8.527c.05-.605-.4-1.136-1.005-1.185zM56.112 35.646h-5.947a15.103 15.103 0 0 0-9.971-4.812V29.83l-.002-.095 3.757-3.758a9.73 9.73 0 0 0 5.991 2.056 9.725 9.725 0 0 0 6.897-2.851c3.531-3.532 7.21-12.899 3.158-16.951-1.434-1.434-3.685-2.013-6.513-1.675a1.099 1.099 0 0 0 .26 2.182c1.489-.178 3.512-.141 4.7 1.046 1.215 1.215 1.459 3.637.67 6.643-.732 2.78-2.234 5.606-3.829 7.2a7.529 7.529 0 0 1-5.343 2.21 7.546 7.546 0 0 1-4.423-1.427l7.966-7.968a1.098 1.098 0 1 0-1.553-1.553l-7.989 7.988a7.496 7.496 0 0 1-1.557-4.592c0-2.018.787-3.915 2.214-5.342 1.053-1.054 2.722-2.117 4.578-2.918a1.099 1.099 0 1 0-.87-2.018c-2.133.921-4.002 2.122-5.262 3.382a9.689 9.689 0 0 0-2.856 6.896c0 2.27.77 4.422 2.188 6.157l-2.542 2.543a11.262 11.262 0 0 0-2.961-5.171l-.247-.248c1.337-1.768 1.772-4.022 1.158-6.21a7.12 7.12 0 0 0-1.901-3.214A7.16 7.16 0 0 0 38.02 7.66a7.099 7.099 0 0 0-2.063-5.706A7.094 7.094 0 0 0 30.19-.104 7.153 7.153 0 0 0 25.77 2.03 7.128 7.128 0 0 0 22.556.127a7.058 7.058 0 0 0-6.98 1.827 7.058 7.058 0 0 0-1.826 6.98 7.123 7.123 0 0 0 1.903 3.213 7.154 7.154 0 0 0-2.135 4.423 7.095 7.095 0 0 0 2.059 5.765 7.1 7.1 0 0 0 5.75 2.06 7.154 7.154 0 0 0 4.437-2.136c.86.889 1.957 1.55 3.214 1.902a7.28 7.28 0 0 0 1.967.274c1.473 0 2.9-.46 4.11-1.333l.265.265a9.08 9.08 0 0 1 2.677 6.463v1.003a15.105 15.105 0 0 0-9.99 4.813h-5.302a2.514 2.514 0 0 0-2.511 2.51v6.926a2.513 2.513 0 0 0 2.308 2.5l2.057 24.966a2.526 2.526 0 0 0 2.503 2.306h6.137a1.099 1.099 0 1 0 0-2.198h-6.137a.316.316 0 0 1-.313-.288l-1.626-19.726h28.57l-.506 6.143a1.099 1.099 0 1 0 2.19.18l.938-11.382a2.513 2.513 0 0 0 2.308-2.5v-6.925a2.514 2.514 0 0 0-2.511-2.512zM30.416 2.081c1.498-.154 2.914.351 3.988 1.426 1.064 1.063 1.572 2.464 1.431 3.944a4.954 4.954 0 0 1-1.811 3.403 7.312 7.312 0 0 0-1.43-.51l-1.32-.32a5.87 5.87 0 0 0-3.386-3.386l-.32-1.32a7.362 7.362 0 0 0-.51-1.43 4.945 4.945 0 0 1 3.358-1.807zm-7.268 12.683a3.71 3.71 0 0 1 0-5.24 3.694 3.694 0 0 1 2.62-1.083c.948 0 1.897.361 2.62 1.083a3.709 3.709 0 0 1 0 5.24 3.68 3.68 0 0 1-2.62 1.086 3.68 3.68 0 0 1-2.62-1.086zM17.13 3.507a4.888 4.888 0 0 1 4.832-1.265 4.888 4.888 0 0 1 3.47 3.595l.101.414a5.877 5.877 0 0 0-3.94 1.72 5.877 5.877 0 0 0-1.72 3.939l-.413-.1a4.888 4.888 0 0 1-3.594-3.47 4.889 4.889 0 0 1 1.264-4.833zm3.976 18.701c-1.493.153-2.904-.355-3.976-1.427-1.074-1.074-1.58-2.489-1.426-3.985a4.946 4.946 0 0 1 1.806-3.362c.451.215.929.388 1.431.51l1.32.321c.288.748.73 1.45 1.333 2.053a5.885 5.885 0 0 0 2.054 1.336l.32 1.317c.121.502.294.98.51 1.43a4.945 4.945 0 0 1-3.372 1.807zm8.466-.162a4.887 4.887 0 0 1-3.47-3.593l-.1-.412a5.862 5.862 0 0 0 3.939-1.723 5.878 5.878 0 0 0 1.72-3.939l.414.1a4.887 4.887 0 0 1 3.594 3.47 4.888 4.888 0 0 1-1.264 4.833 4.888 4.888 0 0 1-4.833 1.264zm9.514 10.943c2.849 0 5.599.95 7.83 2.657h-15.66a12.894 12.894 0 0 1 7.83-2.657zM24.942 50.446l-.235-2.853H54.11l-.235 2.853H24.942zm31.483-5.364c0 .173-.14.315-.313.315H22.705a.315.315 0 0 1-.314-.315v-6.925c0-.173.14-.314.314-.314h33.407c.172 0 .313.141.313.314v6.925z" fill="#000"/></g><defs><clipPath id="a"><path fill="#fff" d="M0 0h75v75H0z"/></clipPath></defs></svg>