<svg width="55" height="53" fill="none" xmlns="http://www.w3.org/2000/svg"><g clip-path="url(#a)" fill="#fff"><path d="m40.884 21.266 3.231-.197.017-.002c2.303-.187 4.37-1.352 5.672-3.196l2.554-3.619c2.224-3.15 3.086-6.956 2.425-10.714a3.278 3.278 0 0 0-1.1-1.915 3.49 3.49 0 0 0-2.101-.826c-3.945-.182-7.754 1.1-10.726 3.61l-3.415 2.882c-1.74 1.469-2.69 3.59-2.607 5.82v.017l.185 3.12a4.307 4.307 0 0 1-1.265 3.292L7.075 46c-.714.719-1.083 1.706-1.038 2.778.05 1.18.61 2.34 1.501 3.102.805.688 1.91 1.08 3.016 1.08.118 0 .236-.004.354-.013 1.109-.086 2.08-.557 2.736-1.333L37.65 22.876a4.605 4.605 0 0 1 3.235-1.61zm-4.516.608L12.365 50.61c-.367.433-.93.7-1.588.75-.782.06-1.583-.19-2.145-.671a2.791 2.791 0 0 1-.947-1.975c-.027-.636.18-1.209.576-1.608l26.677-26.46a5.874 5.874 0 0 0 1.728-4.49l-.184-3.113c-.063-1.745.682-3.405 2.044-4.556l3.415-2.882c2.65-2.237 6.047-3.38 9.562-3.218.4.019.786.17 1.086.427.3.257.502.608.569.99.588 3.35-.18 6.742-2.162 9.551l-2.555 3.62c-1.019 1.443-2.637 2.356-4.44 2.505l-3.222.197a6.281 6.281 0 0 0-4.411 2.197z"/><path d="M53.477 45.799 35.589 30.068a.845.845 0 0 0-1.165.052.777.777 0 0 0 .055 1.125l17.883 15.727c.426.38.667.94.68 1.575a2.778 2.778 0 0 1-.823 2.027c-.53.512-1.313.81-2.099.794-.659-.012-1.238-.245-1.627-.652L32.553 33.82a.846.846 0 0 0-1.165-.053.777.777 0 0 0-.054 1.125l15.944 16.9c.7.732 1.698 1.147 2.81 1.168l.086.001c1.195 0 2.39-.468 3.21-1.261a4.37 4.37 0 0 0 1.306-3.184c-.022-1.073-.45-2.037-1.213-2.717zM9.948 21.116a7.782 7.782 0 0 0 5.01 1.949l3.237.01a4.623 4.623 0 0 1 3.327 1.416l1.426 1.512c.163.172.386.26.61.26a.837.837 0 0 0 .555-.207.777.777 0 0 0 .054-1.125l-1.428-1.514a6.306 6.306 0 0 0-4.538-1.935l-3.23-.01a6.107 6.107 0 0 1-3.868-1.494L1.72 9.208a.267.267 0 0 1 .016-.371.287.287 0 0 1 .201-.08c.044 0 .13.01.202.08l8.54 8.247a2.223 2.223 0 0 0 3.063 0l1.004-.97 1.782-1.72v-.001l1.004-.97a2.042 2.042 0 0 0 0-2.956l-8.54-8.246a.269.269 0 0 1 0-.389.29.29 0 0 1 .384-.016l11.154 9.06a5.675 5.675 0 0 1 1.548 3.735l.01 3.118a5.903 5.903 0 0 0 2.006 4.384l1.529 1.344a.846.846 0 0 0 1.165-.052.777.777 0 0 0-.055-1.125l-1.526-1.342a4.327 4.327 0 0 1-1.47-3.214l-.01-3.126v-.017a7.238 7.238 0 0 0-2.019-4.82.807.807 0 0 0-.075-.07L10.437.598a1.972 1.972 0 0 0-2.612.108 1.823 1.823 0 0 0 0 2.64l8.541 8.247a.487.487 0 0 1 0 .705l-.42.406-9.52-9.19a.845.845 0 0 0-1.165 0 .777.777 0 0 0 0 1.125l9.519 9.191-.617.595-9.52-9.19a.845.845 0 0 0-1.165 0 .776.776 0 0 0 0 1.125l9.519 9.191-.42.407a.53.53 0 0 1-.731 0L3.304 7.71a1.956 1.956 0 0 0-1.367-.547c-.516 0-1.002.195-1.367.547a1.81 1.81 0 0 0-.112 2.522l9.418 10.81c.022.026.047.05.072.073z"/></g><defs><clipPath id="a"><path fill="#fff" d="M0 0h55v53H0z"/></clipPath></defs></svg>