<svg width="78" height="78" fill="none" xmlns="http://www.w3.org/2000/svg"><g clip-path="url(#a)"><path d="M77.848 38.848c0 21.539-17.461 39-39 39A38.83 38.83 0 0 1 14.15 69.03 39.124 39.124 0 0 1 2.454 52.889a38.578 38.578 0 0 1-2.02-7.275 39.192 39.192 0 0 1-.586-6.766c0-21.54 17.46-39 39-39 21.539 0 39 17.46 39 39z" fill="#F4CA19"/><path d="M46.555 40.339c-.008.214-.019.427-.031.64-.658 10.791-7.45 20.177-17.262 24.446-.678.295-1.37.565-2.075.81l-4.36 1.513 9.292-9.29a27.564 27.564 0 0 0 7.774-15.319c.157-1.01.258-2.036.301-3.069l6.361.269z" fill="#E6E6E6"/><path d="M41.449 43.204c-.008.214 2.651-3.572 2.651-3.358 0 9.334-7.834 20.66-14.838 25.58-.678.294-1.37.564-2.075.809l-4.36 1.513 9.292-9.29a27.564 27.564 0 0 0 7.774-15.319l1.556.065z" fill="#B3B3B3"/><path d="M39.53 43.652 14.15 69.03A39.116 39.116 0 0 1 2.454 52.889l13.963-13.962 23.112 4.725z" fill="#31474C"/><path d="m77.847 19.145-13.749 1.377a14.483 14.483 0 0 0-8.8 4.17l-.242.242-10.087 10.087-1.54 1.54-3.935-3.936-1.619-1.618 6.574-6.574 4.863-4.864a23.394 23.394 0 0 1 2.994-2.538 24.021 24.021 0 0 1 11.617-4.386l13.14-1.316.176 1.764.608 6.052z" fill="#B3B3B3"/><path d="m39.53 43.652-5.92 5.92-31.156 3.317 13.963-13.962 23.112 4.725z" fill="#213235"/><path d="m77.847 19.145-13.749 1.377a14.483 14.483 0 0 0-8.8 4.17l-.242.242-10.087 10.087-1.54 1.54-3.935-3.936 6.574-6.574 4.862-4.864c.176-.176.354-.347.535-.516a23.26 23.26 0 0 1 2.46-2.022 24.028 24.028 0 0 1 11.616-4.386l11.698-1.17.608 6.052z" fill="#E6E6E6"/><path d="m48.704 36.442-.349 6.253-35.469 3.733-10.528 1.108 10.895-10.893L36.94 26.516a4.406 4.406 0 0 1 4.85.936l5.63 5.63a4.408 4.408 0 0 1 1.284 3.36z" fill="#FF2751"/><path d="m50.36 29.63-2.347 2.346-2.867-8.24 2.348-2.348 2.867 8.241zM55.056 24.934l-2.348 2.348-2.862-8.23a23.401 23.401 0 0 1 2.46-2.022l2.75 7.904z" fill="#B3B3B3"/><path d="M41.79 27.452 19.711 39.6l-6.826 6.828-10.528 1.108 10.895-10.893L36.94 26.516a4.406 4.406 0 0 1 4.85.936z" fill="#D10F46"/></g><defs><clipPath id="a"><path fill="#fff" d="M0 0h78v78H0z"/></clipPath></defs></svg>