<svg width="57" height="57" fill="none" xmlns="http://www.w3.org/2000/svg"><path d="M30.524 8.795H9.387c-.657 0-1.195.538-1.195 1.195v13.972c0 .657.538 1.194 1.195 1.194h21.137c.657 0 1.194-.537 1.194-1.194V9.99c0-.657-.537-1.195-1.194-1.195zM29.33 22.768H10.58V11.184h18.75v11.584z" fill="#fff"/><path d="M55.794 51.668H35.779V32.56h1.946c1.768 0 3.2 1.445 3.189 3.213V39.105c0 3.499 2.83 6.329 6.33 6.329 3.498 0 6.329-2.83 6.329-6.33V20.213a7.774 7.774 0 0 0-2.066-5.29l-9.34-10.64-1.79 1.575 7.236 8.253a4.8 4.8 0 0 0-3.94 5.529 4.798 4.798 0 0 0 4.74 4.012 4.895 4.895 0 0 0 2.771-.883v16.337a3.945 3.945 0 0 1-3.94 3.94 3.945 3.945 0 0 1-3.942-3.94v-3.308c.012-3.093-2.484-5.613-5.565-5.625H35.78V7.923c0-2.722-2.198-4.98-4.92-4.98H8.67c-2.723 0-4.896 2.27-4.896 4.98v43.745h-2.58c-.657 0-1.194.537-1.194 1.194 0 .657.537 1.194 1.194 1.194h54.612c.657 0 1.194-.537 1.194-1.194a1.2 1.2 0 0 0-1.206-1.194zm-7.38-30.417A2.413 2.413 0 0 1 46 18.839a2.421 2.421 0 0 1 2.413-2.413 2.413 2.413 0 0 1 2.412 2.413 2.421 2.421 0 0 1-2.412 2.412zM33.39 51.668H6.162V7.923c0-1.409 1.099-2.591 2.508-2.591h22.189c1.409 0 2.531 1.194 2.531 2.591v43.745z" fill="#fff"/></svg>