<svg width="87" height="87" fill="none" xmlns="http://www.w3.org/2000/svg"><g clip-path="url(#a)"><path d="M43.974 74.016S24.546 62.454 14.405 47.765c-5.875-8.53-6.728-15.922-5.023-21.703 2.465-8.34 11.847-16.585 24.925-11.752 6.35 2.37 9.667 5.023 9.667 5.023s3.317-2.653 9.667-5.022c13.078-4.834 22.46 3.411 24.925 11.751 1.705 5.686.852 13.079-5.023 21.703-10.14 14.69-29.569 26.251-29.569 26.251z" fill="#F55557"/><path d="M85.673 42.173h-7.392c3.127-7.013 2.748-12.604 1.611-16.395-1.99-6.824-8.624-14.121-18.575-14.121-2.654 0-5.307.474-8.056 1.516-4.738 1.8-7.866 3.696-9.192 4.644-1.422-.948-4.455-2.843-9.193-4.644-2.749-1.042-5.402-1.516-8.056-1.516-9.95 0-16.585 7.297-18.575 14.12-1.327 3.981-1.706 10.141 2.085 17.818H1.327c-.758 0-1.327.568-1.327 1.327 0 .758.569 1.326 1.327 1.326h10.52l1.421 2.275c8.624 12.415 27.294 25.872 30.706 26.725v.095s.095 0 .19-.095h.189v-.094c2.938-1.422 20.85-12.984 30.327-26.726.853-1.232 1.61-2.559 2.274-3.696h8.72c.757 0 1.326-.569 1.326-1.327 0-.663-.569-1.232-1.327-1.232zM10.71 26.536c1.706-5.876 7.487-12.226 16.017-12.226 2.274 0 4.643.474 7.107 1.327 6.066 2.275 9.288 4.834 9.288 4.834.474.379 1.232.379 1.706 0 0 0 3.222-2.56 9.287-4.834 2.464-.853 4.834-1.327 7.108-1.327 8.53 0 14.31 6.35 16.017 12.226 1.421 4.833.663 10.14-1.99 15.637h-8.056l-3.412-5.78c-.19-.38-.663-.664-1.137-.664s-.948.19-1.137.568l-2.844 4.17-4.549-14.784c-.19-.569-.758-.948-1.326-.948-.569 0-1.138.38-1.327.948l-7.677 26.63-8.34-21.323c-.19-.474-.663-.853-1.232-.853-.568 0-1.042.285-1.232.758l-6.539 12.7H13.458c-3.318-6.066-4.36-11.847-2.749-17.059zm61.696 20.47c-8.813 12.795-24.925 23.22-28.431 25.4-3.507-2.18-19.618-12.7-28.431-25.4-.19-.284-.285-.473-.474-.758h12.225c.474 0 .948-.284 1.232-.758l5.497-10.804 8.719 22.272c.19.568.663.852 1.232.852h.095c.568 0 1.042-.379 1.232-.947L52.882 30.8l4.076 13.173c.19.474.568.853 1.137.948.474.094 1.042-.19 1.327-.569l3.222-4.644 2.748 4.644c.285.379.663.663 1.137.663h7.298c-.474.569-.948 1.327-1.422 1.99z" fill="#30323A"/></g><defs><clipPath id="a"><path fill="#fff" d="M0 0h87v87H0z"/></clipPath></defs></svg>