<svg width="19" height="19" fill="none" xmlns="http://www.w3.org/2000/svg"><path d="M13.857 0H5.143A5.149 5.149 0 0 0 0 5.143v8.714A5.149 5.149 0 0 0 5.143 19h8.714A5.149 5.149 0 0 0 19 13.857V5.143A5.149 5.149 0 0 0 13.857 0zM9.5 14.695A5.201 5.201 0 0 1 4.305 9.5 5.201 5.201 0 0 1 9.5 4.305 5.201 5.201 0 0 1 14.695 9.5 5.201 5.201 0 0 1 9.5 14.695zm5.32-9.165a1.537 1.537 0 0 1-1.536-1.535c0-.847.689-1.535 1.535-1.535.847 0 1.536.688 1.536 1.535 0 .846-.69 1.535-1.536 1.535z" fill="#fff"/><path d="M9.5 5.419A4.086 4.086 0 0 0 5.419 9.5 4.086 4.086 0 0 0 9.5 13.581 4.086 4.086 0 0 0 13.581 9.5c0-2.25-1.83-4.081-4.081-4.081zM14.82 3.574a.422.422 0 1 0 0 .843.422.422 0 0 0 0-.843z" fill="#fff"/></svg>