<svg width="257" height="257" fill="none" xmlns="http://www.w3.org/2000/svg"><path opacity=".1" fill-rule="evenodd" clip-rule="evenodd" d="M123.217.503c-7.589 2.036-12.832 6.261-25.769 20.77-1.996 2.24-4.985 5.09-6.642 6.335-4.303 3.234-6.505 3.526-23.411 3.109-14.94-.369-18.225-.023-23.731 2.496-3.766 1.723-8.415 6.275-10.275 10.06-2.774 5.645-3.15 8.931-2.773 24.206.422 17.09.154 19.02-3.276 23.547-1.342 1.773-4.2 4.776-6.35 6.673C4.117 112.589 0 118.642 0 128.557c0 9.983 3.636 15.309 21.2 31.053 2.235 2.004 5.078 4.991 6.317 6.639 3.223 4.285 3.516 6.501 3.099 23.386-.284 11.469-.21 14.2.468 17.379 2.182 10.241 8.68 16.735 18.924 18.916 3.18.678 5.913.751 17.387.468 17.096-.422 19.027-.154 23.557 3.274 1.774 1.342 4.778 4.198 6.676 6.347C112.525 252.885 118.58 257 128.5 257c9.98 0 15.616-3.834 30.885-21.011 1.904-2.143 4.908-4.99 6.675-6.327 4.516-3.417 6.459-3.686 23.545-3.264 14.941.368 18.225.023 23.731-2.496 3.83-1.753 8.273-6.141 10.22-10.094 2.783-5.65 3.182-9.193 2.834-25.151-.364-16.615-.123-18.27 3.294-22.698 1.21-1.567 4.115-4.57 6.455-6.672C253.501 143.686 257 138.531 257 128.557c0-9.957-3.863-15.622-21.169-31.037-2.24-1.996-5.092-4.983-6.337-6.64-3.235-4.301-3.527-6.502-3.11-23.4.283-11.47.21-14.2-.468-17.38-2.188-10.27-8.59-16.642-18.98-18.896-3.137-.68-5.956-.757-18.058-.497-17.012.367-18.398.162-23.046-3.414-1.682-1.293-4.599-4.086-6.484-6.207-11.24-12.65-17.181-17.758-23.049-19.82-3.753-1.318-9.714-1.666-13.082-.763zm8.594 16.352c2.724 1.237 7.726 5.977 13.53 12.822 6.352 7.491 11.783 12.042 17.425 14.603 5.246 2.38 9.878 2.848 26.663 2.693 14.618-.135 15.376-.096 17.042.882 3.384 1.988 3.795 3.411 3.764 13.058-.016 4.703-.095 11.606-.177 15.34-.201 9.246 1.085 15.687 4.121 20.64 3.299 5.379 7.166 9.714 13.245 14.847 9.491 8.012 13.76 13.23 13.76 16.817 0 3.581-4.242 8.77-13.76 16.834-5.644 4.782-8.221 7.494-11.482 12.085-4.516 6.357-6.006 12.285-5.817 23.134.344 19.753.198 24.038-.887 25.883-.563.959-1.809 2.203-2.767 2.767-1.847 1.084-6.141 1.228-25.895.87-10.811-.196-16.766 1.304-23.145 5.831-4.592 3.259-7.306 5.835-12.09 11.476-8.067 9.514-13.259 13.754-16.841 13.754-3.588 0-8.809-4.267-16.825-13.754-7.268-8.601-14.91-14.38-21.481-16.245-2.81-.797-5.335-.909-20.563-.909-16.553 0-17.44-.047-19.102-1.023-.959-.564-2.204-1.808-2.767-2.767-.978-1.665-1.018-2.422-.883-17.034.215-23.095-.618-26.154-10.175-37.404-1.123-1.322-4.369-4.357-7.213-6.744-9.217-7.734-13.675-13.197-13.675-16.754 0-3.581 4.242-8.77 13.76-16.833 7.494-6.35 12.047-11.778 14.609-17.417 2.382-5.244 2.85-9.874 2.694-26.652-.135-14.611-.095-15.369.883-17.034.563-.958 1.809-2.203 2.767-2.766 1.667-.979 2.422-1.017 17.182-.88 13.724.127 15.975.032 20.273-.845 8.53-1.742 15.406-6.62 24.53-17.404 7.353-8.691 12.487-12.802 15.986-12.802.692 0 2.182.419 3.311.931zm-41.494 56.17c-12.758 3.429-20.65 16.632-17.4 29.107 3.366 12.918 16.556 20.887 29.146 17.608 12.886-3.355 20.895-16.55 17.636-29.057-3.397-13.035-16.743-21.056-29.382-17.659zm75.416 7.806c-.692.27-19.995 19.209-42.895 42.088-29.518 29.489-41.796 42.076-42.182 43.243-1.26 3.811 1.58 9.035 5.56 10.227 4.632 1.387 1.821 3.859 47.705-41.956 44.596-44.526 43.438-43.241 42.67-47.33-.384-2.044-2.743-5-4.87-6.098-1.598-.826-4.128-.9-5.988-.174zm-66.25 8.178c5.169 2.16 6.429 8.933 2.409 12.952-3.264 3.262-7.924 3.262-11.188 0-6.222-6.22.644-16.35 8.779-12.952zm55.237 48.39c-12.757 3.43-20.65 16.633-17.399 29.108 3.366 12.918 16.555 20.886 29.146 17.608 12.886-3.355 20.894-16.551 17.635-29.057-3.396-13.035-16.742-21.057-29.382-17.659zm9.166 15.985c5.17 2.159 6.43 8.933 2.41 12.952-5.653 5.651-14.917.59-13.429-7.337.889-4.735 6.401-7.544 11.019-5.615z" fill="url(#a)"/><defs><linearGradient id="a" x1="64.069" y1="27.51" x2="220.079" y2="143.703" gradientUnits="userSpaceOnUse"><stop stop-color="#6346BF"/><stop offset="1" stop-color="#6346BF" stop-opacity="0"/></linearGradient></defs></svg>