<svg width="55" height="55" fill="none" xmlns="http://www.w3.org/2000/svg"><path fill-rule="evenodd" clip-rule="evenodd" d="M26.37.108c-1.625.435-2.747 1.34-5.515 4.445-.428.479-1.067 1.089-1.422 1.355-.92.692-1.392.755-5.01.666-3.197-.08-3.9-.005-5.079.534-.806.369-1.8 1.343-2.199 2.153-.593 1.208-.674 1.911-.593 5.18.09 3.657.033 4.07-.701 5.04-.287.379-.899 1.021-1.359 1.427C.882 24.095 0 25.39 0 27.512c0 2.137.778 3.276 4.537 6.646.478.429 1.087 1.068 1.352 1.42.69.917.752 1.392.663 5.005-.06 2.455-.045 3.04.1 3.72.467 2.191 1.858 3.581 4.05 4.048.68.145 1.266.16 3.721.1 3.659-.09 4.072-.033 5.042.7.38.288 1.022.899 1.428 1.359C24.081 54.12 25.377 55 27.5 55c2.136 0 3.342-.82 6.61-4.497.407-.458 1.05-1.067 1.428-1.353.967-.732 1.383-.79 5.039-.7 3.197.08 3.9.006 5.079-.533.82-.376 1.77-1.314 2.187-2.16.595-1.21.68-1.968.606-5.383-.078-3.556-.026-3.91.705-4.857.26-.336.88-.979 1.381-1.428C54.252 30.749 55 29.647 55 27.512c0-2.13-.827-3.343-4.53-6.642-.48-.427-1.09-1.067-1.356-1.42-.693-.921-.755-1.393-.666-5.009.06-2.454.045-3.039-.1-3.72-.468-2.197-1.838-3.56-4.062-4.043-.672-.146-1.275-.162-3.865-.106-3.64.078-3.937.034-4.932-.731-.36-.277-.984-.875-1.387-1.328-2.406-2.708-3.677-3.8-4.933-4.242-.803-.282-2.079-.357-2.8-.163zm1.838 3.5c.584.264 1.654 1.278 2.896 2.743 1.36 1.603 2.522 2.577 3.73 3.125 1.122.51 2.113.61 5.705.576 3.129-.028 3.29-.02 3.647.19.725.425.813.73.806 2.794-.003 1.006-.02 2.484-.038 3.283-.043 1.979.232 3.357.882 4.417.706 1.151 1.534 2.079 2.835 3.177 2.03 1.715 2.944 2.832 2.944 3.6 0 .766-.907 1.876-2.944 3.602-1.208 1.023-1.76 1.604-2.458 2.586-.966 1.36-1.285 2.63-1.245 4.951.074 4.227.043 5.144-.19 5.54a1.98 1.98 0 0 1-.592.591c-.395.232-1.314.263-5.541.186-2.314-.041-3.589.28-4.954 1.248-.982.698-1.563 1.249-2.587 2.456-1.726 2.036-2.837 2.944-3.604 2.944-.768 0-1.885-.913-3.6-2.944-1.556-1.84-3.192-3.077-4.598-3.476-.601-.17-1.142-.195-4.4-.195-3.543 0-3.733-.01-4.088-.219a1.98 1.98 0 0 1-.593-.592c-.209-.356-.217-.518-.188-3.645.045-4.943-.133-5.597-2.178-8.005-.24-.283-.935-.932-1.544-1.443-1.972-1.655-2.926-2.825-2.926-3.586 0-.766.907-1.877 2.944-3.602 1.604-1.36 2.579-2.52 3.127-3.728.51-1.122.61-2.113.577-5.703-.03-3.127-.021-3.29.188-3.646a1.98 1.98 0 0 1 .593-.592c.356-.21.518-.217 3.677-.188 2.937.027 3.418.007 4.338-.18 1.826-.374 3.297-1.418 5.25-3.725 1.574-1.86 2.672-2.74 3.421-2.74.148 0 .467.09.709.2zm-8.88 12.02c-2.73.734-4.419 3.56-3.723 6.23.72 2.764 3.543 4.469 6.237 3.767 2.758-.718 4.472-3.542 3.774-6.218-.726-2.79-3.582-4.506-6.288-3.78zm16.14 1.67c-.148.058-4.279 4.111-9.18 9.008-6.317 6.31-8.944 9.004-9.027 9.254-.27.816.338 1.934 1.19 2.189.991.296.39.825 10.21-8.98 9.543-9.528 9.295-9.253 9.13-10.128-.081-.438-.586-1.07-1.041-1.305-.342-.177-.884-.193-1.282-.038zm-14.178 1.75c1.106.463 1.376 1.913.516 2.773-.699.698-1.696.698-2.395 0-1.331-1.332.138-3.5 1.88-2.772zm11.821 10.357c-2.73.733-4.419 3.56-3.723 6.229.72 2.764 3.543 4.47 6.237 3.768 2.758-.718 4.472-3.542 3.774-6.218-.727-2.79-3.583-4.507-6.288-3.78zm1.962 3.42c1.106.462 1.376 1.912.516 2.772-1.21 1.21-3.193.126-2.874-1.57.19-1.013 1.37-1.614 2.358-1.202z" fill="#fff"/></svg>