<svg width="107" height="107" fill="none" xmlns="http://www.w3.org/2000/svg"><path opacity=".1" fill-rule="evenodd" clip-rule="evenodd" d="M51.3.21c-3.16.847-5.342 2.606-10.728 8.647-.831.932-2.076 2.12-2.766 2.637-1.791 1.347-2.708 1.468-9.747 1.295-6.22-.154-7.588-.01-9.88 1.039-1.568.717-3.503 2.613-4.278 4.188-1.155 2.35-1.312 3.719-1.154 10.078.175 7.115.064 7.919-1.364 9.804-.559.738-1.749 1.988-2.644 2.778C1.714 46.876 0 49.396 0 53.524c0 4.156 1.514 6.374 8.826 12.928.93.835 2.114 2.078 2.63 2.765 1.342 1.783 1.464 2.706 1.29 9.736-.117 4.775-.087 5.912.195 7.236.909 4.263 3.614 6.967 7.88 7.875 1.324.282 2.461.313 7.238.195 7.118-.176 7.922-.064 9.808 1.363.739.559 1.99 1.748 2.78 2.643C46.849 105.287 49.37 107 53.5 107c4.155 0 6.502-1.596 12.859-8.748.793-.892 2.043-2.077 2.779-2.634 1.88-1.422 2.69-1.535 9.803-1.359 6.22.153 7.588.01 9.88-1.04 1.595-.73 3.444-2.556 4.255-4.202 1.159-2.352 1.325-3.827 1.18-10.471-.152-6.918-.052-7.607 1.371-9.45.504-.653 1.713-1.903 2.688-2.778 7.228-6.495 8.685-8.642 8.685-12.794 0-4.146-1.608-6.504-8.813-12.922-.933-.831-2.12-2.075-2.639-2.765-1.347-1.79-1.469-2.707-1.295-9.743.118-4.774.088-5.912-.195-7.235-.91-4.276-3.576-6.93-7.902-7.867-1.306-.284-2.48-.316-7.518-.207-7.083.152-7.66.067-9.595-1.422-.7-.538-1.915-1.701-2.7-2.584-4.68-5.267-7.153-7.394-9.596-8.252C55.185-.022 52.703-.167 51.3.21zm3.578 6.808c1.135.515 3.217 2.488 5.634 5.338 2.644 3.119 4.905 5.013 7.254 6.08 2.184.99 4.113 1.186 11.101 1.12 6.087-.055 6.402-.039 7.096.368 1.409.828 1.58 1.42 1.567 5.437-.007 1.958-.04 4.831-.074 6.386-.084 3.85.452 6.531 1.716 8.593 1.373 2.24 2.983 4.045 5.514 6.182 3.952 3.336 5.729 5.509 5.729 7.002 0 1.49-1.766 3.651-5.729 7.008-2.35 1.991-3.423 3.12-4.78 5.032-1.88 2.647-2.5 5.115-2.422 9.632.143 8.224.082 10.008-.37 10.776-.234.399-.752.917-1.151 1.152-.77.451-2.557.511-10.781.362-4.502-.082-6.981.543-9.637 2.427-1.912 1.357-3.041 2.43-5.033 4.779-3.359 3.96-5.52 5.726-7.012 5.726-1.494 0-3.668-1.777-7.005-5.726-3.026-3.581-6.208-5.987-8.943-6.764-1.17-.332-2.222-.378-8.562-.378-6.891 0-7.26-.02-7.953-.426-.399-.235-.917-.753-1.152-1.152-.407-.693-.423-1.009-.367-7.092.089-9.616-.258-10.89-4.237-15.573-.467-.55-1.819-1.814-3.003-2.808-3.837-3.22-5.693-5.494-5.693-6.975 0-1.491 1.766-3.651 5.729-7.009 3.12-2.643 5.015-4.903 6.082-7.251.992-2.183 1.186-4.11 1.122-11.096-.056-6.084-.04-6.399.367-7.092.235-.4.753-.917 1.152-1.152.694-.407 1.009-.424 7.154-.367 5.714.053 6.65.014 8.44-.351 3.552-.725 6.415-2.757 10.213-7.246 3.062-3.619 5.2-5.33 6.656-5.33.288 0 .908.174 1.378.388zM37.603 30.403c-5.312 1.428-8.598 6.925-7.244 12.119 1.401 5.378 6.892 8.696 12.134 7.331 5.365-1.397 8.7-6.89 7.343-12.098-1.414-5.427-6.97-8.767-12.233-7.352zm31.399 3.25c-.288.113-8.325 7.998-17.86 17.523-12.289 12.278-17.4 17.519-17.561 18.004-.525 1.587.658 3.762 2.314 4.258 1.929.578.758 1.607 19.862-17.468 18.567-18.538 18.085-18.003 17.765-19.705-.16-.851-1.142-2.082-2.027-2.54-.666-.343-1.719-.374-2.493-.072zm-27.583 3.405c2.152.9 2.677 3.72 1.003 5.393-1.359 1.358-3.3 1.358-4.658 0-2.59-2.59.268-6.807 3.655-5.393zm22.998 20.147c-5.312 1.428-8.598 6.925-7.245 12.119 1.402 5.378 6.893 8.696 12.135 7.331 5.365-1.397 8.7-6.89 7.343-12.098-1.415-5.427-6.971-8.767-12.233-7.352zm3.816 6.655c2.152.9 2.677 3.72 1.003 5.393-2.354 2.352-6.21.245-5.591-3.055.37-1.971 2.665-3.14 4.588-2.338z" fill="url(#a)"/><defs><linearGradient id="a" x1="26.675" y1="11.454" x2="91.628" y2="59.83" gradientUnits="userSpaceOnUse"><stop stop-color="#fff"/><stop offset="1" stop-color="#fff" stop-opacity="0"/></linearGradient></defs></svg>