<svg width="19" height="19" fill="none" xmlns="http://www.w3.org/2000/svg"><g clip-path="url(#a)" fill="#6346BF"><path d="M7.867 11.132C6.054 9.32 5.644 7.505 5.552 6.78a.651.651 0 0 1 .187-.545l1.468-1.467a.655.655 0 0 0 .092-.811L4.962.328a.655.655 0 0 0-.849-.24L.363 1.856a.652.652 0 0 0-.361.651c.196 1.868 1.01 6.458 5.521 10.969 4.511 4.511 9.1 5.325 10.969 5.521.27.028.53-.116.65-.36l1.768-3.751a.655.655 0 0 0-.238-.848l-3.628-2.336a.655.655 0 0 0-.811.092l-1.467 1.468a.651.651 0 0 1-.545.187c-.727-.093-2.54-.502-4.354-2.316z"/><path d="M15.068 10.155a.655.655 0 0 1-.655-.655A4.92 4.92 0 0 0 9.5 4.586a.655.655 0 0 1 0-1.31A6.23 6.23 0 0 1 15.723 9.5a.655.655 0 0 1-.655.655z"/><path d="M18.344 10.155a.655.655 0 0 1-.655-.655A8.199 8.199 0 0 0 9.5 1.31.655.655 0 0 1 9.5 0 9.51 9.51 0 0 1 19 9.5a.655.655 0 0 1-.655.655z"/></g><defs><clipPath id="a"><path fill="#fff" d="M0 0h19v19H0z"/></clipPath></defs></svg>