<svg width="42" height="42" fill="none" xmlns="http://www.w3.org/2000/svg"><path fill="#fff" d="M0 0h42v42H0z"/><path d="M21.096 0h-.066C12.42 0 5.414 7.006 5.414 15.618c0 4.72 2.413 8.403 5.102 12.07L21.009 42s9.918-13.465 10.539-14.311c2.689-3.667 5.102-7.35 5.102-12.071C36.65 7.028 29.679.034 21.096 0zm8.468 26.234c-.621.847-7.137 9.771-8.523 11.648L12.5 26.234C9.968 22.782 7.874 19.6 7.874 15.618c0-7.235 5.868-13.124 13.094-13.157h.063c7.255 0 13.157 5.902 13.157 13.157 0 3.983-2.095 7.164-4.625 10.616z" fill="#2DBDE9"/><path d="M21.032 6.602c-4.971 0-9.015 4.044-9.015 9.016 0 4.971 4.044 9.016 9.015 9.016 4.972 0 9.016-4.045 9.016-9.016 0-4.972-4.044-9.016-9.016-9.016zm0 15.571a6.563 6.563 0 0 1-6.555-6.555 6.563 6.563 0 0 1 6.555-6.556 6.563 6.563 0 0 1 6.556 6.556 6.563 6.563 0 0 1-6.556 6.555z" fill="#2DBDE9"/></svg>