<svg width="61" height="61" fill="none" xmlns="http://www.w3.org/2000/svg"><g clip-path="url(#a)"><path d="M54.37 17.944a3.084 3.084 0 0 0-1.542-2.165 2.823 2.823 0 0 0-2.503-.225c0-.065.019-.127.019-.193a3.018 3.018 0 0 0-4.079-2.852c0-.065.02-.127.02-.193a3.045 3.045 0 0 0-3.045-3.044 3.045 3.045 0 0 0-3.045-3.045c-.066 0-.127.016-.192.02a2.794 2.794 0 0 0-.05-2.156 3.137 3.137 0 0 0-2.536-1.912 3.023 3.023 0 0 0-2.489.97 3.039 3.039 0 0 0-5.896 1.049 3.04 3.04 0 0 0-5.612-1.624 2.955 2.955 0 0 0-2.198-.32 3.084 3.084 0 0 0-2.288 2.402 3.02 3.02 0 0 0 .761 2.604 3.03 3.03 0 0 0-2.36 1.399 2.96 2.96 0 0 0-2.478-.238 3.06 3.06 0 0 0-1.88 1.856c-.255.7-.24 1.469.04 2.158a3.036 3.036 0 0 0-2.252 2.927c0 .066.015.128.019.193a2.823 2.823 0 0 0-2.498.222 3.086 3.086 0 0 0-1.546 2.168A3.032 3.032 0 0 0 8.173 21l.562.452h3.552v3.973h35.52V21.45h4.567l-.142-.142a3.032 3.032 0 0 0 2.138-3.364z" fill="#FDB62F"/><path d="M15.331 59.93 6.52 25.128a4.727 4.727 0 0 1 4.607-5.79h.045a4.727 4.727 0 0 1 4.69 4.126l5.56 36.468h-6.09z" fill="#DE0418"/><path d="m21.42 59.93-5.405-35.265a4.727 4.727 0 0 1 4.69-5.329h.168a4.727 4.727 0 0 1 4.726 4.607l1.91 35.988h-6.088z" fill="#FCE9CC"/><path d="M25.605 24.185 27.51 59.93h6.089l1.775-35.62a4.727 4.727 0 0 0-4.718-4.974h-.322a4.727 4.727 0 0 0-4.729 4.85z" fill="#DE0418"/><path d="m35.398 23.822-1.8 36.109h6.09l5.25-35.148a4.727 4.727 0 0 0-4.672-5.447h-.147a4.727 4.727 0 0 0-4.72 4.486z" fill="#FCE9CC"/><path d="M49.837 19.336a4.727 4.727 0 0 1 4.579 5.902L45.777 59.93h-6.089l5.472-36.586a4.727 4.727 0 0 1 4.677-4.009z" fill="#DE0418"/><path d="M17.361 34.56h26.386v12.177H17.361V34.56zM10.257 4.113a3.034 3.034 0 0 0-5.71-1.442 3.005 3.005 0 0 0-.379-.037 3.045 3.045 0 1 0 0 6.089 3.02 3.02 0 0 0 .422-.043 3.032 3.032 0 1 0 5.245-3.044c.274-.461.42-.987.422-1.523zM59.985 6.143a3.034 3.034 0 0 0-5.71-1.442 3.006 3.006 0 0 0-.38-.037 3.045 3.045 0 1 0 0 6.089 3.02 3.02 0 0 0 .423-.043 3.032 3.032 0 1 0 5.245-3.045c.273-.46.42-.986.422-1.522z" fill="#FDB62F"/><path d="M55.374 17.796a4.097 4.097 0 0 0-2.04-2.897 3.977 3.977 0 0 0-2.103-.55 4.101 4.101 0 0 0-4.06-3.045 4.075 4.075 0 0 0-3.02-2.943 4.076 4.076 0 0 0-2.943-3.02 3.767 3.767 0 0 0-.323-1.655 4.172 4.172 0 0 0-3.386-2.516 4.032 4.032 0 0 0-2.277.478 4.042 4.042 0 0 0-6.19-.13 4.047 4.047 0 0 0-5.919-.178 3.92 3.92 0 0 0-2.13-.07 4.111 4.111 0 0 0-3.045 3.209 4.04 4.04 0 0 0 .203 2.17c-.41.196-.783.46-1.104.78a3.93 3.93 0 0 0-2.505.038 4.07 4.07 0 0 0-2.714 4.373 4.076 4.076 0 0 0-1.936 2.511 3.788 3.788 0 0 0-2.099.547 4.106 4.106 0 0 0-2.045 2.9c-.158 1.04.097 2.1.71 2.955a5.715 5.715 0 0 0-.913 4.626l9.007 35.566h32.029L55.4 25.49c.41-1.59.114-3.28-.813-4.636.67-.868.954-1.974.786-3.057zM8.792 16.655a1.81 1.81 0 0 1 1.646-.148 1.015 1.015 0 0 0 1.359-1.015c0-.025-.014-.102-.017-.13a2.03 2.03 0 0 1 1.503-1.948 1.015 1.015 0 0 0 .676-1.358c-.19-.459-.2-.971-.03-1.437.211-.578.67-1.03 1.25-1.233a1.949 1.949 0 0 1 1.65.16c.47.266 1.067.117 1.357-.339.344-.545.93-.892 1.573-.93a1.015 1.015 0 0 0 .678-1.7 2.004 2.004 0 0 1-.507-1.74 2.055 2.055 0 0 1 1.533-1.596 1.929 1.929 0 0 1 1.458.216c.47.266 1.067.117 1.357-.34a2.03 2.03 0 0 1 3.74 1.08 1.015 1.015 0 0 0 2.029 0 2.024 2.024 0 0 1 3.925-.692 1.015 1.015 0 0 0 1.697.34 2.03 2.03 0 0 1 1.659-.65c.76.098 1.407.597 1.695 1.307.202.444.211.952.026 1.403a1.015 1.015 0 0 0 .954 1.362c.044 0 .147-.015.191-.02a2.03 2.03 0 0 1 2.03 2.03c0 .56.455 1.015 1.015 1.015a2.03 2.03 0 0 1 2.03 2.001c0 .026-.015.133-.017.159a1.015 1.015 0 0 0 1.36 1.014c.219-.083.452-.128.686-.13a2.03 2.03 0 0 1 2.03 2c0 .026-.015.134-.017.16a1.015 1.015 0 0 0 1.359 1.014 1.82 1.82 0 0 1 1.65.15c.546.295.93.822 1.043 1.433.067.438-.012.886-.226 1.275l-.024-.015a5.662 5.662 0 0 0-.658-.393c-.055-.029-.11-.054-.166-.08a5.63 5.63 0 0 0-.668-.27c-.02-.006-.039-.016-.06-.022a5.698 5.698 0 0 0-.939-.205 5.833 5.833 0 0 0-.785-.062 5.729 5.729 0 0 0-4.77 2.565l-.013.021-.012-.02a5.732 5.732 0 0 0-4.775-2.566h-.148a5.727 5.727 0 0 0-4.732 2.518 5.728 5.728 0 0 0-4.731-2.518h-.322a5.727 5.727 0 0 0-4.732 2.504 5.728 5.728 0 0 0-4.73-2.504h-.169a5.733 5.733 0 0 0-4.77 2.562 5.706 5.706 0 0 0-5.825-2.46c-.101.017-.195.043-.292.066a5.638 5.638 0 0 0-.71.214c-.095.035-.19.069-.283.11a5.639 5.639 0 0 0-.824.44c-.02.013-.043.023-.064.037l-.009.005a2.008 2.008 0 0 1-.184-1.2c.114-.615.5-1.144 1.05-1.44zm35.143 7.979-1.33 8.91h-6.672l.482-9.67a3.653 3.653 0 0 1 .628-1.86 3.703 3.703 0 0 1 3.077-1.663h.148c1.243 0 2.403.625 3.09 1.662.514.77.72 1.705.577 2.62zm-17.311-.52a3.71 3.71 0 0 1 3.656-3.762h.376a3.704 3.704 0 0 1 3.083 1.662c.446.659.665 1.445.625 2.24l-.467 9.29h-6.773l-.498-9.375-.002-.056zm-9.009-2.102a3.709 3.709 0 0 1 3.09-1.66h.168a3.736 3.736 0 0 1 3.712 3.646l.006.111v.04l.496 9.395h-6.662l-1.42-9.347a3.66 3.66 0 0 1 .615-2.183l-.005-.002zm-1.494 36.904L7.508 24.899a3.726 3.726 0 0 1 6.737-2.886c.325.48.534 1.028.609 1.602l.118.778c.007.133.016.266.036.425l1.338 8.726v14.208h2.181l.217 1.421 1.494 9.743h-4.117zm6.172 0-1.04-6.822-.662-4.342h5.253l.595 11.164h-4.146zm10.34 0h-4.161l-.593-11.164h5.314l-.56 11.164zm6.18 0h-4.147l.557-11.164h5.26l-1.67 11.164zm-3.489-13.194H18.376V35.575h24.357v10.148h-7.409zM53.43 24.993l-8.445 33.923h-4.118l1.67-11.164h2.226V33.544l1.402-10.047a3.712 3.712 0 1 1 7.264 1.495l.001.001zM11.272 7.158c0-.522-.104-1.04-.304-1.522a4.048 4.048 0 0 0-6.943-4.014 4.06 4.06 0 1 0 .07 8.119 4.048 4.048 0 0 0 7.177-2.583zM5.467 8.173l-.415-.58-.676.096a1.448 1.448 0 0 1-.208.02 2.03 2.03 0 1 1 0-4.06c.085.004.169.014.252.03l.688.086.33-.609a2.02 2.02 0 0 1 3.804.957 1.99 1.99 0 0 1-.284 1.015l-.297.508.297.507c.184.307.283.657.284 1.015a2.03 2.03 0 0 1-2.03 2.03 2.008 2.008 0 0 1-1.745-1.015zM61 6.143a4.048 4.048 0 0 0-7.247-2.491 4.06 4.06 0 0 0 .069 8.118 4.048 4.048 0 0 0 6.873-4.105c.2-.482.304-1 .305-1.522zm-2.314 2.03c.184.306.282.657.284 1.015a2.03 2.03 0 0 1-2.03 2.03 2.007 2.007 0 0 1-1.745-1.015l-.415-.58-.676.095c-.069.013-.139.02-.21.023a2.03 2.03 0 1 1 0-4.06c.085.005.17.015.253.03l.688.087.33-.609a2.02 2.02 0 0 1 3.805.954 1.99 1.99 0 0 1-.284 1.015l-.297.507.297.508z" fill="#000"/></g><defs><clipPath id="a"><path fill="#fff" d="M0 0h61v61H0z"/></clipPath></defs></svg>