<svg width="78" height="78" fill="none" xmlns="http://www.w3.org/2000/svg"><g clip-path="url(#a)"><path d="M74.358 34.933c0 3.651-.753 7.125-2.111 10.277a25.986 25.986 0 0 1-5.5 8.097 25.902 25.902 0 0 1-18.375 7.611H43.27c-14.35 0-25.985-11.632-25.985-25.985h57.072z" fill="#F29500"/><path d="M74.358 34.933c0 3.651-.753 7.125-2.111 10.277a25.875 25.875 0 0 1-16.154 5.63h-5.1c-10.778 0-20.023-6.562-23.96-15.907h47.325z" fill="#FFA90B"/><path d="M76.853 31.7v2.98a2.523 2.523 0 0 1-2.522 2.525H17.313a2.524 2.524 0 0 1-2.524-2.524V31.7a2.523 2.523 0 0 1 2.524-2.524h57.018a2.522 2.522 0 0 1 2.522 2.524z" fill="#FFB52D"/><path d="M76.853 31.7v.996h-49.84a2.522 2.522 0 0 1-2.522-2.522v-.997h49.84a2.522 2.522 0 0 1 2.522 2.524z" fill="#FFCD71"/><path d="M75.288 59.364 49.012 72.686a10.664 10.664 0 0 1-11.496-.03c-1.63-1.052-2.142-1.153-10.718-5.393-3.81-1.865-7.283-2.458-12.941-3.155v-16.46h18.765a4.39 4.39 0 0 1 3.106 1.288l8.441 8.44a3.835 3.835 0 0 1 1.125 2.819l.18-.124 27.543-6.934c3.65-.461 5.284 4.314 2.271 6.227z" fill="#F2BB88"/><path d="M44.274 62.65a3.718 3.718 0 0 1-5.309.047l-7.018-7.019a1.997 1.997 0 0 0-1.412-.585H13.857v-7.445h18.766c1.166 0 2.282.463 3.106 1.287.257.258-1.712-1.71 8.44 8.44 1.433 1.432 1.535 3.796.105 5.276z" fill="#F2D1A5"/><path d="M14.796 47.192V67.54c0 .29-.028.574-.078.85h-.002c-.4 2.152-2.3 3.796-4.566 3.796H5.793a4.659 4.659 0 0 1-4.646-4.646V47.192c0-2.277 1.66-4.184 3.83-4.573.265-.048.538-.073.816-.073h4.357a4.66 4.66 0 0 1 4.646 4.646z" fill="#F44545"/><path d="M14.796 47.192V67.54c0 .29-.028.574-.078.85h-.002a4.532 4.532 0 0 1-.818.072H9.542a4.66 4.66 0 0 1-4.646-4.645V43.468c0-.289.028-.573.08-.849.266-.048.539-.073.817-.073h4.357a4.66 4.66 0 0 1 4.646 4.646z" fill="#FB5858"/><path d="M10.719 64.868a2.747 2.747 0 1 1-5.495 0 2.747 2.747 0 0 1 5.495 0z" fill="#C42D2D"/><path d="M5.7 62.942a1.147 1.147 0 0 0-1.441.746c-.799 2.514 1.09 5.074 3.712 5.074a3.9 3.9 0 0 0 3.895-3.894 3.892 3.892 0 0 0-2.357-3.58 1.147 1.147 0 1 0-.906 2.108c1.598.687 1.093 3.072-.632 3.072a1.603 1.603 0 0 1-1.526-2.086 1.147 1.147 0 0 0-.746-1.44zM57.794 10.642c.509 0 .922.414.922.922v2.364a1.147 1.147 0 1 0 2.294 0v-2.364a3.22 3.22 0 0 0-3.216-3.215.923.923 0 0 1-.921-.922V3.584a1.147 1.147 0 0 0-2.295 0v3.843a3.22 3.22 0 0 0 3.216 3.215zM33.849 10.642c.508 0 .922.414.922.922v2.364a1.147 1.147 0 1 0 2.293 0v-2.364a3.22 3.22 0 0 0-3.215-3.215.923.923 0 0 1-.922-.922V3.584a1.147 1.147 0 0 0-2.294 0v3.843a3.22 3.22 0 0 0 3.216 3.215zM50.894 17.472c.828 0 1.502.674 1.502 1.502V22a1.147 1.147 0 1 0 2.294 0v-3.027a3.8 3.8 0 0 0-3.796-3.796 1.504 1.504 0 0 1-1.502-1.502v-4.92a1.147 1.147 0 0 0-2.294 0v4.92a3.8 3.8 0 0 0 3.796 3.796z" fill="#000"/><path d="M78 34.68V31.7a3.673 3.673 0 0 0-3.669-3.67H25.848a1.147 1.147 0 1 0 0 2.294H74.33c.759 0 1.375.617 1.375 1.377-.07 3.246.233 3.002-.207 3.702-.24.393-.674.654-1.168.654H17.313c-.494 0-.928-.261-1.17-.654-.353-.563-.148-.942-.206-3.702 0-.76.617-1.377 1.376-1.377h3.947a1.147 1.147 0 0 0 0-2.294h-3.947a3.674 3.674 0 0 0-3.67 3.67v2.98a3.674 3.674 0 0 0 2.694 3.538 26.894 26.894 0 0 0 2.42 8.34h-2.85a5.801 5.801 0 0 0-5.757-5.16H5.793A5.8 5.8 0 0 0 0 47.193v.8a1.147 1.147 0 0 0 2.294 0v-.8c0-1.93 1.57-3.5 3.499-3.5h4.357c1.71 0 3.14 1.238 3.44 2.865.09.486.059-.78.059 20.983 0 1.93-1.571 3.501-3.5 3.501H5.794a3.504 3.504 0 0 1-3.499-3.5V52.731a1.147 1.147 0 0 0-2.294 0V67.54a5.8 5.8 0 0 0 5.793 5.794h4.357c3.193 0 5.793-2.599 5.793-5.794v-2.03c2.802.596 6.053.645 10.45 2.798 8.812 4.352 9.045 4.327 10.578 5.314a11.78 11.78 0 0 0 12.66.066l10.907-5.529a1.146 1.146 0 0 0-1.039-2.045c-11.722 5.945-10.959 5.55-11.05 5.607a9.488 9.488 0 0 1-10.234-.025c-1.703-1.1-2.241-1.21-10.814-5.45-4.81-2.353-8.415-2.417-11.458-3.064v-14.33h16.766c.864 0 1.678.335 2.29.947l8.421 8.422c1.635 1.635.576 4.442-1.754 4.442-1.202 0-1.845-.794-1.885-.821a27461.46 27461.46 0 0 1-7.495-7.497l-.015-.015a.077.077 0 0 1 .007.007l-.015-.016a1.148 1.148 0 0 0-1.623 1.623l7.589 7.59c2.757 2.748 7.51 1.3 8.19-2.522.36.015 26.645-6.713 27.054-6.713 2.202 0 3.071 2.88 1.24 4.101l-10.986 5.57a1.148 1.148 0 0 0 1.037 2.045c11.724-5.945 11.055-5.599 11.136-5.652a4.513 4.513 0 0 0 2.1-3.826c0-3.098-3.03-5.026-5.26-4.468l-4.228 1.064a27.087 27.087 0 0 0 6.795-14.915A3.676 3.676 0 0 0 78 34.681zM63.981 54.275l-17.68 4.45a4.971 4.971 0 0 0-1.258-2.124l-8.423-8.423a5.493 5.493 0 0 0-3.91-1.62H21.323a24.665 24.665 0 0 1-2.657-8.206h54.31a24.83 24.83 0 0 1-8.996 15.923z" fill="#000"/></g><defs><clipPath id="a"><path fill="#fff" d="M0 0h78v78H0z"/></clipPath></defs></svg>