<svg width="43" height="37" fill="none" xmlns="http://www.w3.org/2000/svg"><path fill-rule="evenodd" clip-rule="evenodd" d="M18.135 3.857 8.927 7.718h-2.42c-1.862 0-2.549.034-2.983.148A4.7 4.7 0 0 0 .157 11.26c-.21.806-.21 7.55 0 8.356a4.7 4.7 0 0 0 3.367 3.392c.434.114 1.129.148 3.018.15 1.349 0 2.505.035 2.57.075.088.057.123 1.448.144 5.812l.027 5.737.26.493c.382.73.672 1.03 1.344 1.396l.606.33H16.2l.605-.33c.672-.366.962-.666 1.345-1.396l.259-.493.03-3.797c.026-3.515.04-3.793.191-3.751.09.025 2.105.859 4.478 1.854 3.915 1.64 4.355 1.803 4.742 1.76.46-.053.806-.264 1.12-.686.197-.266.198-.272.198-14.724s0-14.458-.199-14.724c-.325-.439-.672-.641-1.163-.68-.43-.035-1.137.245-9.671 3.824zm18.114-2.178c-2.417 1.212-3.421 1.763-3.603 1.981-.83.99-.09 2.515 1.22 2.515.484 0 6.938-3.241 7.289-3.66.83-.99.089-2.515-1.221-2.515-.24 0-1.273.47-3.685 1.68zm-10.13 19.532-.025 5.773-8.262-3.456-8.26-3.457-2.621-.002c-2.936-.001-3.077-.027-3.539-.635l-.277-.364-.027-3.507c-.03-3.92-.028-3.942.634-4.45l.339-.259 2.841-.05 2.842-.051 8.165-3.432 8.165-3.432.024 5.774c.014 3.175.014 8.372 0 11.548zm8.615-7.184c-.636.282-1.002 1.02-.866 1.75.085.45.564.983 1 1.112.23.067 1.536.093 3.778.073 3.288-.029 3.438-.038 3.693-.229.504-.378.661-.686.661-1.296s-.157-.919-.661-1.297c-.255-.191-.398-.2-3.789-.22-2.782-.018-3.584.004-3.816.107zM13.86 25.22l1.476.617.025 4.062.025 4.062H12.31v-4.68c0-2.573.017-4.679.038-4.679.02 0 .7.278 1.512.617zm19.338-.385c-.623.272-1.007 1.03-.87 1.716.141.71.366.86 3.915 2.64 3.555 1.781 3.715 1.837 4.367 1.526.915-.436 1.183-1.597.546-2.358-.182-.218-1.186-.77-3.603-1.98-3.525-1.767-3.702-1.83-4.355-1.544z" fill="#6346BF"/></svg>