<svg width="76" height="76" fill="none" xmlns="http://www.w3.org/2000/svg"><path fill-rule="evenodd" clip-rule="evenodd" d="M51.477 58.923a4.013 4.013 0 0 0-3.514-2.087H39.89c-1.186 0-1.355-.198-2.1-.896-5.953-5.605-10.813-5.331-16.762-2.984-1.28.505-1.448.501-2.622.551h-3.088v15.085h4.624c.627 0 .572.03 1.494.278L36.8 72.98c5.402 1.46 7.57 2.807 12.702-.614l18.938-13.49c1.73-1.232 2.373-3.513 1.254-5.322-1.115-1.81-3.429-2.226-5.322-1.254l-12.896 6.623z" fill="#FFDCD5"/><path fill-rule="evenodd" clip-rule="evenodd" d="M15.317 68.592V53.259a2.466 2.466 0 0 0-2.457-2.457H6.923a2.465 2.465 0 0 0-2.453 2.445v15.606a2.464 2.464 0 0 0 2.453 2.44h5.937a2.465 2.465 0 0 0 2.457-2.453v-.248z" fill="#F74F43"/><path fill-rule="evenodd" clip-rule="evenodd" d="M67.764 20.423a20.087 20.087 0 0 0-2.613-6.303l1.363-1.363a1.849 1.849 0 0 0 0-2.605l-3.652-3.648a1.841 1.841 0 0 0-2.604 0l-1.364 1.363a20.01 20.01 0 0 0-6.302-2.617V3.327a1.848 1.848 0 0 0-1.843-1.843H45.59a1.848 1.848 0 0 0-1.843 1.843V5.25a20.07 20.07 0 0 0-6.307 2.617l-1.363-1.363a1.841 1.841 0 0 0-2.604 0l-3.648 3.648a1.849 1.849 0 0 0 0 2.605l1.363 1.363a19.987 19.987 0 0 0-2.613 6.303h-1.927a1.848 1.848 0 0 0-1.843 1.843v5.163a1.85 1.85 0 0 0 1.843 1.843h1.927a19.988 19.988 0 0 0 2.613 6.303l-1.363 1.363a1.849 1.849 0 0 0 0 2.605l3.648 3.648c.715.72 1.889.72 2.604 0l1.363-1.364a19.964 19.964 0 0 0 6.307 2.613v-9.358c-4.447-1.65-7.636-5.94-7.636-10.944 0-3.993 2.032-7.531 5.116-9.64 3.236-2.208 2.609 1.284 2.609 1.873v7.006a4.658 4.658 0 0 0 4.334 4.632 4.655 4.655 0 0 0 4.33-4.632V16.37c0-.59-.624-4.082 2.608-1.872 3.084 2.108 5.116 5.646 5.116 9.64 0 5.002-3.19 9.294-7.632 10.943v9.358a19.909 19.909 0 0 0 6.303-2.613l1.363 1.364c.715.719 1.889.719 2.604 0l3.652-3.649a1.849 1.849 0 0 0 0-2.604l-1.363-1.363a20.08 20.08 0 0 0 2.613-6.303h1.923a1.85 1.85 0 0 0 1.843-1.843v-5.163a1.848 1.848 0 0 0-1.843-1.843h-1.923z" fill="#FDB62F"/><path fill-rule="evenodd" clip-rule="evenodd" d="M52.592 44.44v-9.358c4.443-1.65 7.632-5.94 7.632-10.944 0-3.993-2.032-7.531-5.116-9.64-3.232-2.208-2.609 1.284-2.609 1.873v7.006a4.655 4.655 0 0 1-4.33 4.632 4.659 4.659 0 0 1-4.333-4.632V16.37c0-.59.627-4.082-2.609-1.872-3.084 2.108-5.116 5.646-5.116 9.64 0 5.002 3.189 9.294 7.636 10.943v11.285c0 1.014.83 1.843 1.843 1.843h5.158a1.848 1.848 0 0 0 1.844-1.843V44.44z" fill="#F3EFF0"/><path d="M69.687 18.939h-.77a21.493 21.493 0 0 0-1.901-4.585l.548-.548a3.302 3.302 0 0 0 .971-2.352c0-.89-.345-1.725-.972-2.352l-3.648-3.645a3.296 3.296 0 0 0-2.355-.977c-.892 0-1.729.347-2.352.974l-.547.547a21.417 21.417 0 0 0-4.585-1.903v-.77A3.33 3.33 0 0 0 50.749 0H45.59a3.331 3.331 0 0 0-3.327 3.327v.77a21.48 21.48 0 0 0-4.589 1.905l-.544-.545a3.296 3.296 0 0 0-2.355-.977c-.892 0-1.729.347-2.352.974l-3.648 3.648a3.302 3.302 0 0 0-.971 2.352c0 .89.345 1.726.971 2.352l.548.548a21.387 21.387 0 0 0-1.902 4.585h-.773a3.331 3.331 0 0 0-3.327 3.327v5.163a3.331 3.331 0 0 0 3.327 3.327h.773a21.395 21.395 0 0 0 1.902 4.585l-.548.547a3.302 3.302 0 0 0-.971 2.352c0 .89.345 1.726.97 2.352l3.646 3.645c.626.63 1.462.977 2.354.977.892 0 1.729-.347 2.352-.974l.548-.547a21.372 21.372 0 0 0 4.589 1.901v.773a3.331 3.331 0 0 0 3.327 3.328h5.158a3.331 3.331 0 0 0 3.328-3.328v-.773a21.308 21.308 0 0 0 4.585-1.9l.544.543c.626.63 1.463.977 2.355.977.892 0 1.728-.347 2.35-.973l3.654-3.649a3.303 3.303 0 0 0 .97-2.352c0-.89-.344-1.726-.97-2.352l-.548-.547a21.498 21.498 0 0 0 1.9-4.585h.77a3.331 3.331 0 0 0 3.328-3.327v-5.163a3.33 3.33 0 0 0-3.327-3.327zm-18.58 27.428a.363.363 0 0 1-.358.359H45.59a.363.363 0 0 1-.358-.359V35.082c0-.62-.387-1.176-.968-1.391-3.99-1.48-6.669-5.319-6.669-9.553 0-3.355 1.67-6.501 4.469-8.414.126-.085.236-.155.334-.213a9.964 9.964 0 0 1-.027.472c-.01.151-.02.27-.02.388v7.006a6.142 6.142 0 0 0 5.72 6.113c.065.005.131.005.197 0 3.204-.212 5.715-2.898 5.715-6.113V16.37c0-.117-.009-.236-.02-.385-.007-.097-.02-.281-.026-.475.097.057.208.127.333.213 2.798 1.913 4.47 5.058 4.47 8.414 0 4.234-2.679 8.073-6.665 9.553a1.484 1.484 0 0 0-.968 1.391v11.285zM70.045 27.43a.368.368 0 0 1-.358.358h-1.923c-.694 0-1.295.48-1.448 1.157a18.566 18.566 0 0 1-2.42 5.837 1.484 1.484 0 0 0 .205 1.843l1.364 1.363a.356.356 0 0 1 .101.253.355.355 0 0 1-.1.252l-3.657 3.652a.346.346 0 0 1-.25.102.348.348 0 0 1-.252-.105l-1.363-1.364a1.484 1.484 0 0 0-1.844-.204 18.414 18.414 0 0 1-4.024 1.91V36.07c4.605-2.144 7.632-6.814 7.632-11.932 0-4.337-2.154-8.399-5.763-10.865-.552-.378-2.233-1.527-3.704-.68-1.443.83-1.3 2.779-1.238 3.61l.012.168v7.006a3.164 3.164 0 0 1-2.846 3.143 3.166 3.166 0 0 1-2.849-3.143v-6.995c.001-.045.007-.106.012-.178.062-.832.207-2.78-1.236-3.611-1.47-.848-3.153.302-3.707.68-3.608 2.467-5.763 6.528-5.763 10.865 0 5.12 3.03 9.79 7.637 11.932v6.414a18.512 18.512 0 0 1-4.03-1.912 1.481 1.481 0 0 0-1.842.206l-1.367 1.366a.345.345 0 0 1-.25.102.347.347 0 0 1-.252-.105l-3.648-3.648a.356.356 0 0 1-.101-.253c0-.056.013-.164.101-.253l1.364-1.363c.49-.49.575-1.256.205-1.843a18.467 18.467 0 0 1-2.42-5.835 1.484 1.484 0 0 0-1.448-1.159h-1.927a.368.368 0 0 1-.358-.358v-5.163c0-.195.164-.359.358-.359h1.927c.695 0 1.296-.482 1.448-1.16a18.463 18.463 0 0 1 2.42-5.834 1.484 1.484 0 0 0-.205-1.843l-1.364-1.363a.356.356 0 0 1-.101-.253c0-.056.013-.164.101-.253l3.651-3.65a.345.345 0 0 1 .25-.103c.068 0 .166.018.253.105l1.363 1.364c.49.49 1.256.575 1.843.205a18.555 18.555 0 0 1 5.84-2.424 1.484 1.484 0 0 0 1.158-1.448V3.327c0-.194.164-.358.358-.358h5.159c.194 0 .358.164.358.358V5.25c0 .694.481 1.295 1.158 1.448A18.48 18.48 0 0 1 58.1 9.121a1.484 1.484 0 0 0 1.844-.204l1.366-1.366a.346.346 0 0 1 .25-.102c.068 0 .166.018.253.105l3.652 3.648a.356.356 0 0 1 .102.252.356.356 0 0 1-.102.253l-1.363 1.363a1.484 1.484 0 0 0-.206 1.843 18.566 18.566 0 0 1 2.42 5.838 1.484 1.484 0 0 0 1.448 1.156h1.923c.194 0 .359.165.359.359v5.163zM56.818 65.359a1.485 1.485 0 0 0 2.1 2.099l.004-.004c.58-.58.577-1.518-.003-2.097a1.487 1.487 0 0 0-2.1.002z" fill="#000"/><path d="M63.695 50.98 51.91 57.03a5.473 5.473 0 0 0-3.947-1.68H39.89c-.452 0-.562-.035-.57-.038-.065-.035-.272-.229-.438-.385l-.074-.07c-6.532-6.148-12.05-5.759-18.325-3.282-1.016.4-1.035.401-2.055.445l-1.825.001c-.52-1.569-2-2.704-3.742-2.704H6.923a3.944 3.944 0 0 0-3.937 3.941V68.84a3.942 3.942 0 0 0 3.937 3.938h5.937a3.948 3.948 0 0 0 3.741-2.702h3.34c.295 0 .295 0 .638.097.125.035.276.078.472.13l15.362 4.11c.678.183 1.299.363 1.9.537 1.968.57 3.622 1.05 5.346 1.05 1.95 0 3.987-.613 6.667-2.399l.039-.026 2.933-2.092a1.484 1.484 0 1 0-1.724-2.417l-2.913 2.078c-3.89 2.587-5.541 2.108-9.523.955-.613-.178-1.247-.362-1.954-.553l-15.363-4.11c-.18-.048-.32-.088-.437-.12-.56-.158-.77-.208-1.443-.208h-3.14V54.992h1.605l.064-.001.084-.004c1.245-.053 1.593-.087 3.018-.65 5.511-2.175 9.765-2.433 15.202 2.685l.074.07c.929.873 1.464 1.228 3.041 1.228h8.075c.947 0 1.773.526 2.204 1.301l.015.026c.192.356.302.763.302 1.195a2.522 2.522 0 0 1-2.521 2.517H34.878a1.484 1.484 0 0 0 0 2.969h13.086c3.027 0 5.49-2.461 5.49-5.486 0-.411-.047-.811-.134-1.197l11.73-6.024c1.111-.57 2.63-.509 3.383.714.667 1.078.3 2.511-.853 3.333l-5.145 3.665a1.484 1.484 0 0 0 1.722 2.418l5.146-3.665c2.444-1.743 3.156-4.886 1.656-7.31-1.475-2.393-4.597-3.166-7.264-1.796zM13.833 68.84a.984.984 0 0 1-.973.969H6.923a.982.982 0 0 1-.968-.969V53.26c0-.537.434-.974.968-.974h5.937c.527 0 .973.446.973.973V68.84z" fill="#000"/></svg>