<svg width="22" height="19" fill="none" xmlns="http://www.w3.org/2000/svg"><path d="M21.781 2.73a9.145 9.145 0 0 1-2.527.693A4.362 4.362 0 0 0 21.184 1a8.766 8.766 0 0 1-2.782 1.061 4.385 4.385 0 0 0-7.588 3c0 .348.03.682.102 1-3.647-.178-6.873-1.926-9.04-4.588a4.416 4.416 0 0 0-.601 2.217c0 1.52.782 2.866 1.948 3.645a4.332 4.332 0 0 1-1.982-.54v.048a4.406 4.406 0 0 0 3.514 4.31 4.379 4.379 0 0 1-1.15.145c-.28 0-.564-.016-.83-.075.568 1.737 2.181 3.014 4.099 3.055a8.814 8.814 0 0 1-5.439 1.871c-.36 0-.705-.016-1.05-.06a12.349 12.349 0 0 0 6.73 1.968c8.07 0 12.484-6.686 12.484-12.481 0-.194-.007-.381-.016-.567A8.75 8.75 0 0 0 21.78 2.73z" fill="#fff"/></svg>