<svg width="13" height="13" fill="none" xmlns="http://www.w3.org/2000/svg"><path d="M6.501 0a3.384 3.384 0 0 0-3.375 3.375A3.384 3.384 0 0 0 6.5 6.751a3.384 3.384 0 0 0 3.375-3.376A3.384 3.384 0 0 0 6.501 0zM12.293 9.448a3.147 3.147 0 0 0-.339-.62 4.196 4.196 0 0 0-2.903-1.827.621.621 0 0 0-.428.103 3.55 3.55 0 0 1-2.122.693 3.55 3.55 0 0 1-2.123-.693.553.553 0 0 0-.427-.103A4.165 4.165 0 0 0 1.047 8.83c-.132.191-.25.413-.339.619-.044.088-.03.191.015.28.118.206.265.413.398.59.206.28.427.53.678.766.206.206.442.398.678.59A6.678 6.678 0 0 0 6.487 13a6.678 6.678 0 0 0 4.008-1.326c.236-.177.472-.384.678-.59a6.812 6.812 0 0 0 1.076-1.356c.074-.088.089-.192.044-.28z" fill="#32C1DB"/></svg>