<svg width="58" height="58" fill="none" xmlns="http://www.w3.org/2000/svg"><path d="M13.82 20.39h1.7V39.31h-1.7V20.39z" fill="#fff"/><path d="M54.104 0H17.716L13.82 3.896v14.795h1.7v-3.398H56.3v37.61h-7.646v1.699H55.1L53.4 56.3H22.316V58h31.788L58 54.104V3.896L54.104 0zM18.42 1.7H53.4l1.7 1.698H16.72l1.7-1.699zm-2.9 11.894V5.098H56.3v8.496H15.52z" fill="#fff"/><path d="M20.9 35.797c0 8.276 6.734 15.01 15.01 15.01 8.277 0 15.01-6.734 15.01-15.01 0-8.277-6.733-15.01-15.01-15.01-8.276 0-15.01 6.733-15.01 15.01zm28.32 0c0 7.34-5.97 13.31-13.31 13.31-7.34 0-13.31-5.97-13.31-13.31 0-7.34 5.97-13.31 13.31-13.31 7.34 0 13.31 5.97 13.31 13.31z" fill="#fff"/><path d="M24.293 35.797c0 6.405 5.212 11.617 11.617 11.617a11.62 11.62 0 0 0 7.541-2.78l-1.104-1.292a9.919 9.919 0 0 1-6.437 2.373c-5.468 0-9.918-4.45-9.918-9.918 0-.286.013-.57.037-.85h7.83l3.398 3.399h8.237a9.907 9.907 0 0 1-2.04 3.888l1.293 1.104a11.619 11.619 0 0 0 2.78-7.541c0-6.406-5.211-11.617-11.617-11.617-6.405 0-11.617 5.211-11.617 11.617zm21.202-2.549h-5.748v1.7h6.044a9.991 9.991 0 0 1 0 1.699h-7.83l-3.398-3.399h-8.238c1.128-4.237 4.997-7.369 9.585-7.369 4.588 0 8.457 3.132 9.585 7.37zM52.053 6.797a2.552 2.552 0 0 0-2.55 2.549 2.552 2.552 0 0 0 2.55 2.549 2.552 2.552 0 0 0 2.549-2.55 2.552 2.552 0 0 0-2.55-2.548zm0 3.398a.85.85 0 0 1 0-1.699.85.85 0 0 1 0 1.7zM45.256 6.797a2.552 2.552 0 0 0-2.549 2.549 2.552 2.552 0 0 0 2.549 2.549 2.552 2.552 0 0 0 2.549-2.55 2.552 2.552 0 0 0-2.55-2.548zm0 3.398a.85.85 0 0 1 0-1.699.85.85 0 0 1 0 1.7zM38.46 6.797a2.552 2.552 0 0 0-2.55 2.549 2.552 2.552 0 0 0 2.55 2.549 2.552 2.552 0 0 0 2.548-2.55 2.552 2.552 0 0 0-2.549-2.548zm0 3.398a.85.85 0 0 1 0-1.699.85.85 0 0 1 0 1.7zM17.219 11.895h11.894V6.797H17.22v5.098zm1.699-3.399h8.496v1.7h-8.496v-1.7zM2.197 41.008 0 43.205v2.403l1.347 1.347L0 48.302v2.403l1.347 1.348L0 53.4v2.403L2.197 58H18.42l2.197-2.197V53.4l-1.347-1.347 1.347-1.348v-2.403l-1.347-1.347 1.347-1.347v-2.403l-2.197-2.197H2.197zm16.721 14.091-1.202 1.202H2.901l-1.202-1.202v-.995l1.202-1.202h3.046v-1.699H2.901l-1.202-1.201v-.996l1.202-1.201h14.815l1.202 1.201v.996l-1.202 1.201H7.646v1.7h10.07l1.202 1.2v.996zm0-10.195-1.202 1.201H2.901l-1.202-1.201v-.996l1.202-1.201h14.815l1.202 1.201v.996zM25.715 53.752h1.7v1.699h-1.7v-1.7zM44.406 16.992h1.7v1.7h-1.7v-1.7zM22.316 53.752h1.7v1.699h-1.7v-1.7zM47.805 16.992H54.6v1.7h-6.796v-1.7z" fill="#fff"/></svg>