<svg width="77" height="77" fill="none" xmlns="http://www.w3.org/2000/svg"><path d="M38.5 77C59.763 77 77 59.763 77 38.5S59.763 0 38.5 0 0 17.237 0 38.5 17.237 77 38.5 77z" fill="#FE7058"/><path d="m50.871 56.005.594 2.782a.472.472 0 0 0 .461.374h2.936a.472.472 0 0 0 .462-.374l.594-2.782H50.87zM21.082 56.005l.593 2.782a.472.472 0 0 0 .462.374h2.937a.472.472 0 0 0 .461-.374l.594-2.782h-5.047z" fill="#3A556A"/><path d="M55.212 17.84H21.79a3.006 3.006 0 0 0-3.007 3.006V54.27a3.006 3.006 0 0 0 3.006 3.006h33.423a3.006 3.006 0 0 0 3.006-3.006V20.846a3.006 3.006 0 0 0-3.006-3.006z" fill="#D5D6DB"/><path d="M58.217 27.622v-6.777a3.007 3.007 0 0 0-3.007-3.008H21.789a3.008 3.008 0 0 0-3.008 3.008v6.777h39.436z" fill="#E1E6E9"/><path d="M52.742 21.326a1.529 1.529 0 1 0 0 3.058 1.529 1.529 0 0 0 0-3.058z" fill="#3E6B82"/><path d="M52.742 21.846a1.008 1.008 0 1 0 0 2.016 1.008 1.008 0 0 0 0-2.016z" fill="#758FA0"/><path d="M48.337 21.326a1.529 1.529 0 1 0 0 3.058 1.529 1.529 0 0 0 0-3.058z" fill="#3E6B82"/><path d="M48.337 21.846a1.008 1.008 0 1 0 0 2.016 1.008 1.008 0 0 0 0-2.016z" fill="#758FA0"/><path d="M43.932 21.326a1.53 1.53 0 1 0 0 3.059 1.53 1.53 0 0 0 0-3.059z" fill="#3E6B82"/><path d="M43.932 21.846a1.008 1.008 0 1 0 0 2.016 1.008 1.008 0 0 0 0-2.016z" fill="#758FA0"/><path d="M46.434 44.673A8.57 8.57 0 1 0 30.6 38.11a8.57 8.57 0 0 0 15.834 6.563z" fill="#3E6B82"/><path d="M44.545 43.89a6.525 6.525 0 1 0-12.055-4.997 6.525 6.525 0 0 0 12.055 4.997z" fill="#89C5CD"/><path d="M31.983 41.496a6.518 6.518 0 0 0 13.034 0H31.983z" fill="#029BC5"/><path d="M31.812 20.131h-9.116a.164.164 0 0 0-.165.165V25.1c0 .091.074.165.165.165h9.116c.091 0 .165-.074.165-.165v-4.805a.164.164 0 0 0-.165-.165z" fill="#3A556A"/><path d="M31.375 20.733v3.931h-8.243v-3.931h8.243z" fill="#89C5CD"/><path d="M24.564 23.11a3.902 3.902 0 0 0-.113.11l-.512-.51a4.42 4.42 0 0 1 .135-.13l.49.53zM25.055 22.724a3.607 3.607 0 0 0-.126.087l-.42-.585c.048-.036.098-.07.148-.104l.398.602zM25.587 22.425a3.98 3.98 0 0 0-.134.066l-.329-.645.16-.077.303.656zM26.151 22.215a3.363 3.363 0 0 0-.141.043l-.228-.686.168-.052.201.695zM26.735 22.093a5.656 5.656 0 0 0-.146.022l-.12-.713c.056-.01.114-.018.171-.026l.095.717zM27.327 22.06h-.147l-.013-.722h.174l-.014.722zM27.919 22.115a5.6 5.6 0 0 0-.146-.022l.096-.716c.057.007.114.016.17.025l-.12.713zM28.498 22.258a3.663 3.663 0 0 0-.14-.044l.2-.694c.057.016.112.033.167.051-.075.23-.15.459-.227.687zM29.055 22.49a3.976 3.976 0 0 0-.134-.065l.303-.656c.054.025.107.05.16.077l-.329.645zM29.579 22.811a2.84 2.84 0 0 0-.126-.087l.4-.602c.05.034.1.068.15.104l-.424.585zM30.058 23.22a3.902 3.902 0 0 0-.114-.11l.49-.53c.046.042.09.085.134.13l-.51.51zM27.254 24.162a.521.521 0 1 0 0 1.042.521.521 0 0 0 0-1.042z" fill="#3A556A"/><path d="m27.254 22.467-.268 1.99h.534l-.266-1.99z" fill="#3A556A"/></svg>