<svg width="19" height="19" fill="none" xmlns="http://www.w3.org/2000/svg"><path d="M16.334 2.666A9.042 9.042 0 0 0 9.898 0a9.042 9.042 0 0 0-6.435 2.666A9.042 9.042 0 0 0 .797 9.102c0 1.54.39 3.053 1.13 4.393L0 19l5.505-1.927a9.097 9.097 0 0 0 4.393 1.13 9.042 9.042 0 0 0 6.436-2.666A9.042 9.042 0 0 0 19 9.102a9.042 9.042 0 0 0-2.666-6.436zm-1.936 9.817-1.05 1.05c-.871.87-3.341-.188-5.517-2.364-2.176-2.176-3.235-4.646-2.364-5.516l1.05-1.05a.557.557 0 0 1 .788 0L8.62 5.915a.557.557 0 0 1 0 .788l-.788.788a7.732 7.732 0 0 0 3.677 3.677l.788-.788a.557.557 0 0 1 .788 0l1.314 1.314a.557.557 0 0 1 0 .788z" fill="#3C9D00"/></svg>