<svg width="31" height="31" viewBox="0 0 31 31" fill="none" xmlns="http://www.w3.org/2000/svg">
<path d="M14.7652 22.0599L14.1003 24.473C12.3349 23.9106 10.7223 22.929 9.39655 21.6032C8.07076 20.2774 7.08918 18.6649 6.52676 16.8995L8.93985 16.2345V8.8999H0V13.3698C0 18.079 1.83384 22.5062 5.16367 25.8361C8.4935 29.1659 12.9208 30.9997 17.6299 30.9997H22.0999V22.0599H14.7652Z" fill="#FFB500"/>
<path d="M26.4593 4.53986C23.5317 1.61224 19.6394 0 15.4992 0C11.359 0 7.46662 1.61224 4.53906 4.53986L5.8235 5.82424C8.40794 3.2398 11.8442 1.81646 15.4992 1.81646C19.1542 1.81646 22.5904 3.2398 25.1749 5.82424C27.7593 8.40867 29.1826 11.8449 29.1826 15.4999C29.1826 19.1549 27.7593 22.5911 25.1749 25.1756L26.4593 26.46C29.3868 23.5325 30.9992 19.6401 30.9992 15.4999C30.9992 11.3597 29.3869 7.46735 26.4593 4.53986Z" fill="#FFB500"/>
<path d="M21.7074 8.94247C20.263 7.49807 18.3426 6.70264 16.3 6.70264C14.2573 6.70264 12.337 7.49807 10.8926 8.94247L11.5263 9.57615C12.8014 8.30106 14.4967 7.59883 16.3 7.59883C18.1033 7.59883 19.7986 8.30106 21.0737 9.57615C22.3488 10.8512 23.051 12.5466 23.051 14.3499C23.051 16.1531 22.3488 17.8484 21.0737 19.1236L21.7074 19.7573C23.1518 18.3129 23.9473 16.3925 23.9473 14.3499C23.9473 12.3072 23.1518 10.3868 21.7074 8.94247Z" fill="#FFB500"/>
</svg>
