<svg width="35" height="35" viewBox="0 0 35 35" fill="none" xmlns="http://www.w3.org/2000/svg">
<g clip-path="url(#clip0)">
<path d="M17.5 34.9999C27.1649 34.9999 34.9999 27.1649 34.9999 17.4999C34.9999 7.83499 27.1649 0 17.5 0C7.83499 0 0 7.83499 0 17.4999C0 27.1649 7.83499 34.9999 17.5 34.9999Z" fill="#4376B1"/>
<path d="M34.9317 15.9711L26.9824 8.0116C22.1265 8.64303 17.0519 8.54883 12.196 8.66176C10.1926 8.66176 8.18925 9.6045 8.5428 11.8435C9.24984 16.3216 9.60339 20.6819 8.7785 25.2778C8.64862 25.8619 8.37539 26.446 8.01855 26.9908L15.9596 34.9319C16.4669 34.9761 16.9801 35 17.4989 35C27.1638 35 34.9989 27.1649 34.9989 17.5C34.999 16.9846 34.9754 16.4749 34.9317 15.9711Z" fill="#336699"/>
<path d="M25.7048 7.48315H9.2956C8.29462 7.48315 7.4834 8.29437 7.4834 9.29535V25.7044C7.4834 26.7051 8.29462 27.5166 9.2956 27.5166H25.7047C26.7054 27.5166 27.5169 26.7051 27.5169 25.7044V9.29535C27.517 8.29437 26.7055 7.48315 25.7048 7.48315ZM13.6826 24.7814C13.6826 25.0728 13.4466 25.3088 13.1552 25.3088H10.9104C10.619 25.3088 10.383 25.0726 10.383 24.7814V15.371C10.383 15.0796 10.6192 14.8435 10.9104 14.8435H13.1553C13.4467 14.8435 13.6827 15.0797 13.6827 15.371V24.7814H13.6826ZM12.0328 13.9564C10.8549 13.9564 9.90024 13.0014 9.90024 11.8235C9.90024 10.6457 10.8549 9.69095 12.0328 9.69095C13.2107 9.69095 14.1654 10.6459 14.1654 11.8235C14.1654 13.0016 13.2107 13.9564 12.0328 13.9564ZM25.4143 24.8239C25.4143 25.0917 25.1972 25.3089 24.9296 25.3089H22.5205C22.2529 25.3089 22.0357 25.0918 22.0357 24.8239V20.4097C22.0357 19.7514 22.2289 17.5242 20.315 17.5242C18.8303 17.5242 18.5291 19.0486 18.4687 19.7325V24.8237C18.4687 25.0916 18.2517 25.3088 17.9838 25.3088H15.654C15.3861 25.3088 15.1689 25.0916 15.1689 24.8237V15.3285C15.1689 15.0606 15.3861 14.8434 15.654 14.8434H17.9838C18.2516 14.8434 18.4687 15.0606 18.4687 15.3285V16.1494C19.0193 15.3233 19.8375 14.6854 21.5792 14.6854C25.4363 14.6854 25.4145 18.2891 25.4145 20.2694V24.8239H25.4143V24.8239Z" fill="white"/>
<path d="M25.7038 7.48315H17.46V14.8434H17.9827C18.2505 14.8434 18.4676 15.0606 18.4676 15.3285V16.1494C19.0182 15.3233 19.8364 14.6854 21.5782 14.6854C25.4353 14.6854 25.4135 18.2891 25.4135 20.2694V24.8238C25.4135 25.0916 25.1964 25.3089 24.9288 25.3089H22.5197C22.2521 25.3089 22.0349 25.0917 22.0349 24.8238V20.4096C22.0349 19.7513 22.2281 17.5241 20.3142 17.5241C18.8295 17.5241 18.5283 19.0486 18.4679 19.7324V24.8237C18.4679 25.0915 18.2509 25.3087 17.983 25.3087H17.4602V27.5168H25.7041C26.7048 27.5168 27.5163 26.7053 27.5163 25.7046V9.29535C27.516 8.29437 26.7045 7.48315 25.7038 7.48315Z" fill="#D1D1D1"/>
</g>
<defs>
<clipPath id="clip0">
<rect width="35" height="35" fill="white"/>
</clipPath>
</defs>
</svg>
