<svg width="13" height="13" viewBox="0 0 13 13" fill="none" xmlns="http://www.w3.org/2000/svg">
<g clip-path="url(#clip0)">
<path d="M6.49902 3.82129C5.022 3.82129 3.82031 5.02298 3.82031 6.5C3.82031 7.97702 5.022 9.17871 6.49902 9.17871C7.97604 9.17871 9.17773 7.97702 9.17773 6.5C9.17773 5.02298 7.97614 3.82129 6.49902 3.82129Z" fill="white"/>
<path d="M11.6901 1.3099C10.8454 0.465164 9.72659 0 8.53978 0H4.46022C3.27341 0 2.15453 0.465164 1.3099 1.3099C0.465164 2.15453 0 3.27341 0 4.46022V8.53968C0 9.72659 0.465164 10.8455 1.3099 11.6901C2.15453 12.5348 3.27341 13 4.46022 13H8.53978C9.72659 13 10.8455 12.5348 11.6901 11.6901C12.5347 10.8455 13 9.72659 13 8.53968V4.46022C13 3.27341 12.5347 2.15453 11.6901 1.3099ZM6.5 9.94043C4.60294 9.94043 3.05957 8.39706 3.05957 6.5C3.05957 4.60294 4.60294 3.05957 6.5 3.05957C8.39706 3.05957 9.94043 4.60294 9.94043 6.5C9.94043 8.39706 8.39706 9.94043 6.5 9.94043ZM10.3114 3.22729C10.2406 3.2981 10.1423 3.33877 10.0421 3.33877C9.94182 3.33877 9.84373 3.2981 9.77291 3.22729C9.7018 3.15637 9.66123 3.05818 9.66123 2.95791C9.66123 2.85764 9.7018 2.75935 9.77291 2.68853C9.84373 2.61761 9.94172 2.57705 10.0421 2.57705C10.1423 2.57705 10.2406 2.61761 10.3114 2.68853C10.3823 2.75935 10.423 2.85764 10.423 2.95791C10.423 3.05808 10.3823 3.15637 10.3114 3.22729Z" fill="white"/>
</g>
<defs>
<clipPath id="clip0">
<rect width="13" height="13" fill="white"/>
</clipPath>
</defs>
</svg>
