<svg width="35" height="35" viewBox="0 0 35 35" fill="none" xmlns="http://www.w3.org/2000/svg">
<path d="M35 17.5C35 27.1651 27.1651 35 17.5 35C7.83489 35 0 27.1651 0 17.5C0 7.83489 7.83489 0 17.5 0C27.1651 0 35 7.83489 35 17.5Z" fill="#25D366"/>
<path d="M18.2683 34.9821C27.5769 34.5802 35.0003 26.9074 35.0003 17.5C35.0003 17.4319 34.9985 17.3641 34.9977 17.296L24.5 9.5L20 8.5L16 7.5L10.5 11.5L9 17.296L10.5 21.5L8 27L18.2683 34.9821Z" fill="#1BAD52"/>
<g clip-path="url(#clip0)">
<path d="M22.5893 18.9226L22.5818 18.9851C20.7493 18.0717 20.5576 17.9501 20.3209 18.3051C20.1568 18.5509 19.6784 19.1084 19.5343 19.2734C19.3884 19.4359 19.2434 19.4484 18.9959 19.3359C18.7459 19.2109 17.9434 18.9484 16.9934 18.0984C16.2534 17.4359 15.7568 16.6234 15.6101 16.3734C15.3659 15.9517 15.8768 15.8917 16.3418 15.0117C16.4251 14.8367 16.3826 14.6992 16.3209 14.5751C16.2584 14.4501 15.7609 13.2251 15.5526 12.7367C15.3526 12.2501 15.1468 12.3117 14.9926 12.3117C14.5126 12.2701 14.1618 12.2767 13.8526 12.5984C12.5076 14.0767 12.8468 15.6017 13.9976 17.2234C16.2593 20.1834 17.4643 20.7284 19.6676 21.4851C20.2626 21.6742 20.8051 21.6476 21.2343 21.5859C21.7126 21.5101 22.7068 20.9851 22.9143 20.3976C23.1268 19.8101 23.1268 19.3226 23.0643 19.2101C23.0026 19.0976 22.8393 19.0351 22.5893 18.9226Z" fill="white"/>
<path d="M25.1 9.87257C18.6925 3.67841 8.08833 8.17091 8.08417 16.9092C8.08417 18.6559 8.54167 20.3592 9.41333 21.8634L8 26.9984L13.2792 25.6217C19.8667 29.1801 27.9967 24.4551 28 16.9142C28 14.2676 26.9667 11.7767 25.0875 9.90507L25.1 9.87257ZM26.335 16.8867C26.33 23.2476 19.3475 27.2201 13.825 23.9734L13.525 23.7951L10.4 24.6076L11.2375 21.5701L11.0383 21.2576C7.60167 15.7867 11.55 8.63674 18.06 8.63674C20.2717 8.63674 22.3475 9.49924 23.9108 11.0617C25.4733 12.6109 26.335 14.6867 26.335 16.8867Z" fill="white"/>
<mask id="mask0" mask-type="alpha" maskUnits="userSpaceOnUse" x="8" y="6" width="20" height="21">
<path d="M25.1 9.87257C18.6925 3.67841 8.08833 8.17091 8.08417 16.9092C8.08417 18.6559 8.54167 20.3592 9.41333 21.8634L8 26.9984L13.2792 25.6217C19.8667 29.1801 27.9967 24.4551 28 16.9142C28 14.2676 26.9667 11.7767 25.0875 9.90507L25.1 9.87257ZM26.335 16.8867C26.33 23.2476 19.3475 27.2201 13.825 23.9734L13.525 23.7951L10.4 24.6076L11.2375 21.5701L11.0383 21.2576C7.60167 15.7867 11.55 8.63674 18.06 8.63674C20.2717 8.63674 22.3475 9.49924 23.9108 11.0617C25.4733 12.6109 26.335 14.6867 26.335 16.8867Z" fill="white"/>
</mask>
<g mask="url(#mask0)">
<rect x="18" y="5" width="10" height="22" fill="#DCE1EB"/>
</g>
<mask id="mask1" mask-type="alpha" maskUnits="userSpaceOnUse" x="12" y="12" width="12" height="10">
<path d="M22.5893 18.9226L22.5818 18.9851C20.7493 18.0717 20.5576 17.9501 20.3209 18.3051C20.1568 18.5509 19.6784 19.1084 19.5343 19.2734C19.3884 19.4359 19.2434 19.4484 18.9959 19.3359C18.7459 19.2109 17.9434 18.9484 16.9934 18.0984C16.2534 17.4359 15.7568 16.6234 15.6101 16.3734C15.3659 15.9517 15.8768 15.8917 16.3418 15.0117C16.4251 14.8367 16.3826 14.6992 16.3209 14.5751C16.2584 14.4501 15.7609 13.2251 15.5526 12.7367C15.3526 12.2501 15.1468 12.3117 14.9926 12.3117C14.5126 12.2701 14.1618 12.2767 13.8526 12.5984C12.5076 14.0767 12.8468 15.6017 13.9976 17.2234C16.2593 20.1834 17.4643 20.7284 19.6676 21.4851C20.2626 21.6742 20.8051 21.6476 21.2343 21.5859C21.7126 21.5101 22.7068 20.9851 22.9143 20.3976C23.1268 19.8101 23.1268 19.3226 23.0643 19.2101C23.0026 19.0976 22.8393 19.0351 22.5893 18.9226Z" fill="white"/>
</mask>
<g mask="url(#mask1)">
<rect x="18" y="5" width="10" height="22" fill="#DCE1EB"/>
</g>
</g>
<defs>
<clipPath id="clip0">
<rect width="20" height="20" fill="white" transform="translate(8 7)"/>
</clipPath>
</defs>
</svg>
