<svg width="26" height="14" viewBox="0 0 26 14" fill="none" xmlns="http://www.w3.org/2000/svg">
<path d="M25.6641 10.3789C25.5339 10.5091 25.4362 10.7044 25.3711 10.9648C25.3711 11.2253 25.2734 11.388 25.0781 11.4531C24.8828 12.1042 24.7201 12.5599 24.5898 12.8203C24.4596 13.0807 24.2969 13.3086 24.1016 13.5039C23.125 13.569 22.0182 13.6667 20.7812 13.7969C19.6094 13.862 18.5677 13.6016 17.6562 13.0156C16.6146 12.3646 15.8333 11.4531 15.3125 10.2812C14.7917 9.04427 14.694 7.83984 15.0195 6.66797C15.4102 5.88672 15.5729 5.39844 15.5078 5.20312C15.5078 5.00781 15.5729 4.84505 15.7031 4.71484C15.8333 4.51953 15.9961 4.32422 16.1914 4.12891C16.3867 3.93359 16.5495 3.73828 16.6797 3.54297C16.9401 3.21745 17.0703 3.02214 17.0703 2.95703C17.0703 2.82682 17.2656 2.59896 17.6562 2.27344C17.7214 2.01302 17.8841 1.6875 18.1445 1.29688C18.3398 1.16667 18.5352 1.03646 18.7305 0.90625C18.9909 0.776042 19.2513 0.645833 19.5117 0.515625C19.9023 0.255208 20.2279 0.222656 20.4883 0.417969C20.7487 0.613281 21.0417 0.841146 21.3672 1.10156C21.3672 1.55729 21.5299 1.94792 21.8555 2.27344C21.8555 2.98958 21.6927 3.51042 21.3672 3.83594C21.3021 4.16146 21.2044 4.51953 21.0742 4.91016C21.0091 5.23568 20.9115 5.5612 20.7812 5.88672C21.0417 6.53776 21.3672 6.79818 21.7578 6.66797C22.2135 6.53776 22.6042 6.47266 22.9297 6.47266C23.2552 6.60286 23.5482 6.79818 23.8086 7.05859C24.069 7.25391 24.362 7.38411 24.6875 7.44922C25.0781 7.97005 25.4036 8.29557 25.6641 8.42578C25.599 8.7513 25.5339 9.10938 25.4688 9.5C25.4036 9.82552 25.4688 10.1185 25.6641 10.3789ZM12.9688 11.9414C12.8385 12.0716 12.7083 12.2018 12.5781 12.332C12.513 12.3971 12.4479 12.5273 12.3828 12.7227C11.6016 12.918 10.8529 13.3086 10.1367 13.8945C9.29036 13.9596 8.18359 13.9922 6.81641 13.9922C5.51432 13.9922 4.50521 13.7969 3.78906 13.4062C3.52865 13.1458 3.23568 12.8529 2.91016 12.5273C2.58464 12.1367 2.38932 11.8438 2.32422 11.6484C1.60807 10.737 1.15234 9.66276 0.957031 8.42578C0.826823 7.1888 1.11979 6.11458 1.83594 5.20312C2.35677 4.16146 2.64974 3.70573 2.71484 3.83594C2.77995 3.90104 3.00781 3.73828 3.39844 3.34766C3.78906 2.89193 3.98438 2.59896 3.98438 2.46875C3.98438 2.33854 4.04948 2.20833 4.17969 2.07812C4.24479 1.94792 4.47266 1.6875 4.86328 1.29688C5.31901 0.841146 5.61198 0.580729 5.74219 0.515625C6.39323 0.385417 6.97917 0.548177 7.5 1.00391C8.02083 1.39453 8.28125 1.91536 8.28125 2.56641C8.34635 2.89193 8.28125 3.1849 8.08594 3.44531C7.89062 3.70573 7.82552 4.0638 7.89062 4.51953C7.89062 4.64974 7.76042 4.77995 7.5 4.91016C7.23958 5.04036 7.10938 5.36589 7.10938 5.88672C6.78385 6.08203 6.52344 6.34245 6.32812 6.66797C6.52344 6.79818 6.71875 6.83073 6.91406 6.76562C7.17448 6.63542 7.40234 6.57031 7.59766 6.57031C8.05339 6.50521 8.54167 6.50521 9.0625 6.57031C9.58333 6.63542 10.0391 6.57031 10.4297 6.375C10.625 6.57031 10.8529 6.73307 11.1133 6.86328C11.3737 6.92839 11.6341 7.09115 11.8945 7.35156C12.2852 7.8724 12.513 8.16536 12.5781 8.23047C12.7083 8.29557 12.8385 8.39323 12.9688 8.52344C13.099 8.91406 13.099 9.30469 12.9688 9.69531C12.8385 10.0208 12.7734 10.3789 12.7734 10.7695C12.8385 10.9648 12.8711 11.1602 12.8711 11.3555C12.8711 11.5508 12.9036 11.7461 12.9688 11.9414Z" fill="#197081"/>
</svg>
