<svg width="26" height="14" viewBox="0 0 26 14" fill="none" xmlns="http://www.w3.org/2000/svg">
<path d="M0.933594 10.3789C1.0638 10.5091 1.16146 10.7044 1.22656 10.9648C1.22656 11.2253 1.32422 11.388 1.51953 11.4531C1.71484 12.1042 1.8776 12.5599 2.00781 12.8203C2.13802 13.0807 2.30078 13.3086 2.49609 13.5039C3.47266 13.569 4.57943 13.6667 5.81641 13.7969C6.98828 13.862 8.02995 13.6016 8.94141 13.0156C9.98307 12.3646 10.7643 11.4531 11.2852 10.2812C11.806 9.04427 11.9036 7.83984 11.5781 6.66797C11.1875 5.88672 11.0247 5.39844 11.0898 5.20312C11.0898 5.00781 11.0247 4.84505 10.8945 4.71484C10.7643 4.51953 10.6016 4.32422 10.4062 4.12891C10.2109 3.93359 10.0482 3.73828 9.91797 3.54297C9.65755 3.21745 9.52734 3.02214 9.52734 2.95703C9.52734 2.82682 9.33203 2.59896 8.94141 2.27344C8.8763 2.01302 8.71354 1.6875 8.45312 1.29688C8.25781 1.16667 8.0625 1.03646 7.86719 0.90625C7.60677 0.776042 7.34635 0.645833 7.08594 0.515625C6.69531 0.255208 6.36979 0.222656 6.10938 0.417969C5.84896 0.613281 5.55599 0.841146 5.23047 1.10156C5.23047 1.55729 5.06771 1.94792 4.74219 2.27344C4.74219 2.98958 4.90495 3.51042 5.23047 3.83594C5.29557 4.16146 5.39323 4.51953 5.52344 4.91016C5.58854 5.23568 5.6862 5.5612 5.81641 5.88672C5.55599 6.53776 5.23047 6.79818 4.83984 6.66797C4.38411 6.53776 3.99349 6.47266 3.66797 6.47266C3.34245 6.60286 3.04948 6.79818 2.78906 7.05859C2.52865 7.25391 2.23568 7.38411 1.91016 7.44922C1.51953 7.97005 1.19401 8.29557 0.933594 8.42578C0.998698 8.7513 1.0638 9.10938 1.12891 9.5C1.19401 9.82552 1.12891 10.1185 0.933594 10.3789ZM13.6289 11.9414C13.7591 12.0716 13.8893 12.2018 14.0195 12.332C14.0846 12.3971 14.1497 12.5273 14.2148 12.7227C14.9961 12.918 15.7448 13.3086 16.4609 13.8945C17.3073 13.9596 18.4141 13.9922 19.7812 13.9922C21.0833 13.9922 22.0924 13.7969 22.8086 13.4062C23.069 13.1458 23.362 12.8529 23.6875 12.5273C24.013 12.1367 24.2083 11.8438 24.2734 11.6484C24.9896 10.737 25.4453 9.66276 25.6406 8.42578C25.7708 7.1888 25.4779 6.11458 24.7617 5.20312C24.2409 4.16146 23.9479 3.70573 23.8828 3.83594C23.8177 3.90104 23.5898 3.73828 23.1992 3.34766C22.8086 2.89193 22.6133 2.59896 22.6133 2.46875C22.6133 2.33854 22.5482 2.20833 22.418 2.07812C22.3529 1.94792 22.125 1.6875 21.7344 1.29688C21.2786 0.841146 20.9857 0.580729 20.8555 0.515625C20.2044 0.385417 19.6185 0.548177 19.0977 1.00391C18.5768 1.39453 18.3164 1.91536 18.3164 2.56641C18.2513 2.89193 18.3164 3.1849 18.5117 3.44531C18.707 3.70573 18.7721 4.0638 18.707 4.51953C18.707 4.64974 18.8372 4.77995 19.0977 4.91016C19.3581 5.04036 19.4883 5.36589 19.4883 5.88672C19.8138 6.08203 20.0742 6.34245 20.2695 6.66797C20.0742 6.79818 19.8789 6.83073 19.6836 6.76562C19.4232 6.63542 19.1953 6.57031 19 6.57031C18.5443 6.50521 18.056 6.50521 17.5352 6.57031C17.0143 6.63542 16.5586 6.57031 16.168 6.375C15.9727 6.57031 15.7448 6.73307 15.4844 6.86328C15.224 6.92839 14.9635 7.09115 14.7031 7.35156C14.3125 7.8724 14.0846 8.16536 14.0195 8.23047C13.8893 8.29557 13.7591 8.39323 13.6289 8.52344C13.4987 8.91406 13.4987 9.30469 13.6289 9.69531C13.7591 10.0208 13.8242 10.3789 13.8242 10.7695C13.7591 10.9648 13.7266 11.1602 13.7266 11.3555C13.7266 11.5508 13.694 11.7461 13.6289 11.9414Z" fill="#197081"/>
</svg>
