<svg width="140" height="50" viewBox="0 0 210 75" fill="none" xmlns="http://www.w3.org/2000/svg">
   <path d="M186.835 74.9695C193.093 74.7204 198.212 73.0047 202.215 69.818C202.979 69.2092 204.799 67.384 205.41 66.6142C207.033 64.5688 208.136 62.5782 208.873 60.3696C211.138 53.5711 209.972 44.6499 205.538 34.8591C201.742 26.4769 195.885 18.1634 185.665 6.64928C184.16 4.95501 179.677 0 179.648 0C179.638 0 179.882 0.424091 180.189 0.940555C182.847 5.40059 185.12 10.6541 186.359 15.2022C188.348 22.5 188.108 28.7627 185.656 33.619C183.964 36.9646 181.064 39.8624 177.802 41.4643C172.093 44.2677 163.733 44.4996 153.525 42.1429C152.822 41.9797 117.994 32.7149 76.1292 21.5541C34.2642 10.3921 0.00535583 1.26694 0 1.27445C-0.0118408 1.28411 97.2641 42.9965 147.762 64.6364C155.759 68.0625 157.897 68.9279 161.657 70.2507C171.268 73.6328 179.877 75.2465 186.835 74.9695Z" fill="black" />
</svg>