<svg width="140" height="50" viewBox="0 0 140 50" fill="none" xmlns="http://www.w3.org/2000/svg">
<path d="M124.557 49.9797C128.728 49.8136 132.141 48.6698 134.81 46.5453C135.319 46.1395 136.533 44.9226 136.94 44.4094C138.022 43.0459 138.758 41.7188 139.248 40.2464C140.758 35.7141 139.981 29.7666 137.025 23.2394C134.495 17.6513 130.59 12.1089 123.777 4.43285C122.773 3.30334 119.785 0 119.766 0C119.758 0 119.921 0.282727 120.126 0.627036C121.898 3.60039 123.413 7.10272 124.239 10.1348C125.566 15 125.406 19.1752 123.771 22.4126C122.643 24.643 120.709 26.5749 118.535 27.6429C114.728 29.5118 109.156 29.6664 102.35 28.0953C101.881 27.9865 78.6627 21.81 50.7528 14.3694C22.8428 6.92808 0.00357993 0.844623 5.99222e-06 0.849633C-0.00788798 0.856075 64.8428 28.6643 98.5077 43.091C103.839 45.375 105.265 45.9519 107.771 46.8338C114.178 49.0885 119.918 50.1643 124.557 49.9797Z" fill="white"/>
</svg>
