<svg width="36" height="44" viewBox="0 0 36 44" fill="none" xmlns="http://www.w3.org/2000/svg">
<g clip-path="url(#clip0)">
<path d="M31.5333 0H3.66667C1.64267 0.00238333 0.00238333 1.64267 0 3.66667V40.3333C0.00238333 42.3573 1.64267 43.9976 3.66667 44H31.5333C33.5573 43.9976 35.1976 42.3573 35.2 40.3333V3.66667C35.1976 1.64267 33.5573 0.00238333 31.5333 0ZM10.2667 1.46667H24.9333V2.93333H10.2667V1.46667ZM30.8 4.4V11.7333H4.4V4.4H30.8ZM33.7333 40.3333C33.7333 41.5484 32.7484 42.5333 31.5333 42.5333H3.66667C2.45163 42.5333 1.46667 41.5484 1.46667 40.3333V3.66667C1.46667 2.45163 2.45163 1.46667 3.66667 1.46667H8.8V2.93333H3.66667C3.26168 2.93333 2.93333 3.26168 2.93333 3.66667V12.4667C2.93333 12.8717 3.26168 13.2 3.66667 13.2H31.5333C31.9383 13.2 32.2667 12.8717 32.2667 12.4667V3.66667C32.2667 3.26168 31.9383 2.93333 31.5333 2.93333H26.4V1.46667H31.5333C32.7484 1.46667 33.7333 2.45163 33.7333 3.66667V40.3333Z" fill="url(#paint0_linear)"/>
<path d="M17.6 14.6665C15.575 14.6665 13.9333 16.3082 13.9333 18.3332C13.9357 20.3572 15.576 21.9975 17.6 21.9998C19.625 21.9998 21.2667 20.3582 21.2667 18.3332C21.2667 16.3082 19.625 14.6665 17.6 14.6665ZM17.6 20.5332C16.385 20.5332 15.4 19.5482 15.4 18.3332C15.4 17.1181 16.385 16.1332 17.6 16.1332C18.8151 16.1332 19.8 17.1181 19.8 18.3332C19.8 19.5482 18.8151 20.5332 17.6 20.5332Z" fill="url(#paint1_linear)"/>
<path d="M27.1333 14.6665C25.1083 14.6665 23.4667 16.3082 23.4667 18.3332C23.4691 20.3572 25.1093 21.9975 27.1333 21.9998C29.1584 21.9998 30.8 20.3582 30.8 18.3332C30.8 16.3082 29.1584 14.6665 27.1333 14.6665ZM27.1333 20.5332C25.9183 20.5332 24.9333 19.5482 24.9333 18.3332C24.9333 17.1181 25.9183 16.1332 27.1333 16.1332C28.3484 16.1332 29.3333 17.1181 29.3333 18.3332C29.3333 19.5482 28.3484 20.5332 27.1333 20.5332Z" fill="url(#paint2_linear)"/>
<path d="M8.06657 14.6665C6.04156 14.6665 4.3999 16.3082 4.3999 18.3332C4.40229 20.3572 6.04257 21.9975 8.06657 21.9998C10.0916 21.9998 11.7332 20.3582 11.7332 18.3332C11.7332 16.3082 10.0916 14.6665 8.06657 14.6665ZM8.06657 20.5332C6.85153 20.5332 5.86657 19.5482 5.86657 18.3332C5.86657 17.1181 6.85153 16.1332 8.06657 16.1332C9.28161 16.1332 10.2666 17.1181 10.2666 18.3332C10.2666 19.5482 9.28161 20.5332 8.06657 20.5332Z" fill="url(#paint3_linear)"/>
<path d="M17.6 23.4668C15.575 23.4668 13.9333 25.1085 13.9333 27.1335C13.9357 29.1575 15.576 30.7977 17.6 30.8001C19.625 30.8001 21.2667 29.1585 21.2667 27.1335C21.2667 25.1085 19.625 23.4668 17.6 23.4668ZM17.6 29.3335C16.385 29.3335 15.4 28.3485 15.4 27.1335C15.4 25.9184 16.385 24.9335 17.6 24.9335C18.8151 24.9335 19.8 25.9184 19.8 27.1335C19.8 28.3485 18.8151 29.3335 17.6 29.3335Z" fill="url(#paint4_linear)"/>
<path d="M27.1333 23.4668C25.1083 23.4668 23.4667 25.1085 23.4667 27.1335C23.4691 29.1575 25.1093 30.7977 27.1333 30.8001C29.1584 30.8001 30.8 29.1585 30.8 27.1335C30.8 25.1085 29.1584 23.4668 27.1333 23.4668ZM27.1333 29.3335C25.9183 29.3335 24.9333 28.3485 24.9333 27.1335C24.9333 25.9184 25.9183 24.9335 27.1333 24.9335C28.3484 24.9335 29.3333 25.9184 29.3333 27.1335C29.3333 28.3485 28.3484 29.3335 27.1333 29.3335Z" fill="url(#paint5_linear)"/>
<path d="M8.06657 23.4668C6.04156 23.4668 4.3999 25.1085 4.3999 27.1335C4.40229 29.1575 6.04257 30.7977 8.06657 30.8001C10.0916 30.8001 11.7332 29.1585 11.7332 27.1335C11.7332 25.1085 10.0916 23.4668 8.06657 23.4668ZM8.06657 29.3335C6.85153 29.3335 5.86657 28.3485 5.86657 27.1335C5.86657 25.9184 6.85153 24.9335 8.06657 24.9335C9.28161 24.9335 10.2666 25.9184 10.2666 27.1335C10.2666 28.3485 9.28161 29.3335 8.06657 29.3335Z" fill="url(#paint6_linear)"/>
<path d="M17.6 32.2666C15.575 32.2666 13.9333 33.9083 13.9333 35.9333C13.9357 37.9573 15.576 39.5976 17.6 39.5999C19.625 39.5999 21.2667 37.9583 21.2667 35.9333C21.2667 33.9083 19.625 32.2666 17.6 32.2666ZM17.6 38.1333C16.385 38.1333 15.4 37.1483 15.4 35.9333C15.4 34.7182 16.385 33.7333 17.6 33.7333C18.8151 33.7333 19.8 34.7182 19.8 35.9333C19.8 37.1483 18.8151 38.1333 17.6 38.1333Z" fill="url(#paint7_linear)"/>
<path d="M8.06657 32.2666C6.04156 32.2666 4.3999 33.9083 4.3999 35.9333C4.40229 37.9573 6.04257 39.5976 8.06657 39.5999C10.0916 39.5999 11.7332 37.9583 11.7332 35.9333C11.7332 33.9083 10.0916 32.2666 8.06657 32.2666ZM8.06657 38.1333C6.85153 38.1333 5.86657 37.1483 5.86657 35.9333C5.86657 34.7182 6.85153 33.7333 8.06657 33.7333C9.28161 33.7333 10.2666 34.7182 10.2666 35.9333C10.2666 37.1483 9.28161 38.1333 8.06657 38.1333Z" fill="url(#paint8_linear)"/>
<path d="M30.0667 32.2666H24.2C23.795 32.2666 23.4667 32.595 23.4667 32.9999V40.3333C23.4667 40.7383 23.795 41.0666 24.2 41.0666H30.0667C30.4717 41.0666 30.8 40.7383 30.8 40.3333V32.9999C30.8 32.595 30.4717 32.2666 30.0667 32.2666ZM29.3333 39.5999H24.9333V33.7333H29.3333V39.5999Z" fill="url(#paint9_linear)"/>
<path d="M26.4 8.80005H24.9333V10.2667H26.4V8.80005Z" fill="url(#paint10_linear)"/>
<path d="M29.3334 8.80005H27.8667V10.2667H29.3334V8.80005Z" fill="url(#paint11_linear)"/>
<path d="M8.80003 7.33337V5.8667H7.33337V7.33337H5.8667V8.80003H7.33337V10.2667H8.80003V8.80003H10.2667V7.33337H8.80003Z" fill="url(#paint12_linear)"/>
<path d="M27.8666 37.3999H27.1332C26.7283 37.3999 26.3999 37.7283 26.3999 38.1332C26.3999 38.5382 26.7283 38.8666 27.1332 38.8666H27.8666C28.2716 38.8666 28.5999 38.5382 28.5999 38.1332C28.5999 37.7283 28.2716 37.3999 27.8666 37.3999Z" fill="url(#paint13_linear)"/>
</g>
<defs>
<linearGradient id="paint0_linear" x1="17.6" y1="0" x2="17.6" y2="44" gradientUnits="userSpaceOnUse">
<stop stop-color="#5FCCE3"/>
<stop offset="1" stop-color="#D6A7FF"/>
</linearGradient>
<linearGradient id="paint1_linear" x1="17.6" y1="14.6665" x2="17.6" y2="21.9998" gradientUnits="userSpaceOnUse">
<stop stop-color="#5FCCE3"/>
<stop offset="1" stop-color="#D6A7FF"/>
</linearGradient>
<linearGradient id="paint2_linear" x1="27.1333" y1="14.6665" x2="27.1333" y2="21.9998" gradientUnits="userSpaceOnUse">
<stop stop-color="#5FCCE3"/>
<stop offset="1" stop-color="#D6A7FF"/>
</linearGradient>
<linearGradient id="paint3_linear" x1="8.06657" y1="14.6665" x2="8.06657" y2="21.9998" gradientUnits="userSpaceOnUse">
<stop stop-color="#5FCCE3"/>
<stop offset="1" stop-color="#D6A7FF"/>
</linearGradient>
<linearGradient id="paint4_linear" x1="17.6" y1="23.4668" x2="17.6" y2="30.8001" gradientUnits="userSpaceOnUse">
<stop stop-color="#5FCCE3"/>
<stop offset="1" stop-color="#D6A7FF"/>
</linearGradient>
<linearGradient id="paint5_linear" x1="27.1333" y1="23.4668" x2="27.1333" y2="30.8001" gradientUnits="userSpaceOnUse">
<stop stop-color="#5FCCE3"/>
<stop offset="1" stop-color="#D6A7FF"/>
</linearGradient>
<linearGradient id="paint6_linear" x1="8.06657" y1="23.4668" x2="8.06657" y2="30.8001" gradientUnits="userSpaceOnUse">
<stop stop-color="#5FCCE3"/>
<stop offset="1" stop-color="#D6A7FF"/>
</linearGradient>
<linearGradient id="paint7_linear" x1="17.6" y1="32.2666" x2="17.6" y2="39.5999" gradientUnits="userSpaceOnUse">
<stop stop-color="#5FCCE3"/>
<stop offset="1" stop-color="#D6A7FF"/>
</linearGradient>
<linearGradient id="paint8_linear" x1="8.06657" y1="32.2666" x2="8.06657" y2="39.5999" gradientUnits="userSpaceOnUse">
<stop stop-color="#5FCCE3"/>
<stop offset="1" stop-color="#D6A7FF"/>
</linearGradient>
<linearGradient id="paint9_linear" x1="27.1333" y1="32.2666" x2="27.1333" y2="41.0666" gradientUnits="userSpaceOnUse">
<stop stop-color="#5FCCE3"/>
<stop offset="1" stop-color="#D6A7FF"/>
</linearGradient>
<linearGradient id="paint10_linear" x1="25.6667" y1="8.80005" x2="25.6667" y2="10.2667" gradientUnits="userSpaceOnUse">
<stop stop-color="#5FCCE3"/>
<stop offset="1" stop-color="#D6A7FF"/>
</linearGradient>
<linearGradient id="paint11_linear" x1="28.6" y1="8.80005" x2="28.6" y2="10.2667" gradientUnits="userSpaceOnUse">
<stop stop-color="#5FCCE3"/>
<stop offset="1" stop-color="#D6A7FF"/>
</linearGradient>
<linearGradient id="paint12_linear" x1="8.0667" y1="5.8667" x2="8.0667" y2="10.2667" gradientUnits="userSpaceOnUse">
<stop stop-color="#5FCCE3"/>
<stop offset="1" stop-color="#D6A7FF"/>
</linearGradient>
<linearGradient id="paint13_linear" x1="27.4999" y1="37.3999" x2="27.4999" y2="38.8666" gradientUnits="userSpaceOnUse">
<stop stop-color="#5FCCE3"/>
<stop offset="1" stop-color="#D6A7FF"/>
</linearGradient>
<clipPath id="clip0">
<rect width="35.2" height="44" fill="white"/>
</clipPath>
</defs>
</svg>
