<svg width="37" height="39" viewBox="0 0 37 39" fill="none" xmlns="http://www.w3.org/2000/svg">
<path fill-rule="evenodd" clip-rule="evenodd" d="M7.94756 0.126339C7.57595 0.303081 7.26951 0.660605 7.16647 1.03764C7.12387 1.1935 7.08885 1.66908 7.08862 2.09436L7.08817 2.86756L5.60699 2.90155C3.94911 2.93951 3.51691 3.03234 2.58837 3.54961C1.84051 3.96628 0.958847 4.91127 0.57434 5.7084C-0.0497073 7.00215 0.000990418 5.65451 0.000990418 20.9464C0.000990418 36.2105 -0.0473824 34.8953 0.56009 36.1551C1.11866 37.3138 2.20162 38.2712 3.47948 38.7362L4.1258 38.9713L15.9753 38.9925C26.4311 39.0112 27.8601 39.0001 28.1256 38.8979C28.3583 38.8083 29.3816 37.8095 32.6372 34.4943L36.8478 30.2066L36.9325 29.7814C36.9937 29.4741 37.0107 26.2981 36.9939 18.3111C36.9679 5.91631 37.0186 6.99133 36.3983 5.70344C35.9583 4.79001 35.0654 3.88511 34.1619 3.43719C33.2825 3.00109 32.638 2.88349 31.1277 2.88349H29.8871L29.8867 2.10229C29.8862 1.17437 29.8058 0.834299 29.5046 0.485616C28.8543 -0.267007 27.614 -0.108175 27.1899 0.782016C27.0631 1.04823 27.0373 1.2531 27.0373 1.993V2.88349H18.4877H9.93804V1.993C9.93804 1.2531 9.91224 1.04823 9.78542 0.782016C9.46654 0.11262 8.61503 -0.191173 7.94756 0.126339ZM7.10152 6.67519C7.13542 7.7172 7.24971 8.03943 7.70367 8.37364C8.24964 8.77559 8.94449 8.73611 9.46271 8.27372C9.86492 7.91482 9.93804 7.66628 9.93804 6.65857V5.77966H18.4877H27.0373V6.65857C27.0373 7.66628 27.1104 7.91482 27.5126 8.27372C28.0308 8.73611 28.7257 8.77559 29.2716 8.37364C29.7321 8.03463 29.8453 7.7159 29.8745 6.67519L29.8997 5.77966H31.0905C32.1062 5.77966 32.3416 5.8026 32.691 5.93544C33.207 6.13162 33.6679 6.58121 33.9256 7.13972L34.1245 7.57071L34.1448 17.4977L34.1652 27.4247L31.07 27.426C27.7681 27.4275 27.3163 27.4667 26.6549 27.8097C26.2095 28.0405 25.5272 28.7199 25.2832 29.1754C24.9112 29.8701 24.8651 30.329 24.8636 33.3515L24.8624 36.1153L14.6816 36.0952L4.50079 36.0751L4.1558 35.9023C3.68617 35.6672 3.28164 35.2437 3.04683 34.7413L2.85086 34.3222V20.9464C2.85086 8.24033 2.85761 7.55547 2.98556 7.26585C3.2011 6.77815 3.47791 6.41666 3.80347 6.1977C4.34074 5.83636 4.56821 5.79079 5.8616 5.78499L7.07235 5.77966L7.10152 6.67519ZM9.50929 13.2111C8.36881 13.7975 8.20284 15.3083 9.18493 16.1626C10.6675 17.4522 12.7961 15.6593 11.8378 13.9279C11.5193 13.3525 11.0647 13.0711 10.3969 13.036C9.97794 13.014 9.8395 13.0413 9.50929 13.2111ZM17.4002 13.1649C16.7674 13.4633 16.3878 14.0805 16.3878 14.8111C16.3878 15.5631 16.7698 16.1505 17.4532 16.4492C18.1412 16.75 18.8746 16.5911 19.4168 16.0238C20.4847 14.9064 19.6767 13.0158 18.1339 13.0218C17.8724 13.0227 17.5811 13.0796 17.4002 13.1649ZM25.1796 13.1772C23.5961 13.994 24.0446 16.4384 25.8051 16.5867C26.9225 16.6809 27.783 15.7898 27.6916 14.6333C27.6462 14.0584 27.407 13.6529 26.8992 13.2902C26.6271 13.0958 26.4952 13.057 26.0388 13.0363C25.6024 13.0167 25.4389 13.0435 25.1796 13.1772ZM17.8127 20.2597C17.2647 20.3636 16.8028 20.7234 16.5365 21.2537C16.2966 21.7316 16.3432 22.5464 16.6361 22.9962C17.0581 23.6442 17.8188 23.9453 18.5788 23.7651C19.1006 23.6413 19.6848 23.0636 19.8333 22.5244C20.1847 21.249 19.0865 20.0182 17.8127 20.2597ZM25.6368 20.2707C25.1969 20.3495 24.918 20.5132 24.6195 20.8676C23.8001 21.8404 24.1961 23.3012 25.3956 23.7313C26.5162 24.1331 27.7122 23.2569 27.7122 22.0342C27.7122 21.5413 27.5601 21.146 27.2397 20.8066C26.8143 20.3558 26.2377 20.1631 25.6368 20.2707ZM9.50509 20.4218C8.67157 20.8411 8.29644 21.9663 8.71132 22.8027C9.03208 23.4493 9.59411 23.7989 10.313 23.7989C11.1517 23.7989 11.7709 23.3226 12.0075 22.4954C12.1117 22.1312 12.117 21.9997 12.0412 21.6557C11.9291 21.1466 11.5787 20.6705 11.145 20.4378C10.6999 20.1991 9.96227 20.1918 9.50509 20.4218ZM9.78805 27.5379C9.35269 27.6803 8.92611 28.0423 8.72242 28.4419C8.48701 28.9037 8.49548 29.6378 8.7414 30.0896C8.98453 30.5363 9.46181 30.8967 9.96099 31.0102C11.1715 31.2855 12.3121 30.1263 12.0412 28.8961C11.814 27.8641 10.7503 27.223 9.78805 27.5379ZM17.6043 27.533C16.5264 27.8876 16.0498 29.1479 16.6149 30.1493C17.3482 31.4486 19.1377 31.3293 19.7565 29.9398C20.3574 28.5908 19.0008 27.0737 17.6043 27.533ZM32.662 30.3404C32.662 30.3511 31.5483 31.4912 30.1871 32.8741L27.7122 35.3883V33.007C27.7122 30.7273 27.7186 30.6193 27.8622 30.4733C28.0058 30.3274 28.1122 30.3209 30.3371 30.3209C31.6158 30.3209 32.662 30.3296 32.662 30.3404Z" fill="#6346BF"/>
</svg>
