<svg width="94" height="94" viewBox="0 0 94 94" fill="none" xmlns="http://www.w3.org/2000/svg">
<path d="M81.9761 47.0001C81.9754 52.5435 80.6572 58.0072 78.1301 62.941C75.603 67.8748 71.9393 72.1372 67.4412 75.377C62.9432 78.6167 57.7394 80.7409 52.2591 81.5744C46.7788 82.4079 41.1789 81.9269 35.921 80.171C30.6631 78.4151 25.8979 75.4346 22.0182 71.4752C18.1385 67.5159 15.2555 62.6911 13.6067 57.3986C11.958 52.1062 11.5909 46.4976 12.5356 41.0354C13.4803 35.5731 15.7097 30.4137 19.0401 25.9823C19.2447 25.7096 19.5491 25.5294 19.8865 25.4812C20.2239 25.433 20.5667 25.5208 20.8394 25.7253C21.112 25.9298 21.2923 26.2342 21.3405 26.5717C21.3887 26.9091 21.3009 27.2518 21.0964 27.5245C16.1794 34.067 13.921 42.2281 14.775 50.3676C15.6291 58.5071 19.5323 66.0217 25.7002 71.4011C31.8682 76.7804 39.8436 79.6258 48.0237 79.3654C56.2037 79.105 63.982 75.7581 69.7953 69.9973C75.6086 64.2365 79.026 56.4888 79.3606 48.3115C79.6952 40.1341 76.9222 32.1332 71.599 25.9167C66.2758 19.7003 58.7969 15.729 50.6655 14.8012C42.5341 13.8733 34.3528 16.0577 27.766 20.9151C27.6303 21.0154 27.4761 21.088 27.3123 21.1287C27.1485 21.1694 26.9783 21.1775 26.8114 21.1524C26.6445 21.1274 26.4842 21.0697 26.3396 20.9827C26.195 20.8956 26.0689 20.781 25.9686 20.6452C25.8683 20.5095 25.7957 20.3553 25.755 20.1916C25.7143 20.0278 25.7062 19.8576 25.7313 19.6907C25.7564 19.5238 25.8141 19.3634 25.9011 19.2188C25.9881 19.0742 26.1028 18.9482 26.2385 18.8479C31.4473 15.0072 37.6196 12.6869 44.0686 12.145C50.5175 11.6032 56.9904 12.8611 62.7671 15.7788C68.5437 18.6966 73.3977 23.1597 76.789 28.6717C80.1803 34.1837 81.9759 40.5284 81.9761 47.0001ZM23.1328 24.5084C23.3019 24.5086 23.4694 24.4752 23.6256 24.4103C23.7818 24.3454 23.9235 24.2502 24.0427 24.1302C24.1676 24.0054 24.2939 23.8798 24.4216 23.7564C24.666 23.5187 24.8059 23.1937 24.8106 22.8528C24.8152 22.5119 24.6843 22.1832 24.4466 21.9389C24.2089 21.6945 23.8839 21.5546 23.543 21.5499C23.2021 21.5452 22.8734 21.6762 22.629 21.9139C22.4924 22.0466 22.3571 22.1805 22.2229 22.3156C22.0438 22.4956 21.9221 22.7246 21.8729 22.9737C21.8238 23.2228 21.8495 23.4808 21.9468 23.7154C22.0441 23.9499 22.2087 24.1503 22.4197 24.2915C22.6308 24.4326 22.8789 24.5081 23.1328 24.5084ZM65.4328 69.0365C65.7476 69.0368 66.0515 68.921 66.2862 68.7112C66.6475 68.391 66.9995 68.062 67.3422 67.7242C67.4627 67.6059 67.5588 67.465 67.6249 67.3096C67.691 67.1542 67.7259 66.9873 67.7275 66.8184C67.7291 66.6495 67.6974 66.482 67.6343 66.3254C67.5711 66.1687 67.4777 66.0261 67.3595 65.9055C67.2412 65.785 67.1003 65.6889 66.9449 65.6228C66.7895 65.5567 66.6226 65.5218 66.4537 65.5202C66.2848 65.5186 66.1173 65.5503 65.9606 65.6134C65.804 65.6766 65.6613 65.77 65.5408 65.8883C65.227 66.1957 64.906 66.4956 64.578 66.7879C64.3821 66.9608 64.2435 67.1894 64.1808 67.4432C64.1181 67.6969 64.1343 67.9637 64.2272 68.208C64.3201 68.4523 64.4852 68.6625 64.7006 68.8106C64.916 68.9586 65.1715 69.0374 65.4328 69.0365ZM69.2398 63.6565C69.3794 63.7515 69.5363 63.8181 69.7015 63.8525C69.8668 63.8869 70.0373 63.8884 70.2031 63.8569C70.369 63.8254 70.527 63.7615 70.6682 63.6689C70.8093 63.5763 70.9309 63.4568 71.0258 63.3172C75.021 57.4283 76.7127 50.2765 75.7793 43.2217C74.8458 36.167 71.3523 29.7013 65.9631 25.054C60.5738 20.4068 53.6647 17.9021 46.5494 18.0162C39.434 18.1304 32.6088 20.8554 27.3714 25.6731C22.134 30.4909 18.8497 37.0653 18.143 44.1464C17.4364 51.2274 19.3566 58.3213 23.5386 64.079C27.7206 69.8368 33.8728 73.8569 40.8252 75.3749C47.7776 76.893 55.0455 75.8031 61.2469 72.3126C61.3939 72.2297 61.5232 72.1186 61.6273 71.9858C61.7314 71.853 61.8083 71.7009 61.8537 71.5383C61.899 71.3758 61.9119 71.2059 61.8916 71.0383C61.8713 70.8708 61.8181 70.7088 61.7352 70.5618C61.6524 70.4148 61.5413 70.2855 61.4085 70.1814C61.2756 70.0773 61.1236 70.0004 60.961 69.955C60.7984 69.9097 60.6285 69.8968 60.461 69.9171C60.2934 69.9375 60.1315 69.9906 59.9845 70.0735C54.3264 73.2602 47.6944 74.2564 41.3497 72.8725C35.005 71.4886 29.3902 67.8212 25.5731 62.5677C21.7559 57.3142 20.0027 50.841 20.6467 44.3792C21.2908 37.9174 24.2872 31.9176 29.0662 27.5209C33.8451 23.1241 40.0733 20.6371 46.5663 20.5327C53.0593 20.4284 59.3643 22.7139 64.2821 26.9548C69.1999 31.1957 72.3876 37.096 73.239 43.5338C74.0904 49.9716 72.5461 56.4977 68.8998 61.8712C68.7082 62.1531 68.6363 62.4995 68.7001 62.8343C68.7639 63.1691 68.958 63.4648 69.2398 63.6565ZM34.4664 44.1221L42.7076 52.6152C42.8247 52.738 42.965 52.8363 43.1203 52.9046C43.2757 52.9729 43.443 53.0098 43.6126 53.0131C43.7823 53.0164 43.9509 52.986 44.1088 52.9238C44.2667 52.8616 44.4107 52.7687 44.5324 52.6506C44.6542 52.5324 44.7514 52.3913 44.8184 52.2354C44.8854 52.0795 44.9208 51.9119 44.9227 51.7422C44.9245 51.5725 44.8927 51.4041 44.8292 51.2468C44.7656 51.0895 44.6715 50.9463 44.5523 50.8255L36.3104 42.3339C35.8923 41.9031 35.3935 41.5588 34.8423 41.3208C34.2911 41.0827 33.6985 40.9556 33.0982 40.9466C32.4979 40.9376 31.9017 41.0469 31.3436 41.2683C30.7856 41.4897 30.2766 41.8189 29.8457 42.237C29.4149 42.6551 29.0706 43.154 28.8326 43.7051C28.5945 44.2563 28.4674 44.8489 28.4584 45.4492C28.4494 46.0496 28.5587 46.6458 28.7801 47.2038C29.0015 47.7619 29.3307 48.2708 29.7488 48.7017L40.4325 59.71C40.8595 60.1478 41.3696 60.4961 41.9329 60.7345C42.4962 60.9728 43.1013 61.0964 43.7129 61.0979H43.7915C44.4165 61.0862 45.0325 60.9469 45.6018 60.6887C46.1711 60.4305 46.6816 60.0587 47.1021 59.5961L64.3599 40.545C65.158 39.6436 65.5685 38.4639 65.5023 37.2618C65.436 36.0597 64.8984 34.9323 64.0061 34.124C63.1138 33.3158 61.9388 32.8921 60.736 32.9448C59.5333 32.9975 58.3998 33.5224 57.5816 34.4056L46.9537 46.1372C46.7249 46.3899 46.6058 46.723 46.6226 47.0635C46.6394 47.4039 46.7907 47.7238 47.0433 47.9526C47.296 48.1815 47.6291 48.3006 47.9696 48.2838C48.31 48.267 48.6299 48.1156 48.8587 47.863L59.4844 36.1314C59.8428 35.7453 60.3389 35.516 60.8652 35.4931C61.3915 35.4703 61.9056 35.6557 62.2961 36.0092C62.6866 36.3628 62.9221 36.8559 62.9516 37.3819C62.9811 37.9079 62.8021 38.4243 62.4535 38.8192L45.1971 57.8689C45.0133 58.0717 44.7899 58.2348 44.5406 58.3479C44.2913 58.461 44.0215 58.5218 43.7478 58.5266C43.4741 58.5313 43.2023 58.4799 42.9493 58.3755C42.6962 58.2711 42.4672 58.1159 42.2765 57.9196L31.5936 46.9113C31.4103 46.7226 31.266 46.4998 31.1689 46.2554C31.0718 46.011 31.0238 45.7498 31.0276 45.4869C31.0315 45.2239 31.087 44.9643 31.1912 44.7228C31.2953 44.4814 31.446 44.2628 31.6347 44.0795C31.8233 43.8963 32.0462 43.752 32.2906 43.6549C32.535 43.5578 32.7961 43.5098 33.0591 43.5136C33.322 43.5174 33.5816 43.573 33.8231 43.6772C34.0646 43.7813 34.2832 43.932 34.4664 44.1206V44.1221Z" fill="url(#paint0_linear)"/>
<defs>
<linearGradient id="paint0_linear" x1="71.7205" y1="71.7207" x2="22.2685" y2="22.2686" gradientUnits="userSpaceOnUse">
<stop stop-color="#D7A7FF"/>
<stop offset="1" stop-color="#5BCDE2"/>
</linearGradient>
</defs>
</svg>
