<svg width="77" height="77" viewBox="0 0 77 77" fill="none" xmlns="http://www.w3.org/2000/svg">
<path d="M38.5 77C59.763 77 77 59.763 77 38.5C77 17.237 59.763 0 38.5 0C17.237 0 0 17.237 0 38.5C0 59.763 17.237 77 38.5 77Z" fill="#FD9827"/>
<path d="M77 38.5C77 34.0388 76.2386 29.756 74.8431 25.7713L58.9513 9.87964C58.9513 9.87964 48.1506 12.9583 46.4456 17.4956L39.4972 10.8062L35.4419 16.0929L30.1389 10.8062L26.6441 16.0929L20.8899 10.8062H16.0432L21.2051 28.9887C21.2051 31.9397 19.4372 36.363 19.4372 36.363L24.3861 41.3347L24.8166 67.9546L33.5455 76.6836C35.1676 76.8919 36.8212 77 38.5 77C59.763 77 77 59.763 77 38.5Z" fill="#EA7B0C"/>
<path d="M22.7885 37.1995H32.752V50.2835H22.7885V37.1995Z" fill="#FFE780"/>
<path d="M27.7711 37.1992H32.7521V50.2831H27.7711V37.1992Z" fill="#FBBE2C"/>
<path d="M27.7703 68.9251C25.0189 68.9251 22.7885 66.6946 22.7885 63.9432V45.9224H32.752V63.9434C32.7521 66.6948 30.5217 68.9251 27.7703 68.9251Z" fill="#605553"/>
<path d="M48.9878 37.1995H58.9513V50.2835H48.9878V37.1995Z" fill="#FFE780"/>
<path d="M53.9691 37.1992H58.9516V50.2831H53.9691V37.1992Z" fill="#FBBE2C"/>
<path d="M53.9696 68.9251C51.2182 68.9251 48.9878 66.6946 48.9878 63.9432V45.9224H58.9513V63.9434C58.9513 66.6948 56.721 68.9251 53.9696 68.9251Z" fill="#605553"/>
<path d="M58.9516 45.9218V63.9431C58.9516 66.6953 56.7213 68.9256 53.9691 68.9256V45.9218H58.9516Z" fill="#4C403F"/>
<path d="M58.9513 37.9516H50.6022C47.5511 37.9516 45.0778 35.4781 45.0778 32.4271V21.8583C45.0778 15.2426 50.4408 9.87964 57.0564 9.87964H58.9513V37.9516Z" fill="#EEF9FF"/>
<path d="M34.6507 10.806V23.4388C34.6507 24.6846 33.6407 25.6946 32.3949 25.6946C31.149 25.6946 30.139 24.6846 30.139 23.4388V10.806H25.4017V23.4388C25.4017 24.6846 24.3917 25.6946 23.1458 25.6946C21.9 25.6946 20.89 24.6846 20.89 23.4388V10.806H16.0433V28.9885C16.0433 34.3538 20.3928 38.7034 25.7583 38.7034H29.7824C35.1478 38.7034 39.4974 34.354 39.4974 28.9885V10.806H34.6507Z" fill="#EEF9FF"/>
<path d="M39.4971 10.8055V28.9893C39.4971 33.3175 36.6652 36.9855 32.7521 38.2398C31.8166 38.5406 30.818 38.703 29.7818 38.703H27.7711V10.8055H30.1398V23.4384C30.1398 24.6851 31.1489 25.6942 32.3941 25.6942H32.3956C33.6409 25.6942 34.6515 24.6851 34.6515 23.4384V10.8055H39.4971Z" fill="#D2EBFF"/>
<path d="M32.7521 45.9218V63.9431C32.7521 66.6953 30.5218 68.9256 27.7711 68.9256V45.9218H32.7521Z" fill="#4C403F"/>
<path d="M58.9516 9.87921V37.9511H53.9691V10.2823C54.9542 10.0191 55.9889 9.87921 57.0566 9.87921H58.9516Z" fill="#D2EBFF"/>
</svg>
