<svg width="40" height="40" viewBox="0 0 40 40" fill="none" xmlns="http://www.w3.org/2000/svg">
<path fill-rule="evenodd" clip-rule="evenodd" d="M19.1777 0.0783271C17.9966 0.395113 17.1805 1.05279 15.1671 3.31108C14.8563 3.65957 14.3912 4.10324 14.1333 4.29697C13.4635 4.80029 13.1207 4.84577 10.4894 4.7808C8.16406 4.72342 7.65284 4.7772 6.79596 5.16929C6.2098 5.43754 5.4862 6.14603 5.19668 6.73506C4.76503 7.61364 4.70637 8.12517 4.7651 10.5026C4.83081 13.1624 4.78907 13.4628 4.2553 14.1675C4.04636 14.4434 3.60163 14.9108 3.267 15.206C0.640824 17.5236 0 18.4656 0 20.0089C0 21.5626 0.565958 22.3917 3.29958 24.842C3.64744 25.1539 4.0899 25.6188 4.28278 25.8754C4.78437 26.5422 4.83002 26.8872 4.7651 29.5152C4.72101 31.3002 4.73245 31.7253 4.83793 32.2201C5.17757 33.8139 6.18881 34.8247 7.78339 35.1642C8.2784 35.2697 8.70371 35.2811 10.4894 35.237C13.1504 35.1713 13.451 35.2131 14.156 35.7466C14.432 35.9554 14.8996 36.4 15.195 36.7345C17.5136 39.3595 18.456 40 20 40C21.5533 40 22.4305 39.4032 24.807 36.7298C25.1034 36.3963 25.5709 35.9532 25.846 35.7451C26.5488 35.2133 26.8512 35.1713 29.5106 35.237C31.8359 35.2944 32.3472 35.2406 33.204 34.8485C33.8002 34.5757 34.4917 33.8928 34.7947 33.2774C35.2278 32.3981 35.29 31.8466 35.2358 29.363C35.1792 26.7769 35.2167 26.5194 35.7485 25.8303C35.9369 25.5863 36.3889 25.1189 36.7531 24.7917C39.4553 22.3636 40 21.5612 40 20.0089C40 18.4591 39.3987 17.5775 36.7053 15.1781C36.3566 14.8675 35.9128 14.4026 35.7189 14.1448C35.2154 13.4753 35.1699 13.1327 35.2349 10.5026C35.279 8.71765 35.2676 8.29253 35.1621 7.79774C34.8215 6.19933 33.8251 5.20741 32.208 4.85673C31.7196 4.75082 31.2809 4.73877 29.3974 4.77931C26.7496 4.83638 26.5339 4.80444 25.8104 4.24797C25.5487 4.04672 25.0946 3.61197 24.8013 3.28188C23.0518 1.31306 22.1271 0.517929 21.2138 0.197073C20.6298 -0.00816869 19.7019 -0.0622579 19.1777 0.0783271ZM20.5153 2.62342C20.9393 2.8159 21.7178 3.55358 22.6212 4.619C23.6099 5.78493 24.4551 6.49326 25.3332 6.89177C26.1497 7.26233 26.8706 7.33513 29.4831 7.31094C31.7583 7.28996 31.8763 7.29607 32.1356 7.44824C32.6623 7.75759 32.7262 7.97919 32.7213 9.48069C32.7189 10.2126 32.7066 11.2869 32.6939 11.8681C32.6625 13.3072 32.8627 14.3097 33.3353 15.0805C33.8487 15.9179 34.4505 16.5925 35.3968 17.3914C36.8739 18.6384 37.5384 19.4506 37.5384 20.0089C37.5384 20.5662 36.8782 21.3739 35.3968 22.6289C34.5183 23.3732 34.1172 23.7954 33.6097 24.5098C32.9068 25.4993 32.6749 26.422 32.7043 28.1105C32.7579 31.1849 32.735 31.8519 32.5663 32.1391C32.4786 32.2882 32.2847 32.4819 32.1356 32.5696C31.8482 32.7383 31.1798 32.7608 28.1053 32.7051C26.4226 32.6746 25.4957 32.9081 24.5029 33.6125C23.7882 34.1198 23.3658 34.5207 22.6212 35.3988C21.3656 36.8796 20.5576 37.5394 20 37.5394C19.4415 37.5394 18.6289 36.8753 17.3813 35.3988C16.25 34.0601 15.0607 33.1607 14.038 32.8704C13.6005 32.7463 13.2076 32.7289 10.8375 32.7289C8.26125 32.7289 8.12318 32.7215 7.86444 32.5696C7.71526 32.4819 7.52144 32.2882 7.43373 32.1391C7.28149 31.8799 7.27538 31.762 7.29637 29.4878C7.32973 25.8932 7.2002 25.4171 5.71267 23.6661C5.53788 23.4604 5.03269 22.988 4.59 22.6165C3.15549 21.4127 2.46165 20.5626 2.46165 20.0089C2.46165 19.4516 3.12181 18.6439 4.60323 17.3889C5.76969 16.4007 6.47833 15.5558 6.87701 14.6781C7.24774 13.8619 7.32057 13.1414 7.29637 10.53C7.27538 8.25582 7.28149 8.13793 7.43373 7.87876C7.52144 7.72964 7.71526 7.53591 7.86444 7.44824C8.12389 7.29591 8.24136 7.28988 10.5386 7.31117C12.6747 7.33098 13.025 7.31634 13.694 7.17975C15.0217 6.90868 16.0919 6.14931 17.5119 4.47098C18.6564 3.11828 19.4554 2.47837 20 2.47837C20.1077 2.47837 20.3396 2.54365 20.5153 2.62342ZM14.0571 11.3657C12.0715 11.8994 10.843 13.9544 11.349 15.8961C11.8729 17.9066 13.9258 19.1468 15.8854 18.6366C17.8909 18.1145 19.1374 16.0606 18.6302 14.1141C18.1015 12.0853 16.0244 10.8368 14.0571 11.3657ZM25.7951 12.5807C25.6874 12.6226 22.683 15.5705 19.1187 19.1313C14.5245 23.7211 12.6135 25.6802 12.5535 25.8617C12.3574 26.4549 12.7995 27.2681 13.4188 27.4536C14.1397 27.6695 13.7023 28.0541 20.8438 20.9235C27.7847 13.9933 27.6044 14.1933 27.485 13.557C27.4253 13.2388 27.0581 12.7788 26.727 12.6078C26.4783 12.4792 26.0845 12.4677 25.7951 12.5807ZM15.4837 13.8535C16.2883 14.1896 16.4844 15.244 15.8587 15.8695C15.3507 16.3772 14.6254 16.3772 14.1174 15.8695C13.149 14.9014 14.2175 13.3248 15.4837 13.8535ZM24.081 21.3851C22.0954 21.9189 20.8669 23.9739 21.3729 25.9155C21.8968 27.9261 23.9496 29.1663 25.9092 28.6561C27.9148 28.1339 29.1613 26.0801 28.6541 24.1335C28.1254 22.1047 26.0482 20.8563 24.081 21.3851ZM25.5076 23.873C26.3122 24.209 26.5083 25.2634 25.8826 25.8889C25.0028 26.7683 23.561 25.9806 23.7925 24.7469C23.9309 24.01 24.7888 23.5728 25.5076 23.873Z" fill="#6346BF"/>
</svg>
