<svg width="72" height="72" viewBox="0 0 72 72" fill="none" xmlns="http://www.w3.org/2000/svg">
<g clip-path="url(#clip0)">
<path d="M60.5754 28.1117C60.5754 28.1117 70.9455 38.8419 70.9455 55.2886C70.9455 55.2886 61.9198 58.5836 48.1788 58.5836C42.7772 58.5836 38.1026 58.0745 34.4209 57.4557C28.7366 56.5022 25.4121 55.2886 25.4121 55.2886C25.4121 38.8419 35.7822 28.1117 35.7822 28.1117V21.4037L30.1907 16.8121L25.4121 12.8885L34.5376 4.70801C35.6556 3.70532 37.0352 3.15826 38.4373 3.06404C39.0912 3.02045 39.748 3.07529 40.3879 3.22858C41.4215 3.47609 42.4045 3.98095 43.2398 4.74036L44.213 5.62633C46.4603 7.67391 49.8973 7.67391 52.146 5.62633L53.1191 4.74036C53.9545 3.98095 54.9375 3.47609 55.9711 3.22858C57.9835 2.74622 60.1816 3.23842 61.8199 4.70801L70.9455 12.8885L60.5754 21.4037V28.1117Z" fill="#80B4FB"/>
<path d="M38.9816 16.5241V28.763C38.9816 28.763 34.7486 41.6223 34.7486 47.9113C34.7486 50.4145 34.5995 54.0217 34.4209 57.4558C28.7366 56.5024 25.4121 55.2887 25.4121 55.2887C25.4121 38.842 35.7822 28.1119 35.7822 28.1119V14.8589H37.3163C38.2361 14.8587 38.9816 15.6044 38.9816 16.5241Z" fill="#61A2F9"/>
<path d="M38.4383 3.06404C35.26 6.02431 31.5755 12.2528 30.1917 16.8121L25.4131 12.8885L34.5386 4.70801C35.6566 3.70532 37.0362 3.15826 38.4383 3.06404Z" fill="#61A2F9"/>
<path d="M55.9712 3.22858C55.6351 4.81067 52.9997 16.4422 48.1789 18.1312C43.3581 16.4422 40.724 4.81067 40.3879 3.22858C41.4216 3.47609 42.4046 3.98095 43.2399 4.74035L44.2131 5.62633C46.4604 7.67391 49.8974 7.67391 52.1461 5.62633L53.1192 4.74035C53.9546 3.98095 54.9376 3.47609 55.9712 3.22858Z" fill="#61A2F9"/>
<path d="M39.6671 44.0064C28.4492 43.4205 17.2314 43.4205 6.01341 44.0064C3.73379 44.1255 1.86158 45.8544 1.5723 48.1187C0.878569 53.5487 0.878569 58.9786 1.5723 64.4086C1.86158 66.6729 3.73379 68.402 6.01341 68.5209C17.2314 69.1068 28.4492 69.1068 39.6671 68.5209C41.9468 68.4018 43.819 66.6729 44.1082 64.4086C44.802 58.9786 44.802 53.5487 44.1082 48.1187C43.8188 45.8544 41.9466 44.1255 39.6671 44.0064Z" fill="#DB5B6F"/>
<path d="M8.05951 68.6212C7.37745 68.5903 6.6954 68.5565 6.01334 68.5213C3.73372 68.4018 1.86193 66.6735 1.57223 64.4079C0.878919 58.9782 0.878919 53.5484 1.57223 48.1187C1.86193 45.8545 3.73372 44.1248 6.01334 44.0066C6.6954 43.9715 7.37745 43.9377 8.05951 43.9068C6.61242 44.6226 5.56051 46.0261 5.34534 47.7122C4.61688 53.4134 4.61688 59.1146 5.34534 64.8143C5.56051 66.5005 6.61242 67.904 8.05951 68.6212Z" fill="#D54653"/>
<path d="M44.1074 55.3146C43.8185 57.5788 41.9463 59.3072 39.6667 59.4259C28.4493 60.0131 17.2319 60.0131 6.01282 59.4259C3.73306 59.3072 1.86098 57.5788 1.57199 55.3146C1.41983 54.1226 1.30184 52.9305 1.2145 51.7385C1.00468 54.6951 1.00004 57.6517 1.20157 60.6084C2.05041 61.8947 3.47809 62.7559 5.10308 62.8406C16.9286 63.4594 28.7524 63.4594 40.5763 62.8406C42.202 62.7559 43.6302 61.894 44.4788 60.6068C44.6803 57.6485 44.6755 54.6903 44.4653 51.7322C44.3795 52.9263 44.2614 54.1205 44.1074 55.3146Z" fill="#D54653"/>
<path d="M28.5199 63.1195C25.1296 63.305 21.7394 63.305 18.3491 63.1195C16.8653 63.0383 15.6825 61.8639 15.5631 60.3828C15.3992 58.3498 15.3992 56.3169 15.5631 54.2839C15.6825 52.8028 16.8653 51.6284 18.349 51.5472C21.7393 51.3618 25.1294 51.3618 28.5198 51.5472C30.0034 51.6284 31.1864 52.8028 31.3057 54.2839C31.4695 56.3169 31.4695 58.3498 31.3057 60.3828C31.1865 61.8639 30.0037 63.0383 28.5199 63.1195Z" fill="#FFD064"/>
<path d="M23.4345 59.5111C22.0472 59.5111 20.6433 59.4781 19.2512 59.413C19.1669 58.0302 19.1669 56.6365 19.2512 55.2537C20.6433 55.1886 22.0472 55.1555 23.4345 55.1555C24.8217 55.1555 26.2256 55.1886 27.6176 55.2537C27.7018 56.6365 27.7018 58.0302 27.6176 59.413C26.2256 59.4781 24.8217 59.5111 23.4345 59.5111Z" fill="#DB5B6F"/>
<path d="M66.6854 35.026C64.5361 31.0978 62.3995 28.5593 61.6298 27.6999V21.902L71.6146 13.7034C71.8523 13.508 71.993 13.2188 71.9996 12.9111C72.0064 12.6034 71.8783 12.3082 71.6492 12.1029L64.0945 5.3315C63.6608 4.94279 62.9939 4.97936 62.6051 5.41292C62.2163 5.84663 62.2528 6.5135 62.6865 6.90234L69.3258 12.8533L61.6303 19.1722V14.8588C61.6303 14.2763 61.1582 13.8041 60.5755 13.8041C59.9929 13.8041 59.5208 14.2763 59.5208 14.8588L59.5202 27.2198C51.9893 28.4386 44.3674 28.4385 36.8365 27.2195V14.8588C36.8365 14.2763 36.3644 13.8041 35.7818 13.8041C35.1992 13.8041 34.7271 14.2763 34.7271 14.8588V19.1726L27.0309 12.8533L35.2414 5.49308C36.4492 4.40995 38.0091 3.95979 39.5102 4.13811C39.8193 5.46594 40.5292 8.25113 41.6194 11.0258C43.4107 15.5851 45.5002 18.3108 47.8296 19.1269C47.9426 19.1664 48.0604 19.1863 48.1782 19.1863C48.2961 19.1863 48.4141 19.1664 48.5269 19.1269C50.8563 18.3108 52.9459 15.5851 54.7377 11.0259C55.826 8.25647 56.5351 5.4786 56.8454 4.14753C57.7747 4.03643 58.7344 4.16075 59.6266 4.5427C60.1625 4.77207 60.7821 4.52357 61.0113 3.98819C61.2407 3.45267 60.9924 2.83277 60.457 2.60355C57.7474 1.44349 54.5886 1.97633 52.4087 3.96049L51.4354 4.84646C49.5784 6.5374 46.7788 6.5374 44.9225 4.84646L43.9493 3.96049C41.0754 1.3442 36.7263 1.32803 33.8331 3.92266L24.7074 12.1031C24.4782 12.3085 24.3502 12.6038 24.357 12.9113C24.3636 13.219 24.5044 13.5083 24.742 13.7037L34.7268 21.9023V27.6993C34.0353 28.4689 32.2583 30.5703 30.3643 33.7927C28.7603 32.938 27.0638 32.094 25.3455 31.2397C23.8438 30.493 22.3314 29.7409 20.8795 28.9771C22.2984 27.2002 23.393 25.1889 23.8727 22.831C24.6056 19.2276 23.5335 16.0089 20.9311 14C18.464 12.0955 15.0665 11.671 12.4765 12.9435C11.0882 13.6256 8.75924 15.3959 8.75924 19.5872C8.75924 22.2403 10.4441 24.7485 13.9105 27.2551C14.9948 28.0391 16.2138 28.7985 17.5112 29.5395C15.9027 31.1217 14.0567 32.53 12.3127 33.8601C8.558 36.7239 4.99569 39.4431 4.90358 43.1068C2.60652 43.6575 0.834154 45.573 0.52561 47.9857C-0.175854 53.4787 -0.175854 59.0491 0.52561 64.5424C0.879999 67.3121 3.16454 69.4289 5.95802 69.5753C11.5591 69.8674 17.1995 70.0134 22.84 70.0134C28.4804 70.0134 34.1212 69.8672 39.7224 69.5753C42.5166 69.4288 44.8004 67.3119 45.1531 64.5424C45.3632 62.9001 45.5091 61.2508 45.5936 59.5988C46.4517 59.6246 47.317 59.6384 48.1782 59.6384C61.9474 59.6384 70.9309 56.4166 71.3066 56.2795C71.7227 56.1275 71.9996 55.7318 71.9996 55.2888C71.9999 46.5694 69.11 39.4572 66.6854 35.026ZM43.5024 6.40549C46.1677 8.83404 50.189 8.83404 52.8559 6.40577L53.8291 5.51994C54.0268 5.33993 54.2359 5.17666 54.454 5.03013C54.0877 6.42743 53.5257 8.34352 52.7749 10.254C51.0167 14.7279 49.3567 16.4043 48.1787 16.9881C47.0008 16.4043 45.3407 14.7279 43.583 10.254C42.8323 8.34324 42.2702 6.42588 41.9039 5.02802C42.121 5.17469 42.3303 5.33839 42.5297 5.5198L43.5024 6.40549ZM10.8693 19.5866C10.8693 17.2947 11.7468 15.6519 13.4072 14.8361C14.1017 14.495 14.8952 14.3295 15.712 14.3295C17.077 14.3295 18.5063 14.792 19.6426 15.6691C20.7836 16.5497 22.5817 18.5966 21.8061 22.4098C21.381 24.5001 20.3409 26.3186 18.9835 27.949C14.425 25.3944 10.8693 22.6823 10.8693 19.5866ZM6.068 45.06C7.94809 44.9624 9.82888 44.8809 11.6582 44.8176C12.2404 44.7973 12.6959 44.3092 12.6757 43.727C12.6554 43.1446 12.1709 42.691 11.5851 42.7094C10.0933 42.761 8.56728 42.8253 7.03554 42.8998C7.30723 40.3327 10.245 38.0898 13.5924 35.5368C15.5589 34.0368 17.6464 32.4446 19.4407 30.6008C21.057 31.4622 22.7445 32.3015 24.4066 33.128C26.0703 33.9553 27.7475 34.7894 29.3381 35.6381C28.2932 37.6234 27.2657 39.9336 26.4151 42.5364C22.867 42.4969 19.3248 42.5122 15.809 42.5894C15.2266 42.6022 14.7649 43.0846 14.7777 43.6671C14.7905 44.2496 15.2704 44.716 15.8552 44.6983C23.7178 44.5258 31.7111 44.6476 39.613 45.06C41.3872 45.152 42.8374 46.4945 43.0613 48.2526C43.2094 49.4102 43.3233 50.5713 43.4068 51.7345C43.3216 52.9017 43.2058 54.0605 43.0613 55.1816C42.8375 56.9384 41.3869 58.2801 39.6113 58.3722C37.2231 58.497 34.824 58.5942 32.4587 58.6652C32.5093 57.1758 32.4766 55.6802 32.3572 54.1992C32.1959 52.196 30.5709 50.6031 28.5776 50.4941C25.1646 50.3074 21.7037 50.3072 18.2916 50.4941C16.2982 50.6031 14.6733 52.196 14.5119 54.1992C14.3916 55.6914 14.3591 57.1986 14.4115 58.6994C11.6339 58.6254 8.83364 58.5171 6.068 58.3722C4.29296 58.2803 2.84222 56.9385 2.61861 55.1812C2.47714 54.0733 2.36112 52.9183 2.2728 51.7472C2.35634 50.5798 2.47025 49.4144 2.61861 48.2526C2.84334 46.4947 4.29409 45.152 6.068 45.06ZM31.1943 36.6613C34.6112 38.6166 37.3721 40.6621 38.2998 42.8859C35.0841 42.7323 31.8565 42.6259 28.6299 42.5681C29.3903 40.3662 30.285 38.3866 31.1943 36.6613ZM30.2545 60.2979C30.1774 61.2543 29.4069 62.0144 28.4623 62.0662C28.4621 62.0662 28.4621 62.0662 28.4621 62.0662C25.126 62.2487 21.7431 62.2487 18.4066 62.0662C17.462 62.0144 16.6915 61.2543 16.6144 60.2979C16.4559 58.3308 16.4559 56.3358 16.6144 54.3686C16.6915 53.4122 17.462 52.6521 18.4068 52.6004C20.0748 52.5091 21.7546 52.4634 23.4345 52.4634C25.1143 52.4634 26.7941 52.5091 28.4623 52.6004C29.4069 52.6521 30.1774 53.4122 30.2545 54.3686C30.413 56.3358 30.413 58.3308 30.2545 60.2979ZM39.6127 67.4682C28.4834 68.0485 17.1976 68.0485 6.0687 67.4682C4.29451 67.3751 2.84334 66.032 2.61861 64.2745C2.38601 62.4528 2.23497 60.6222 2.16185 58.7889C3.14429 59.7739 4.47986 60.4023 5.95831 60.4789C8.80762 60.6282 11.6942 60.7391 14.5553 60.8135C14.8646 62.6512 16.4145 64.0699 18.2915 64.1726C19.9979 64.2659 21.7162 64.3126 23.4345 64.3126C25.1527 64.3126 26.8712 64.2659 28.5773 64.1726C30.4658 64.0692 32.0228 62.6338 32.3186 60.7799C34.7649 60.708 37.249 60.6081 39.7207 60.4789C41.2 60.4023 42.5362 59.7735 43.5187 58.7882C43.4455 60.6218 43.2942 62.4528 43.0611 64.2749C42.8372 66.0323 41.3869 67.3751 39.6127 67.4682ZM66.4288 55.4732C66.2119 52.3024 65.8109 49.1431 65.2329 46.0641C65.1255 45.4916 64.5748 45.1149 64.0017 45.2222C63.4292 45.3296 63.0522 45.8809 63.1598 46.4534C63.7418 49.5544 64.138 52.7399 64.3439 55.9351C63.5317 56.1015 62.6109 56.2743 61.5917 56.4425C61.4642 52.2008 61.0115 47.9773 60.2411 43.87C60.1337 43.2975 59.5824 42.9208 59.01 43.0278C58.4375 43.1352 58.0605 43.6864 58.1679 44.2589C58.9334 48.3409 59.3776 52.5417 59.4911 56.7598C56.3462 57.1914 52.5056 57.5286 48.1784 57.5286C47.3418 57.5286 46.5012 57.5154 45.6676 57.4905C45.7272 54.3162 45.5566 51.1382 45.1534 47.986C44.8372 45.5023 42.9689 43.5459 40.5731 43.0622C39.7988 39.8393 36.4897 37.2503 32.2246 34.8162C33.9103 31.963 35.4875 30.0383 36.1761 29.2487C40.1599 29.9116 44.1694 30.244 48.179 30.244C52.1882 30.244 56.1974 29.9117 60.1811 29.2488C60.9725 30.1539 62.9316 32.5469 64.8691 36.1021C67.0891 40.1757 69.7223 46.6323 69.8825 54.5304C69.1965 54.7468 68.0202 55.0932 66.4288 55.4732Z" fill="black"/>
<path d="M27.6668 54.2001C26.258 54.1342 24.8341 54.1008 23.4344 54.1008C22.0346 54.1008 20.6105 54.1342 19.2017 54.2001C18.6637 54.2253 18.2311 54.6518 18.1982 55.1896C18.1117 56.6119 18.1117 58.0545 18.1982 59.477C18.2309 60.0148 18.6637 60.4413 19.2017 60.4665C20.6094 60.5323 22.0336 60.5658 23.4344 60.5658C24.8351 60.5658 26.2591 60.5324 27.6668 60.4665C28.2049 60.4413 28.6375 60.0148 28.6704 59.477C28.7568 58.0545 28.7568 56.6121 28.6704 55.1896C28.6376 54.652 28.205 54.2253 27.6668 54.2001ZM26.6089 58.3991C24.4889 58.4751 22.3797 58.4751 20.2599 58.3991C20.2373 57.6896 20.2373 56.9771 20.2599 56.2677C22.3811 56.1914 24.4877 56.1914 26.6089 56.2677C26.6315 56.9771 26.6315 57.6896 26.6089 58.3991Z" fill="black"/>
</g>
<defs>
<clipPath id="clip0">
<rect width="72" height="72" fill="white"/>
</clipPath>
</defs>
</svg>
