<svg width="33" height="32" viewBox="0 0 33 32" fill="none" xmlns="http://www.w3.org/2000/svg">
<ellipse cx="16.5" cy="16" rx="16.5" ry="16" fill="#6346BF"/>
<path d="M24.418 9.14453H9.58203C8.71079 9.14453 8 9.85455 8 10.7266V21.2734C8 22.1425 8.70763 22.8555 9.58203 22.8555H24.418C25.287 22.8555 26 22.1478 26 21.2734V10.7266C26 9.8575 25.2924 9.14453 24.418 9.14453ZM24.1995 10.1992L17.0335 17.3652L9.80559 10.1992H24.1995ZM9.05469 21.055V10.9399L14.134 15.9757L9.05469 21.055ZM9.80046 21.8008L14.883 16.7182L16.6639 18.4839C16.8701 18.6883 17.2027 18.6876 17.4081 18.4822L19.1445 16.7458L24.1995 21.8008H9.80046ZM24.9453 21.055L19.8903 16L24.9453 10.945V21.055Z" fill="white"/>
</svg>
