<svg width="14" height="15" viewBox="0 0 14 15" fill="none" xmlns="http://www.w3.org/2000/svg">
<g clip-path="url(#clip0)">
<path d="M8.69483 3.68363C8.71399 3.66051 8.80357 3.58498 9.15534 3.58498L10.3087 3.58453C10.6839 3.58453 10.989 3.25814 10.989 2.85691V0.701295C10.989 0.300751 10.6843 -0.0256348 10.3098 -0.0263214L8.59659 -0.0292969C7.53922 -0.0292969 6.64036 0.343667 5.99716 1.04943C5.35686 1.75198 5.01835 2.73274 5.01835 3.88551V5.04811H3.70778C3.33257 5.04811 3.02734 5.3745 3.02734 5.77573V8.09728C3.02734 8.49851 3.33257 8.8249 3.70778 8.8249H5.01835V14.2431C5.01835 14.6443 5.32358 14.9707 5.69879 14.9707H7.94515C8.32037 14.9707 8.62559 14.6443 8.62559 14.2431V8.82502H10.2276C10.6028 8.82502 10.9079 8.49851 10.9079 8.09751L10.9088 5.77585C10.9088 5.51229 10.7747 5.26841 10.5587 5.13944C10.4586 5.0797 10.3422 5.04811 10.2221 5.04811H8.62559V4.12961C8.62559 3.83023 8.66326 3.72186 8.69483 3.68363Z" fill="#6346BF"/>
</g>
<defs>
<clipPath id="clip0">
<rect width="14" height="15" fill="white"/>
</clipPath>
</defs>
</svg>
