<svg width="25" height="25" viewBox="0 0 25 25" fill="none" xmlns="http://www.w3.org/2000/svg">
<g clip-path="url(#clip0)">
<path d="M24.0711 0H1.02539C0.485993 0 0.0488281 0.437164 0.0488281 0.976563C0.0488281 3.69606 1.2146 6.29235 3.24726 8.09918L7.52411 11.9005C8.26569 12.5597 8.69103 13.5069 8.69103 14.4993V24.0223C8.69103 24.8005 9.56078 25.267 10.2091 24.8346L15.9706 20.9938C16.2422 20.8126 16.4055 20.5078 16.4055 20.1813V14.4993C16.4055 13.5069 16.8308 12.5597 17.5724 11.9005L21.8491 8.09918C23.8817 6.29235 25.0475 3.69606 25.0475 0.976563C25.0475 0.437164 24.6103 0 24.0711 0ZM20.5515 6.63929L16.2748 10.4408C15.1167 11.4704 14.4524 12.9496 14.4524 14.4991V19.6587L10.644 22.1975V14.4993C10.644 12.9496 9.97963 11.4704 8.82149 10.4408L4.54483 6.63948C3.17421 5.42088 2.29931 3.75118 2.06509 1.95293H23.0312C22.797 3.75118 21.9223 5.42088 20.5515 6.63929Z" fill="#32C1DB"/>
</g>
<defs>
<clipPath id="clip0">
<rect width="25" height="25" fill="white"/>
</clipPath>
</defs>
</svg>
