<svg width="75" height="75" viewBox="0 0 75 75" fill="none" xmlns="http://www.w3.org/2000/svg">
<g clip-path="url(#clip0)">
<path d="M43.8212 12.1657C40.4418 15.5457 40.4418 21.0251 43.8212 24.4046C47.2012 27.784 52.6806 27.784 56.0601 24.4046C59.4395 21.0251 62.5981 12.3871 59.2187 9.00766C55.8386 5.62764 47.2006 8.78621 43.8212 12.1657Z" fill="#77BC4D"/>
<path d="M43.8218 12.1662C41.7298 14.2565 40.9333 17.1524 41.4294 19.855C41.7355 18.1881 42.5326 16.5945 43.8218 15.3071C47.2007 11.9276 55.8387 8.76962 59.2181 12.1491C59.9311 12.8609 60.3528 13.8067 60.5434 14.8882C60.873 12.537 60.5657 10.3546 59.2181 9.00708C55.8387 5.62763 47.2007 8.78564 43.8218 12.1662Z" fill="#479838"/>
<path d="M27.3422 15.2418L26.4999 18.7117C26.1692 20.0741 25.4339 21.1727 24.4743 21.9567C22.2067 23.8095 18.6956 23.9016 16.3536 21.5578C14.0127 19.2175 14.102 15.7122 15.9491 13.4445C16.733 12.4821 17.8345 11.7428 19.1998 11.4115L22.6696 10.5692L27.3422 15.2418Z" fill="#F74F43"/>
<path d="M22.6695 10.5692L27.3422 15.2418L26.4999 18.7117C26.1691 20.0741 25.4339 21.1727 24.4743 21.9567C23.8797 21.1378 23.4357 20.1943 23.1839 19.1614L22.9608 18.239C22.249 17.9106 21.5944 17.458 21.0244 16.8869C20.4477 16.3096 19.9979 15.6533 19.6757 14.9517L18.7511 14.728C17.7159 14.4757 16.7695 14.0379 15.949 13.4445C16.7329 12.4821 17.8344 11.7428 19.1997 11.4115L22.6695 10.5692Z" fill="#CE2828"/>
<path d="M35.586 10.8433C34.8009 11.8057 33.7006 12.545 32.3341 12.8763L28.8654 13.7198L24.1917 9.04599L25.0351 5.57728C25.3664 4.21486 26.1017 3.1168 27.0613 2.33116C29.3272 0.480081 32.8382 0.387384 35.182 2.72999C37.5223 5.07031 37.4313 8.57564 35.586 10.8433Z" fill="#F74F43"/>
<path d="M35.586 10.8433C34.8009 11.8057 33.7006 12.545 32.3341 12.8763L28.8654 13.7198L24.1917 9.04599L25.0351 5.57728C25.3664 4.21486 26.1017 3.1168 27.0613 2.33117C27.6541 3.14999 28.0998 4.09356 28.3499 5.12753L28.5742 6.04878C29.2843 6.37723 29.9406 6.83099 30.5105 7.4009C31.0879 7.97826 31.5359 8.63572 31.8598 9.33724L32.7839 9.56155C33.8196 9.81332 34.7643 10.2516 35.586 10.8433Z" fill="#CE2828"/>
<path d="M16.353 2.72999C19.6879 -0.604249 25.3864 0.994492 26.5 5.57728L27.3422 9.04656L22.6696 13.7192L19.2003 12.8769C14.6175 11.7634 13.0188 6.0648 16.353 2.72999Z" fill="#FF7061"/>
<path d="M35.1813 21.5584C31.8465 24.8932 26.1479 23.2939 25.035 18.7117L24.1921 15.2424L28.8653 10.5692L32.3346 11.4121C36.9168 12.525 38.5162 18.2236 35.1813 21.5584Z" fill="#FF7061"/>
<path d="M30.5712 12.1445C30.5712 14.7972 28.4203 16.9482 25.7675 16.9482C23.1142 16.9482 20.9639 14.7972 20.9639 12.1445C20.9639 9.49118 23.1142 7.34083 25.7675 7.34083C28.4203 7.34083 30.5712 9.49118 30.5712 12.1445Z" fill="#FFD2BC"/>
<path d="M50.5607 37.884C48.0327 34.2625 43.8373 31.8913 39.0857 31.8913C34.3341 31.8913 30.1381 34.2625 27.6101 37.884H50.5607Z" fill="#CBD359"/>
<path d="M51.7542 73.755H27.0618C26.3265 73.755 25.7142 73.1913 25.6542 72.4583L23.3047 43.9488H55.5118L53.1624 72.4583C53.1023 73.1913 52.49 73.755 51.7542 73.755Z" fill="#D0DAAD"/>
<path d="M31.1588 73.755H27.0618C26.3276 73.755 25.7142 73.1913 25.6536 72.4583L23.3047 43.9488H27.4011L29.75 72.4583C29.8107 73.1913 30.4241 73.755 31.1588 73.755Z" fill="#B9C394"/>
<path d="M56.1115 46.4945H22.705C21.9251 46.4945 21.2922 45.8623 21.2922 45.0823V38.1575C21.2922 37.377 21.9251 36.7447 22.705 36.7447H56.1115C56.8914 36.7447 57.5237 37.377 57.5237 38.1575V45.0823C57.5237 45.8623 56.8914 46.4945 56.1115 46.4945Z" fill="#FFF0D0"/>
<path d="M26.8022 46.4945H22.7057C21.9247 46.4945 21.293 45.8617 21.293 45.0818V38.1575C21.293 37.3776 21.9247 36.7447 22.7057 36.7447H26.8022C26.0211 36.7447 25.3894 37.3776 25.3894 38.1575V45.0818C25.3894 45.8617 26.0211 46.4945 26.8022 46.4945Z" fill="#EAD2C1"/>
<path d="M53.9554 62.8367C53.3518 62.7863 52.8202 63.2367 52.7704 63.8415L52.0672 72.3685C52.054 72.5299 51.9167 72.6563 51.7542 72.6563H38.2559C37.6488 72.6563 37.1572 73.1484 37.1572 73.7549C37.1572 74.3615 37.6488 74.8536 38.2559 74.8536H51.7542C53.0514 74.8536 54.1506 73.8408 54.257 72.5487L54.9597 64.0217C55.01 63.4175 54.5603 62.8865 53.9554 62.8367Z" fill="black"/>
<path d="M56.1116 35.6461H50.1653C47.5646 32.8308 43.9923 31.1154 40.194 30.8344V29.8296C40.194 29.7982 40.1918 29.7667 40.1918 29.7352L43.9488 25.9775C45.7038 27.3463 47.8215 28.0335 49.9404 28.0335C52.4375 28.0335 54.9352 27.0825 56.8366 25.1816C60.3683 21.65 64.047 12.283 59.9952 8.23061C58.5613 6.79723 56.3096 6.21759 53.4818 6.55633C52.8793 6.62843 52.4495 7.17546 52.5216 7.77742C52.5932 8.37995 53.1425 8.80968 53.7427 8.73815C55.231 8.56019 57.2543 8.59682 58.4411 9.78414C59.657 10.9995 59.9008 13.4211 59.1111 16.4269C58.3804 19.2061 56.8778 22.0328 55.2831 23.6275C53.8097 25.1009 51.875 25.8374 49.9404 25.8368C48.3857 25.8368 46.8316 25.3601 45.5167 24.4097L53.4835 16.4423C53.9127 16.0132 53.9127 15.3174 53.4835 14.8888C53.0543 14.4596 52.3591 14.4596 51.93 14.8888L43.9414 22.8773C42.9326 21.5653 42.3844 19.9677 42.3844 18.2854C42.3844 16.2672 43.1707 14.3698 44.5977 12.9427C45.6506 11.8893 47.3197 10.8261 49.1765 10.025C49.7338 9.78471 49.9908 9.13812 49.7504 8.58079C49.5095 8.02404 48.8635 7.76712 48.3062 8.00744C46.173 8.92812 44.3042 10.1286 43.0442 11.3892C41.2023 13.2311 40.1877 15.6801 40.1877 18.2854C40.1877 20.5559 40.9585 22.7074 42.3764 24.4423L39.8341 26.9846C39.3352 25.0454 38.3264 23.2664 36.873 21.8136L36.6263 21.5664C37.963 19.7983 38.3979 17.5438 37.7839 15.3557C37.4314 14.098 36.7711 13.0017 35.8825 12.1422C37.0933 10.9703 37.8572 9.39046 38.0214 7.65954C38.2228 5.54582 37.4703 3.46643 35.958 1.95351C34.4285 0.42401 32.3262 -0.325578 30.1896 -0.104135C28.4787 0.0738209 26.9269 0.834854 25.771 2.02962C24.911 1.14041 23.8141 0.480087 22.5564 0.127036C20.0364 -0.58021 17.4271 0.103003 15.5766 1.95351C13.7261 3.80403 13.0429 6.41328 13.7502 8.93327C14.1032 10.191 14.7635 11.2879 15.6527 12.1473C14.4568 13.3043 13.6952 14.8585 13.5184 16.5705C13.2981 18.7054 14.0483 20.8065 15.5766 22.3349C16.9288 23.6876 18.7312 24.4309 20.608 24.4309C20.8466 24.4309 21.087 24.4189 21.3279 24.3943C23.0445 24.2203 24.6037 23.4581 25.7642 22.2588C26.6242 23.148 27.7205 23.8083 28.9782 24.1614C29.6328 24.345 30.2937 24.4349 30.9455 24.4349C32.4178 24.4349 33.8443 23.9748 35.0551 23.1016L35.32 23.3666C37.0463 25.0929 37.9968 27.388 37.9968 29.8296V30.8327C34.1916 31.1097 30.6113 32.8257 28.0061 35.6461H22.7052C21.3204 35.6461 20.1938 36.7722 20.1938 38.1569V45.0818C20.1938 46.3978 21.2117 47.4787 22.5015 47.5829L24.5591 72.5482C24.6655 73.8408 25.7653 74.8536 27.0619 74.8536H33.1988C33.8059 74.8536 34.2975 74.3615 34.2975 73.755C34.2975 73.1479 33.8059 72.6563 33.1988 72.6563H27.0619C26.9 72.6563 26.7621 72.5299 26.7489 72.3679L25.1233 52.6423H53.6935L53.1871 58.7849C53.1373 59.3897 53.5871 59.9202 54.1919 59.97C54.2228 59.9723 54.2531 59.974 54.2834 59.974C54.8488 59.974 55.3294 59.5391 55.3769 58.9652L56.3148 47.5829C57.6045 47.4787 58.6225 46.3984 58.6225 45.0823V38.1575C58.6225 36.7728 57.4964 35.6461 56.1116 35.6461ZM30.4162 2.08112C31.9137 1.92662 33.3299 2.43245 34.4045 3.50705C35.4676 4.57021 35.9757 5.97097 35.835 7.45126C35.7057 8.80739 35.0516 10.0256 34.024 10.8542C33.5736 10.639 33.0964 10.4662 32.594 10.3443L31.2734 10.0239C30.9867 9.27545 30.5432 8.57336 29.9413 7.97082C29.3387 7.36829 28.6366 6.92541 27.8882 6.63816L27.5678 5.31808C27.4453 4.81568 27.2725 4.33789 27.0574 3.88757C27.8756 2.87133 29.0749 2.22073 30.4162 2.08112ZM23.1475 14.764C21.7032 13.3198 21.7032 10.9692 23.1475 9.52436C23.8702 8.80224 24.8183 8.44118 25.7676 8.44118C26.7163 8.44118 27.665 8.80224 28.3872 9.52436C29.832 10.9692 29.832 13.3198 28.3872 14.764C27.6874 15.4639 26.7569 15.8495 25.7676 15.8495C24.7777 15.8495 23.8473 15.4639 23.1475 14.764ZM17.1302 3.50705C18.4113 2.22588 20.2184 1.75324 21.9624 2.24248C23.7077 2.73229 25.0043 4.07582 25.4323 5.8365L25.533 6.25077C24.1008 6.30685 22.6851 6.87963 21.5939 7.97082C20.5027 9.06202 19.93 10.4777 19.8739 11.9099L19.4596 11.8092C17.6989 11.3817 16.3554 10.0845 15.8656 8.3399C15.3764 6.59524 15.849 4.78879 17.1302 3.50705ZM21.1058 22.2084C19.6135 22.3606 18.2019 21.8531 17.1302 20.7814C16.0561 19.7073 15.5497 18.2923 15.7042 16.7959C15.8427 15.4536 16.4939 14.2531 17.5101 13.4342C17.961 13.6494 18.4388 13.8222 18.9412 13.9441L20.2613 14.2651C20.5485 15.0135 20.9914 15.7156 21.5939 16.3176C22.1879 16.9115 22.8865 17.3619 23.6476 17.6543L23.9674 18.9709C24.0893 19.4733 24.2621 19.9505 24.4773 20.4014C23.6562 21.4205 22.4517 22.0722 21.1058 22.2084ZM29.5716 22.0459C27.827 21.5567 26.5304 20.2132 26.1023 18.4525L26.0028 18.0411C27.4905 17.9827 28.8815 17.3767 29.9407 16.3176C31.0319 15.227 31.6047 13.8113 31.6613 12.3791L32.075 12.4798C33.8357 12.9072 35.1792 14.2044 35.669 15.9491C36.1588 17.6937 35.6856 19.5002 34.4045 20.7819C33.1233 22.0631 31.3168 22.5352 29.5716 22.0459ZM39.0857 32.9893C41.9347 32.9893 44.6847 33.9381 46.9163 35.6461H31.2551C33.4872 33.9381 36.2367 32.9893 39.0857 32.9893ZM24.9419 50.4456L24.7073 47.5932H54.1095L53.8743 50.4456H24.9419ZM56.4252 45.0823C56.4252 45.2551 56.2844 45.3965 56.1116 45.3965H22.7052C22.5318 45.3965 22.391 45.2551 22.391 45.0823V38.1575C22.391 37.9841 22.5318 37.8434 22.7052 37.8434H56.1116C56.2844 37.8434 56.4252 37.9841 56.4252 38.1575V45.0823Z" fill="black"/>
</g>
<defs>
<clipPath id="clip0">
<rect width="75" height="75" fill="white"/>
</clipPath>
</defs>
</svg>
