<svg width="55" height="53" viewBox="0 0 55 53" fill="none" xmlns="http://www.w3.org/2000/svg">
<g clip-path="url(#clip0)">
<path d="M40.8837 21.2663L44.1151 21.0686C44.1206 21.0682 44.1265 21.0678 44.1323 21.0674C46.4352 20.8798 48.5022 19.715 49.8039 17.8707L52.3585 14.252C54.5821 11.1015 55.4436 7.29635 54.7835 3.53778C54.6538 2.7996 54.2628 2.11935 53.6828 1.62305C53.1025 1.12633 52.3564 0.833006 51.5818 0.797353C47.6366 0.615035 43.8285 1.89733 40.856 4.40642L37.4411 7.28906C35.701 8.75772 34.751 10.8787 34.834 13.109C34.8345 13.1143 34.8345 13.12 34.8349 13.1256L35.0191 16.2465C35.0908 17.4632 34.6288 18.6636 33.7539 19.5379L7.07549 45.9998C6.3613 46.719 5.99246 47.7055 6.03736 48.778C6.08687 49.9586 6.6479 51.1181 7.53833 51.8802C8.34274 52.5685 9.44843 52.9607 10.5537 52.9607C10.672 52.9607 10.7904 52.9563 10.9083 52.9469C12.0165 52.8615 12.9871 52.3899 13.6442 51.6144L37.6493 22.8756C38.4453 21.9299 39.6244 21.3433 40.8837 21.2663ZM36.3677 21.874L12.3648 50.6104C11.998 51.0431 11.4341 51.3097 10.7769 51.3604C9.99519 51.4207 9.19372 51.1696 8.63227 50.689C8.07082 50.2081 7.71667 49.47 7.6852 48.7135C7.65834 48.0779 7.86437 47.5054 8.26133 47.1059L34.9377 20.646C36.1336 19.4512 36.763 17.8148 36.6657 16.1562L36.4815 13.0434C36.4189 11.2976 37.1638 9.63771 38.5263 8.48749L41.9411 5.60485C44.5914 3.36802 47.9878 2.22591 51.5033 2.38716C51.9037 2.40579 52.2889 2.55732 52.5889 2.81419C52.8889 3.07064 53.0908 3.42231 53.1579 3.80356C53.7462 7.15455 52.9783 10.5465 50.996 13.355L48.4414 16.9741C47.4221 18.4181 45.8045 19.3309 44.0018 19.4804L40.7792 19.6773C39.0621 19.7826 37.455 20.5824 36.3677 21.874Z" fill="white"/>
<path d="M53.477 45.7987L35.5891 30.068C35.2526 29.7718 34.7314 29.7953 34.4243 30.1203C34.1179 30.4452 34.1423 30.9488 34.4788 31.245L52.3621 46.9721C52.7876 47.3517 53.0289 47.9112 53.0419 48.5473C53.0574 49.3041 52.7498 50.0613 52.219 50.5738C51.6886 51.0859 50.9056 51.3837 50.1201 51.3683C49.4613 51.3558 48.8818 51.1228 48.4928 50.7164L32.5532 33.8201C32.2465 33.4948 31.7249 33.4717 31.3883 33.7674C31.0518 34.0636 31.0275 34.5672 31.3342 34.8921L47.2776 51.7925C47.9784 52.5242 48.9762 52.9391 50.0878 52.9602C50.1167 52.9606 50.1453 52.961 50.1742 52.961C51.3689 52.961 52.5635 52.493 53.3847 51.6997C54.2265 50.887 54.7145 49.6971 54.6902 48.5161C54.6683 47.4428 54.2391 46.4794 53.477 45.7987Z" fill="white"/>
<path d="M9.94823 21.1156C11.3128 22.3294 13.0857 23.0214 14.9404 23.0644C14.9463 23.0648 14.9522 23.0648 14.9576 23.0648L18.1954 23.0745C19.4576 23.0781 20.6707 23.5955 21.5221 24.4913L22.9484 26.0029C23.1112 26.1755 23.334 26.263 23.5581 26.263C23.7562 26.263 23.9551 26.1946 24.1129 26.0556C24.4498 25.7594 24.4741 25.2558 24.1674 24.9309L22.739 23.4173C21.5758 22.1929 19.9217 21.4879 18.2009 21.4823L14.9719 21.4725C13.5372 21.4373 12.1655 20.907 11.1026 19.9779L1.71953 9.20827C1.62386 9.09807 1.63099 8.93844 1.73631 8.83675C1.80849 8.76666 1.89325 8.75653 1.93731 8.75653C1.98137 8.75653 2.06613 8.76666 2.13873 8.83675L10.6796 17.0836C11.5239 17.8987 12.8977 17.8987 13.742 17.0832L14.7457 16.1144V16.114L16.5278 14.3934C16.5278 14.3934 16.5283 14.3934 16.5283 14.393L16.5287 14.3926L17.532 13.4238C18.3763 12.6087 18.3763 11.2822 17.532 10.4671L8.99109 2.22066C8.88031 2.1137 8.88031 1.93908 8.99109 1.83212C9.09641 1.73043 9.26174 1.72354 9.37588 1.81592L20.5302 10.8759C21.4928 11.9017 22.042 13.2265 22.0785 14.6113L22.0882 17.7294C22.0941 19.3905 22.8246 20.9876 24.0944 22.1131L25.6226 23.457C25.9596 23.7531 26.4808 23.7296 26.7875 23.4047C27.0938 23.0794 27.0695 22.5762 26.7329 22.28L25.2072 20.9382C24.2769 20.1141 23.7415 18.9424 23.7373 17.7241L23.7272 14.598C23.7272 14.5923 23.7272 14.5866 23.7268 14.581C23.6823 12.7902 22.9656 11.0784 21.7084 9.76089C21.6849 9.73618 21.6598 9.71268 21.6329 9.6908L10.4371 0.597634C9.66331 -0.0311575 8.54042 0.0158398 7.82539 0.706214C7.07133 1.43427 7.07133 2.61852 7.82539 3.34617L16.3663 11.593C16.5677 11.7875 16.5677 12.1039 16.3663 12.2983L15.9454 12.7043L6.42638 3.5139C6.10454 3.20274 5.58253 3.20274 5.26068 3.5139C4.93884 3.82465 4.93884 4.32865 5.26068 4.6394L14.7797 13.8302L14.1629 14.4254L4.64385 5.23497C4.322 4.92422 3.79999 4.92422 3.47815 5.23497C3.15588 5.54572 3.15588 6.04973 3.47815 6.36048L12.9968 15.5513L12.5763 15.9577C12.3749 16.1521 12.0472 16.1521 11.8457 15.9577L3.30443 7.71124C2.93936 7.35876 2.45386 7.16429 1.93731 7.16429C1.42076 7.16429 0.935264 7.35876 0.570197 7.71124C-0.144832 8.40162 -0.193088 9.4858 0.457739 10.2333L9.87606 21.0427C9.8983 21.0686 9.92264 21.0929 9.94823 21.1156Z" fill="white"/>
</g>
<defs>
<clipPath id="clip0">
<rect width="55" height="53" fill="white"/>
</clipPath>
</defs>
</svg>
