<svg width="57" height="57" viewBox="0 0 57 57" fill="none" xmlns="http://www.w3.org/2000/svg">
<path d="M30.5242 8.79541H9.3866C8.72978 8.79541 8.19238 9.33281 8.19238 9.98963V23.962C8.19238 24.6188 8.72978 25.1562 9.3866 25.1562H30.5242C31.1811 25.1562 31.7185 24.6188 31.7185 23.962V9.98963C31.7185 9.33281 31.1811 8.79541 30.5242 8.79541ZM29.33 22.7678H10.5808V11.1838H29.33V22.7678Z" fill="white"/>
<path d="M55.7938 51.6677H35.7788V32.5602H37.7253C39.4928 32.5602 40.9258 34.0052 40.9139 35.7726C40.9139 35.7846 40.9139 35.7846 40.9139 35.7965V39.1045C40.9139 42.6036 43.7442 45.4339 47.2432 45.4339C50.7423 45.4339 53.5726 42.6036 53.5726 39.1045V20.212C53.5726 18.2535 52.8441 16.3666 51.5066 14.9216L42.1678 4.28113L40.3765 5.85749L47.6135 14.1095C44.9981 14.5514 43.2307 17.0234 43.6725 19.6388C44.0547 21.9555 46.061 23.6513 48.4136 23.6513C49.4048 23.6394 50.3721 23.3408 51.1842 22.7676V39.1045C51.1842 41.278 49.4167 43.0454 47.2432 43.0454C45.0698 43.0454 43.3023 41.278 43.3023 39.1045V35.7965C43.3143 32.7035 40.8184 30.1837 37.7373 30.1718H37.7253H35.7788V7.92349C35.7788 5.20067 33.5814 2.9436 30.8586 2.9436H8.67002C5.9472 2.9436 3.77373 5.21262 3.77373 7.92349V51.6677H1.19422C0.537398 51.6677 0 52.2051 0 52.8619C0 53.5187 0.537398 54.0561 1.19422 54.0561H55.8058C56.4626 54.0561 57 53.5187 57 52.8619C57 52.2051 56.4626 51.6677 55.7938 51.6677ZM48.4136 21.251C47.0761 21.251 46.0013 20.1642 46.0013 18.8386C46.0013 17.5131 47.088 16.4263 48.4136 16.4263C49.7511 16.4263 50.8259 17.5131 50.8259 18.8386C50.8259 20.1642 49.7392 21.251 48.4136 21.251ZM33.3903 51.6677H6.16216V7.92349C6.16216 6.51431 7.26084 5.33204 8.67002 5.33204H30.8586C32.2678 5.33204 33.3903 6.52626 33.3903 7.92349V51.6677Z" fill="white"/>
</svg>
