<svg width="87" height="87" viewBox="0 0 87 87" fill="none" xmlns="http://www.w3.org/2000/svg">
<g clip-path="url(#clip0)">
<path d="M43.974 74.0163C43.974 74.0163 24.5459 62.4542 14.4054 47.7647C8.52954 39.2353 7.6766 31.8431 9.38248 26.0621C11.8465 17.7222 21.2289 9.47712 34.3073 14.3105C40.657 16.6797 43.974 19.3333 43.974 19.3333C43.974 19.3333 47.291 16.6797 53.6406 14.3105C66.7191 9.47712 76.1014 17.7222 78.5655 26.0621C80.2714 31.7484 79.4184 39.1405 73.5426 47.7647C63.4021 62.4542 43.974 74.0163 43.974 74.0163Z" fill="#F55557"/>
<path d="M85.6732 42.1732H78.281C81.4085 35.1601 81.0294 29.5686 79.8922 25.7778C77.902 18.9543 71.268 11.6569 61.317 11.6569C58.6634 11.6569 56.0098 12.1307 53.2614 13.1732C48.5229 14.9739 45.3954 16.8693 44.0686 17.817C42.6471 16.8693 39.6144 14.9739 34.8758 13.1732C32.1274 12.1307 29.4739 11.6569 26.8203 11.6569C16.8693 11.6569 10.2353 18.9543 8.2451 25.7778C6.9183 29.7582 6.53922 35.9183 10.3301 43.5948H1.3268C0.568627 43.5948 0 44.1634 0 44.9216C0 45.6798 0.568627 46.2484 1.3268 46.2484H11.8464C12.3203 47.0065 12.7941 47.7647 13.268 48.5229C21.8922 60.9379 40.5621 74.3954 43.9739 75.2484V75.3432C43.9739 75.3432 44.0686 75.3432 44.1634 75.2484C44.2582 75.2484 44.3529 75.2484 44.3529 75.2484V75.1536C47.2908 73.732 65.2026 62.17 74.6797 48.4281C75.5327 47.1961 76.2908 45.8693 76.9542 44.732H85.6732C86.4314 44.732 87 44.1634 87 43.4052C87 42.7418 86.4314 42.1732 85.6732 42.1732ZM10.7092 26.536C12.415 20.6601 18.1961 14.3105 26.7255 14.3105C29 14.3105 31.3693 14.7843 33.8333 15.6373C39.8987 17.9118 43.1209 20.4706 43.1209 20.4706C43.5948 20.8497 44.3529 20.8497 44.8268 20.4706C44.8268 20.4706 48.049 17.9118 54.1144 15.6373C56.5784 14.7843 58.9477 14.3105 61.2222 14.3105C69.7516 14.3105 75.5327 20.6601 77.2386 26.536C78.6601 31.3693 77.902 36.6765 75.2484 42.1732H67.1928L63.781 36.3922C63.5915 36.0131 63.1176 35.7288 62.6438 35.7288C62.1699 35.7288 61.6961 35.9183 61.5065 36.2974L58.6634 40.4673L54.1144 25.683C53.9248 25.1144 53.3562 24.7353 52.7876 24.7353C52.219 24.7353 51.6503 25.1144 51.4608 25.683L43.7843 52.3137L35.4444 30.9902C35.2549 30.5164 34.781 30.1373 34.2124 30.1373C33.6438 30.1373 33.1699 30.4216 32.9804 30.8954L26.4412 43.5948H13.4575C10.1405 37.5294 9.09804 31.7484 10.7092 26.536ZM72.4052 47.0065C63.5915 59.8007 47.4804 70.2255 43.9739 72.4052C40.4673 70.2255 24.3562 59.7059 15.5425 47.0065C15.3529 46.7222 15.2582 46.5327 15.0686 46.2484H27.2941C27.768 46.2484 28.2418 45.9641 28.5261 45.4902L34.0229 34.6863L42.7418 56.9575C42.9314 57.5262 43.4052 57.8105 43.9739 57.8105C43.9739 57.8105 43.9739 57.8105 44.0686 57.8105C44.6373 57.8105 45.1111 57.4314 45.3007 56.8628L52.8824 30.8007L56.9575 43.9739C57.1471 44.4477 57.5261 44.8268 58.0948 44.9216C58.5686 45.0164 59.1373 44.732 59.4216 44.353L62.6438 39.7092L65.3922 44.353C65.6765 44.732 66.0555 45.0164 66.5294 45.0164H73.8268C73.3529 45.585 72.8791 46.3432 72.4052 47.0065Z" fill="#30323A"/>
</g>
<defs>
<clipPath id="clip0">
<rect width="87" height="87" fill="white"/>
</clipPath>
</defs>
</svg>
