<svg width="19" height="19" viewBox="0 0 19 19" fill="none" xmlns="http://www.w3.org/2000/svg">
<path d="M13.8568 0H5.14312C2.30716 0 0 2.30716 0 5.14312V13.857C0 16.6928 2.30716 19 5.14312 19H13.857C16.6928 19 19 16.6928 19 13.857V5.14312C19 2.30716 16.6928 0 13.8568 0V0ZM9.49998 14.6951C6.63532 14.6951 4.30482 12.3646 4.30482 9.49998C4.30482 6.63532 6.63532 4.30482 9.49998 4.30482C12.3646 4.30482 14.6951 6.63532 14.6951 9.49998C14.6951 12.3646 12.3646 14.6951 9.49998 14.6951ZM14.8194 5.53001C13.9728 5.53001 13.2843 4.84146 13.2843 3.9949C13.2843 3.14835 13.9728 2.45965 14.8194 2.45965C15.6659 2.45965 16.3546 3.14835 16.3546 3.9949C16.3546 4.84146 15.6659 5.53001 14.8194 5.53001Z" fill="white"/>
<path d="M9.5 5.4187C7.24967 5.4187 5.4187 7.24952 5.4187 9.5C5.4187 11.7503 7.24967 13.5813 9.5 13.5813C11.7505 13.5813 13.5813 11.7503 13.5813 9.5C13.5813 7.24952 11.7505 5.4187 9.5 5.4187Z" fill="white"/>
<path d="M14.8194 3.57361C14.5872 3.57361 14.3982 3.76263 14.3982 3.99486C14.3982 4.22708 14.5872 4.41611 14.8194 4.41611C15.0518 4.41611 15.2408 4.22723 15.2408 3.99486C15.2408 3.76249 15.0518 3.57361 14.8194 3.57361Z" fill="white"/>
</svg>
