<svg width="42" height="42" viewBox="0 0 42 42" fill="none" xmlns="http://www.w3.org/2000/svg">
<path d="M38.3086 5.00391H3.69141C1.65851 5.00391 0 6.66061 0 8.69531V33.3047C0 35.3325 1.65113 36.9961 3.69141 36.9961H38.3086C40.3364 36.9961 42 35.345 42 33.3047V8.69531C42 6.6675 40.3489 5.00391 38.3086 5.00391ZM37.7989 7.46484L21.0783 24.1855L4.21304 7.46484H37.7989ZM2.46094 32.7951V9.19316L14.3127 20.9433L2.46094 32.7951ZM4.20107 34.5352L16.0603 22.6759L20.2158 26.7957C20.6968 27.2726 21.4731 27.271 21.9521 26.7919L26.0039 22.7401L37.7989 34.5352H4.20107ZM39.5391 32.795L27.744 21L39.5391 9.20489V32.795Z" fill="black"/>
</svg>
