<svg width="257" height="257" viewBox="0 0 257 257" fill="none" xmlns="http://www.w3.org/2000/svg">
<path opacity="0.1" fill-rule="evenodd" clip-rule="evenodd" d="M123.217 0.503252C115.628 2.5386 110.385 6.7642 97.4485 21.2737C95.452 23.5127 92.4632 26.3633 90.8064 27.608C86.5029 30.8419 84.3006 31.1341 67.3947 30.7166C52.4541 30.348 49.1695 30.6935 43.664 33.2127C39.8979 34.9362 35.2488 39.4882 33.3887 43.2727C30.6153 48.9176 30.2384 52.2042 30.6158 67.4792C31.0379 84.5682 30.7698 86.4984 27.3403 91.0263C25.9979 92.7991 23.1405 95.8021 20.9905 97.6986C4.11729 112.589 0 118.642 0 128.557C0 138.54 3.63628 143.866 21.1998 159.61C23.4348 161.614 26.2776 164.601 27.5169 166.249C30.7396 170.534 31.0329 172.75 30.6158 189.635C30.3325 201.104 30.406 203.835 31.0837 207.014C33.2659 217.255 39.7631 223.749 50.0083 225.93C53.1887 226.608 55.9213 226.681 67.3947 226.398C84.4913 225.976 86.4224 226.244 90.9523 229.672C92.7259 231.014 95.7302 233.87 97.6276 236.019C112.525 252.885 118.58 257 128.5 257C138.48 257 144.116 253.166 159.385 235.989C161.289 233.846 164.293 230.999 166.06 229.662C170.576 226.245 172.519 225.976 189.605 226.398C204.546 226.766 207.83 226.421 213.336 223.902C217.166 222.149 221.609 217.761 223.556 213.808C226.339 208.158 226.738 204.615 226.39 188.657C226.026 172.042 226.267 170.387 229.684 165.959C230.894 164.392 233.799 161.389 236.139 159.287C253.501 143.686 257 138.531 257 128.557C257 118.6 253.137 112.935 235.831 97.5196C233.591 95.5239 230.739 92.5365 229.494 90.8804C226.259 86.5789 225.967 84.3775 226.384 67.4792C226.667 56.0109 226.594 53.2795 225.916 50.1005C223.728 39.8307 217.326 33.4576 206.936 31.2045C203.799 30.524 200.98 30.4466 188.878 30.7071C171.866 31.0737 170.48 30.8685 165.832 27.2932C164.15 26.0002 161.233 23.2069 159.348 21.0861C148.108 8.43644 142.167 3.32769 136.299 1.26619C132.546 -0.0524838 126.585 -0.400007 123.217 0.503252ZM131.811 16.8554C134.535 18.0921 139.537 22.8317 145.341 29.6771C151.693 37.1682 157.124 41.7192 162.766 44.2796C168.012 46.6605 172.644 47.1282 189.429 46.9728C204.047 46.838 204.805 46.8772 206.471 47.8549C209.855 49.8425 210.266 51.2663 210.235 60.9134C210.219 65.6158 210.14 72.5185 210.058 76.2527C209.857 85.4991 211.143 91.9396 214.179 96.8924C217.478 102.272 221.345 106.607 227.424 111.74C236.915 119.752 241.184 124.97 241.184 128.557C241.184 132.138 236.942 137.327 227.424 145.391C221.78 150.173 219.203 152.885 215.942 157.476C211.426 163.833 209.936 169.761 210.125 180.61C210.469 200.363 210.323 204.648 209.238 206.493C208.675 207.452 207.429 208.696 206.471 209.26C204.624 210.344 200.33 210.488 180.576 210.13C169.765 209.934 163.81 211.434 157.431 215.961C152.839 219.22 150.125 221.796 145.341 227.437C137.274 236.951 132.082 241.191 128.5 241.191C124.912 241.191 119.691 236.924 111.675 227.437C104.407 218.836 96.7647 213.057 90.194 211.192C87.3834 210.395 84.8586 210.283 69.6312 210.283C53.0785 210.283 52.1915 210.236 50.529 209.26C49.5705 208.696 48.3252 207.452 47.7617 206.493C46.7836 204.828 46.7443 204.071 46.8792 189.459C47.0935 166.364 46.2613 163.305 36.7039 152.055C35.5809 150.733 32.3351 147.698 29.4907 145.311C20.274 137.577 15.8161 132.114 15.8161 128.557C15.8161 124.976 20.0577 119.787 29.5758 111.724C37.0702 105.374 41.6233 99.9462 44.1848 94.3068C46.5667 89.0628 47.0346 84.4334 46.8792 67.6552C46.7443 53.0436 46.7836 52.2862 47.7617 50.621C48.3252 49.6629 49.5705 48.4182 50.529 47.8549C52.196 46.8762 52.9507 46.8375 67.7107 46.9743C81.4346 47.1015 83.6858 47.0075 87.9842 46.1299C96.5141 44.3882 103.39 39.5093 112.514 28.7261C119.867 20.035 125.001 15.9235 128.5 15.9235C129.192 15.9235 130.682 16.343 131.811 16.8554ZM90.3168 73.0244C77.5594 76.4539 69.6664 89.6573 72.9173 102.132C76.2834 115.05 89.473 123.019 102.063 119.74C114.949 116.385 122.958 103.19 119.699 90.6833C116.302 77.6479 102.956 69.6267 90.3168 73.0244ZM165.733 80.8309C165.041 81.1005 145.738 100.04 122.838 122.919C93.3201 152.408 81.0417 164.995 80.6563 166.162C79.3964 169.973 82.2367 175.197 86.2161 176.389C90.8476 177.776 88.037 180.248 133.921 134.433C178.517 89.9072 177.359 91.1917 176.591 87.1034C176.207 85.059 173.848 82.1038 171.721 81.0049C170.123 80.1786 167.593 80.1052 165.733 80.8309ZM99.4827 89.009C104.652 91.1681 105.912 97.9425 101.892 101.961C98.6284 105.223 93.9682 105.223 90.7042 101.961C84.4822 95.7417 91.3477 85.6117 99.4827 89.009ZM154.72 137.399C141.963 140.829 134.07 154.032 137.321 166.507C140.687 179.425 153.876 187.393 166.467 184.115C179.353 180.76 187.361 167.564 184.102 155.058C180.706 142.023 167.36 134.001 154.72 137.399ZM163.886 153.384C169.056 155.543 170.316 162.317 166.296 166.336C160.643 171.987 151.379 166.926 152.867 158.999C153.756 154.264 159.268 151.455 163.886 153.384Z" fill="url(#paint0_linear)"/>
<defs>
<linearGradient id="paint0_linear" x1="64.069" y1="27.5099" x2="220.079" y2="143.703" gradientUnits="userSpaceOnUse">
<stop stop-color="#6346BF"/>
<stop offset="1" stop-color="#6346BF" stop-opacity="0"/>
</linearGradient>
</defs>
</svg>
