<svg width="55" height="55" viewBox="0 0 55 55" fill="none" xmlns="http://www.w3.org/2000/svg">
<path fill-rule="evenodd" clip-rule="evenodd" d="M26.3694 0.1077C24.7453 0.54328 23.6232 1.44759 20.8547 4.55273C20.4275 5.0319 19.7879 5.64195 19.4333 5.90834C18.5123 6.6004 18.041 6.66293 14.423 6.5736C11.2256 6.49471 10.5227 6.56865 9.34444 7.10777C8.53847 7.47662 7.54352 8.45078 7.14543 9.2607C6.55191 10.4687 6.47126 11.1721 6.55202 14.4411C6.64236 18.0982 6.58497 18.5113 5.85103 19.4803C5.56375 19.8597 4.95224 20.5024 4.49213 20.9083C0.881133 24.095 0 25.3902 0 27.5123C0 29.6486 0.778192 30.7885 4.53692 34.1578C5.01523 34.5866 5.62361 35.2259 5.88883 35.5786C6.57851 36.4955 6.64128 36.9698 6.55202 40.5834C6.49139 43.0377 6.50712 43.6223 6.65216 44.3026C7.11916 46.4942 8.50961 47.884 10.7022 48.3508C11.3828 48.4958 11.9676 48.5115 14.423 48.4509C18.0818 48.3606 18.4951 48.418 19.4645 49.1516C19.8441 49.4387 20.487 50.05 20.8931 50.5099C24.0812 54.1193 25.377 55 27.5 55C29.6358 55 30.8419 54.1794 34.1096 50.5034C34.5172 50.0449 35.16 49.4356 35.5382 49.1495C36.5046 48.4183 36.9205 48.3606 40.577 48.4509C43.7744 48.5298 44.4773 48.4559 45.6556 47.9167C46.4753 47.5415 47.4261 46.6026 47.8427 45.7565C48.4383 44.5474 48.5237 43.7891 48.4492 40.3741C48.3714 36.8183 48.4229 36.4642 49.1542 35.5166C49.4132 35.1811 50.0347 34.5385 50.5355 34.0886C54.2511 30.7499 55 29.6467 55 27.5123C55 25.3813 54.1732 24.169 50.4697 20.8699C49.9904 20.4429 49.38 19.8035 49.1135 19.4491C48.4212 18.5286 48.3586 18.0574 48.448 14.4411C48.5086 11.9868 48.4929 11.4022 48.3478 10.7219C47.8795 8.52408 46.5096 7.16019 44.286 6.678C43.6145 6.53238 43.0112 6.5158 40.4214 6.57156C36.7807 6.65002 36.4842 6.60611 35.4893 5.84096C35.1295 5.56424 34.5051 4.96646 34.1018 4.51258C31.6962 1.80546 30.4248 0.712152 29.169 0.270975C28.3659 -0.011232 27.0902 -0.0856046 26.3694 0.1077ZM28.2085 3.6072C28.7916 3.87186 29.862 4.88617 31.1041 6.35113C32.4635 7.95429 33.6257 8.92823 34.8331 9.47618C35.9559 9.9857 36.9471 10.0858 40.5393 10.0525C43.6677 10.0237 43.8299 10.0321 44.1864 10.2413C44.9106 10.6667 44.9985 10.9714 44.9918 13.036C44.9885 14.0423 44.9716 15.5195 44.9541 16.3187C44.911 18.2975 45.1862 19.6758 45.836 20.7357C46.542 21.8871 47.3695 22.8147 48.6706 23.9132C50.7016 25.6279 51.6152 26.7446 51.6152 27.5123C51.6152 28.2786 50.7075 29.3891 48.6706 31.1148C47.4626 32.1382 46.9111 32.7187 46.2133 33.701C45.2469 35.0616 44.928 36.3302 44.9685 38.652C45.0421 42.8793 45.0107 43.7963 44.7786 44.1912C44.658 44.3962 44.3915 44.6626 44.1864 44.7832C43.7912 45.0152 42.8723 45.0461 38.6447 44.9695C36.331 44.9275 35.0565 45.2486 33.6915 46.2172C32.7087 46.9147 32.128 47.466 31.1041 48.6734C29.3777 50.7094 28.2667 51.6167 27.5 51.6167C26.732 51.6167 25.6148 50.7035 23.8993 48.6734C22.3438 46.8327 20.7084 45.5959 19.3022 45.1968C18.7007 45.0261 18.1604 45.0022 14.9016 45.0022C11.3592 45.0022 11.1694 44.9921 10.8136 44.7832C10.6085 44.6626 10.342 44.3962 10.2214 44.1912C10.012 43.8348 10.0036 43.6728 10.0325 40.5458C10.0784 35.6032 9.90028 34.9486 7.85493 32.5409C7.61459 32.258 6.91996 31.6086 6.31125 31.0977C4.33879 29.4425 3.38476 28.2735 3.38476 27.5123C3.38476 26.7459 4.29249 25.6354 6.32945 23.9098C7.93332 22.5509 8.9077 21.3893 9.45589 20.1824C9.96564 19.0601 10.0658 18.0694 10.0325 14.4787C10.0036 11.3517 10.012 11.1897 10.2214 10.8333C10.342 10.6283 10.6085 10.3619 10.8136 10.2413C11.1703 10.0319 11.3319 10.0236 14.4906 10.0529C17.4276 10.0801 17.9094 10.06 18.8293 9.87215C20.6548 9.49943 22.1263 8.45531 24.0788 6.1476C25.6526 4.28764 26.7512 3.40776 27.5 3.40776C27.6481 3.40776 27.9669 3.49752 28.2085 3.6072ZM19.3285 15.6278C16.5983 16.3617 14.9092 19.1874 15.6049 21.8571C16.3252 24.6216 19.1479 26.3269 21.8424 25.6254C24.6 24.9074 26.3139 22.0834 25.6165 19.4069C24.8895 16.6172 22.0335 14.9006 19.3285 15.6278ZM35.4682 17.2984C35.3201 17.3561 31.1892 21.4094 26.2882 26.3056C19.9712 32.6165 17.3436 35.3103 17.2611 35.5599C16.9914 36.3755 17.5993 37.4936 18.4509 37.7487C19.4421 38.0455 18.8406 38.5744 28.6602 28.7698C38.204 19.2408 37.9561 19.5157 37.7919 18.6408C37.7097 18.2033 37.2048 17.5709 36.7497 17.3357C36.4077 17.1588 35.8662 17.1431 35.4682 17.2984ZM21.2901 19.0486C22.3964 19.5107 22.6661 20.9605 21.8057 21.8205C21.1072 22.5186 20.1099 22.5186 19.4114 21.8205C18.0799 20.4895 19.5491 18.3216 21.2901 19.0486ZM33.1113 29.4045C30.3812 30.1384 28.692 32.9641 29.3877 35.6338C30.1081 38.3983 32.9308 40.1036 35.6252 39.4021C38.3828 38.6841 40.0968 35.8601 39.3993 33.1836C38.6724 30.3939 35.8163 28.6773 33.1113 29.4045ZM35.0729 32.8253C36.1792 33.2874 36.4489 34.7372 35.5886 35.5972C34.3788 36.8065 32.3964 35.7234 32.7147 34.027C32.9049 33.0138 34.0846 32.4126 35.0729 32.8253Z" fill="white"/>
</svg>
