<svg width="107" height="107" viewBox="0 0 107 107" fill="none" xmlns="http://www.w3.org/2000/svg">
<path opacity="0.1" fill-rule="evenodd" clip-rule="evenodd" d="M51.3004 0.209525C48.1408 1.05693 45.958 2.81622 40.5719 8.85713C39.7407 9.78934 38.4964 10.9762 37.8065 11.4944C36.0148 12.8408 35.0979 12.9624 28.0593 12.7886C21.8389 12.6352 20.4714 12.779 18.1792 13.8278C16.6112 14.5454 14.6756 16.4406 13.9011 18.0163C12.7464 20.3665 12.5895 21.7348 12.7467 28.0944C12.9224 35.2093 12.8108 36.0129 11.3829 37.8981C10.824 38.6362 9.63436 39.8865 8.73923 40.6761C1.7142 46.8757 0 49.3955 0 53.5238C0 57.68 1.51394 59.8977 8.82638 66.4524C9.7569 67.2866 10.9405 68.5304 11.4564 69.2166C12.7982 71.0004 12.9203 71.9232 12.7467 78.9532C12.6287 83.728 12.6593 84.8652 12.9415 86.1887C13.85 90.4523 16.5551 93.1562 20.8206 94.0643C22.1447 94.3463 23.2824 94.3769 28.0593 94.259C35.1773 94.0833 35.9813 94.1949 37.8673 95.6222C38.6057 96.1808 39.8565 97.3699 40.6465 98.2647C46.8489 105.287 49.3698 107 53.5 107C57.6551 107 60.0015 105.404 66.3587 98.2521C67.1516 97.3601 68.4022 96.1747 69.1379 95.6182C71.0181 94.1956 71.8271 94.0833 78.9407 94.259C85.1611 94.4125 86.5286 94.2687 88.8208 93.2198C90.4156 92.4899 92.2653 90.6632 93.0758 89.0171C94.2345 86.6649 94.4006 85.1897 94.2556 78.546C94.1044 71.6283 94.2045 70.9394 95.6273 69.096C96.1312 68.4433 97.3403 67.193 98.3146 66.3178C105.543 59.8225 107 57.6763 107 53.5238C107 49.3781 105.392 47.0198 98.1866 40.6015C97.254 39.7707 96.0666 38.5269 95.5482 37.8374C94.2012 36.0465 94.0795 35.1299 94.2533 28.0944C94.3713 23.3197 94.3407 22.1825 94.0585 20.859C93.1475 16.5832 90.4822 13.9298 86.1564 12.9918C84.8501 12.7084 83.6763 12.6762 78.638 12.7847C71.5552 12.9373 70.9783 12.8519 69.0428 11.3633C68.3428 10.825 67.1282 9.66203 66.3434 8.77903C61.6636 3.51245 59.19 1.38546 56.747 0.52717C55.1847 -0.0218512 52.7027 -0.16654 51.3004 0.209525ZM54.8784 7.01764C56.0128 7.53253 58.0952 9.50582 60.5116 12.3558C63.1564 15.4747 65.4173 17.3695 67.7662 18.4355C69.9505 19.4267 71.8788 19.6215 78.8674 19.5568C84.9535 19.5006 85.269 19.517 85.9626 19.924C87.3716 20.7515 87.5425 21.3443 87.5295 25.3608C87.5231 27.3186 87.4902 30.1925 87.4562 31.7472C87.3722 35.5969 87.9077 38.2783 89.1719 40.3404C90.5453 42.5803 92.1552 44.385 94.6863 46.522C98.6376 49.8578 100.415 52.0305 100.415 53.5238C100.415 55.0147 98.6491 57.1752 94.6863 60.5323C92.3364 62.5234 91.2634 63.6527 89.9059 65.5638C88.0258 68.2107 87.4053 70.6787 87.4841 75.1957C87.6274 83.4197 87.5662 85.2037 87.1148 85.972C86.8801 86.3709 86.3617 86.8891 85.9626 87.1236C85.1938 87.5751 83.4061 87.6352 75.1815 87.4861C70.6804 87.4044 68.2009 88.029 65.5453 89.9135C63.6333 91.2704 62.5036 92.3429 60.5116 94.6918C57.153 98.6529 54.9915 100.418 53.5 100.418C52.006 100.418 49.8324 98.6413 46.4951 94.6918C43.4689 91.1108 40.2872 88.7047 37.5516 87.9283C36.3814 87.5962 35.3302 87.5497 28.9904 87.5497C22.0988 87.5497 21.7295 87.5301 21.0374 87.1236C20.6383 86.8891 20.1198 86.3709 19.8852 85.972C19.478 85.2787 19.4616 84.9634 19.5178 78.8799C19.607 69.2643 19.2605 67.9908 15.2814 63.3068C14.8138 62.7565 13.4625 61.493 12.2782 60.4992C8.44093 57.279 6.5849 55.0048 6.5849 53.5238C6.5849 52.033 8.35085 49.8725 12.3137 46.5153C15.4339 43.8718 17.3295 41.6118 18.396 39.2639C19.3877 37.0806 19.5825 35.1532 19.5178 28.1677C19.4616 22.0843 19.478 21.769 19.8852 21.0757C20.1198 20.6768 20.6383 20.1586 21.0374 19.924C21.7314 19.5166 22.0456 19.5004 28.1908 19.5574C33.9047 19.6104 34.8419 19.5712 36.6315 19.2058C40.1829 18.4807 43.0457 16.4494 46.8443 11.9599C49.9059 8.3414 52.0432 6.62964 53.5 6.62964C53.788 6.62964 54.4083 6.80427 54.8784 7.01764ZM37.6027 30.4032C32.2913 31.831 29.0051 37.3281 30.3586 42.522C31.76 47.9002 37.2514 51.2178 42.4933 49.853C47.8582 48.4562 51.1925 42.9622 49.8357 37.7553C48.4215 32.3281 42.8651 28.9885 37.6027 30.4032ZM69.0018 33.6533C68.7137 33.7656 60.6771 41.651 51.1425 51.1764C38.8531 63.454 33.7411 68.6946 33.5806 69.1801C33.0561 70.7669 34.2386 72.942 35.8954 73.4383C37.8237 74.0158 36.6535 75.0447 55.7572 55.9703C74.3241 37.4322 73.8419 37.967 73.5224 36.2648C73.3626 35.4137 72.3803 34.1833 71.4948 33.7258C70.8295 33.3818 69.776 33.3512 69.0018 33.6533ZM41.4189 37.0582C43.5711 37.9571 44.0959 40.7776 42.4221 42.4509C41.0632 43.809 39.1229 43.809 37.764 42.4509C35.1735 39.8613 38.0319 35.6438 41.4189 37.0582ZM64.4166 57.2051C59.1051 58.6329 55.819 64.1301 57.1725 69.324C58.5739 74.7022 64.0653 78.0198 69.3072 76.655C74.6721 75.2581 78.0064 69.7641 76.6496 64.5572C75.2354 59.13 69.679 55.7905 64.4166 57.2051ZM68.2328 63.8602C70.385 64.7591 70.9098 67.5796 69.236 69.2528C66.8824 71.6053 63.0256 69.4982 63.6449 66.198C64.015 64.2268 66.3101 63.0572 68.2328 63.8602Z" fill="url(#paint0_linear)"/>
<defs>
<linearGradient id="paint0_linear" x1="26.6746" y1="11.4535" x2="91.6282" y2="59.8296" gradientUnits="userSpaceOnUse">
<stop stop-color="white"/>
<stop offset="1" stop-color="white" stop-opacity="0"/>
</linearGradient>
</defs>
</svg>
