<svg width="19" height="19" viewBox="0 0 19 19" fill="none" xmlns="http://www.w3.org/2000/svg">
<g clip-path="url(#clip0)">
<path d="M7.86728 11.1324C6.05377 9.31884 5.64428 7.50532 5.55191 6.77874C5.52609 6.57783 5.59523 6.37636 5.73896 6.23363L7.20654 4.7667C7.42243 4.55095 7.46074 4.21471 7.29892 3.95593L4.96225 0.327582C4.78323 0.0410253 4.41565 -0.0623958 4.11347 0.0887714L0.362285 1.85544C0.117925 1.97577 -0.025804 2.2354 0.00194041 2.50636C0.198492 4.3736 1.01254 8.96373 5.52341 13.4749C10.0343 17.9861 14.6237 18.7998 16.492 18.9964C16.7629 19.0241 17.0226 18.8804 17.1429 18.636L18.9096 14.8849C19.0602 14.5833 18.9574 14.2167 18.6721 14.0374L15.0437 11.7014C14.7851 11.5394 14.4489 11.5774 14.2329 11.7931L12.766 13.2607C12.6233 13.4044 12.4218 13.4735 12.2209 13.4477C11.4943 13.3554 9.6808 12.9459 7.86728 11.1324Z" fill="#6346BF"/>
<path d="M15.0684 10.1552C14.7065 10.1552 14.4132 9.86186 14.4132 9.50002C14.4101 6.78747 12.212 4.58928 9.49941 4.58621C9.13757 4.58621 8.84424 4.29288 8.84424 3.93104C8.84424 3.5692 9.13757 3.27586 9.49941 3.27586C12.9353 3.27965 15.7198 6.06408 15.7235 9.50002C15.7235 9.86186 15.4302 10.1552 15.0684 10.1552Z" fill="#6346BF"/>
<path d="M18.3443 10.1552C17.9824 10.1552 17.6891 9.86184 17.6891 9.5C17.684 4.97907 14.0204 1.3154 9.49941 1.31035C9.13757 1.31035 8.84424 1.01701 8.84424 0.655173C8.84424 0.293331 9.13757 0 9.49941 0C14.7437 0.00577727 18.9937 4.25569 18.9994 9.5C18.9994 9.67376 18.9304 9.84041 18.8076 9.96328C18.6847 10.0861 18.518 10.1552 18.3443 10.1552Z" fill="#6346BF"/>
</g>
<defs>
<clipPath id="clip0">
<rect width="19" height="19" fill="white"/>
</clipPath>
</defs>
</svg>
