<svg width="42" height="42" viewBox="0 0 42 42" fill="none" xmlns="http://www.w3.org/2000/svg">
<rect width="42" height="42" fill="white"/>
<path d="M21.0958 0.000320434L21.0301 0C12.4194 0 5.41406 7.00597 5.41406 15.6176C5.41406 20.3389 7.82725 24.0213 10.516 27.6884L21.0093 41.9999C21.0093 41.9999 30.9273 28.5346 31.5477 27.6887C34.2365 24.0217 36.6496 20.3392 36.6496 15.6179C36.6496 7.02744 29.6786 0.0342865 21.0958 0.000320434ZM29.5636 26.2336C28.9426 27.0808 22.4265 36.0052 21.0407 37.8817L12.5001 26.2336C9.96935 22.7819 7.87467 19.6006 7.87467 15.6176C7.87467 8.38319 13.7428 2.49362 20.9689 2.46061H21.032C28.287 2.46061 34.1894 8.363 34.1894 15.6179C34.1894 19.6009 32.0944 22.7819 29.5636 26.2336Z" fill="#2DBDE9"/>
<path d="M21.0323 6.60181C16.0608 6.60181 12.0166 10.6463 12.0166 15.6176C12.0166 20.5891 16.0608 24.6336 21.0323 24.6336C26.0036 24.6336 30.0481 20.5891 30.0481 15.6176C30.0481 10.6463 26.0036 6.60181 21.0323 6.60181ZM21.0323 22.173C17.4175 22.173 14.4769 19.2324 14.4769 15.6176C14.4769 12.0031 17.4175 9.06242 21.0323 9.06242C24.6468 9.06242 27.5878 12.0031 27.5878 15.6176C27.5878 19.2324 24.6468 22.173 21.0323 22.173Z" fill="#2DBDE9"/>
</svg>
