<svg width="61" height="61" viewBox="0 0 61 61" fill="none" xmlns="http://www.w3.org/2000/svg">
<g clip-path="url(#clip0)">
<path d="M54.3699 17.9439C54.2093 17.0266 53.6427 16.231 52.8283 15.7792C52.075 15.3162 51.1485 15.2328 50.3246 15.5539C50.3246 15.489 50.3439 15.4271 50.3439 15.3611C50.3583 13.6943 49.0188 12.3314 47.3519 12.3169C46.981 12.3137 46.6126 12.3789 46.2652 12.5094C46.2652 12.4444 46.2845 12.3825 46.2845 12.3165C46.2845 10.635 44.9214 9.27197 43.24 9.27197C43.24 7.59048 41.8769 6.2274 40.1954 6.2274C40.1294 6.2274 40.0675 6.24263 40.0026 6.24669C40.2754 5.55062 40.2578 4.77413 39.9539 4.09114C39.5172 3.04102 38.5465 2.30943 37.4167 2.17915C36.4817 2.09872 35.5622 2.45722 34.9283 3.14935C34.3583 1.571 32.6168 0.753534 31.0385 1.32337C29.8286 1.76027 29.025 2.91149 29.032 4.1977C29.0348 2.519 27.6763 1.15592 25.9977 1.15301C24.9511 1.15123 23.9772 1.68809 23.4198 2.57393C22.7565 2.18562 21.9681 2.07094 21.2217 2.25425C20.0569 2.54183 19.1645 3.47893 18.9342 4.65641C18.7619 5.59566 19.0443 6.56104 19.6953 7.25951C18.7306 7.32269 17.8539 7.84267 17.3358 8.659C16.5849 8.21906 15.6785 8.13191 14.8575 8.42051C13.9821 8.72268 13.2906 9.40529 12.977 10.2767C12.722 10.9763 12.7365 11.7458 13.0176 12.4353C11.6913 12.7895 10.7676 13.9894 10.7646 15.3621C10.7646 15.4281 10.7798 15.49 10.7839 15.5549C9.96235 15.2349 9.03846 15.3171 8.28632 15.7772C7.46949 16.2287 6.90092 17.0257 6.73968 17.9449C6.55422 19.1594 7.12013 20.3658 8.17266 20.9996L8.73489 21.4523H12.2869V25.4254H47.8068V21.4502H52.3736L52.2316 21.3081C53.6848 20.8785 54.5979 19.4421 54.3699 17.9439Z" fill="#FDB62F"/>
<path d="M15.3314 59.9305L6.51945 25.127C5.9321 22.5832 7.51807 20.0449 10.0619 19.4574C10.4109 19.3769 10.7678 19.3361 11.1259 19.3363H11.1705C13.5493 19.3359 15.5579 21.1031 15.8602 23.4627L21.4206 59.9305H15.3314Z" fill="#DE0418"/>
<path d="M21.4207 59.9305L16.0146 24.6653C15.6822 22.0757 17.512 19.7071 20.1015 19.3747C20.3014 19.3491 20.5028 19.3361 20.7042 19.3363H20.8727C23.4366 19.336 25.5334 21.3796 25.5988 23.9427L27.5098 59.9305H21.4207Z" fill="#FCE9CC"/>
<path d="M25.605 24.1852L27.5099 59.9305H33.599L35.374 24.3091C35.5096 21.7018 33.5061 19.4784 30.8988 19.3426C30.8178 19.3384 30.7369 19.3363 30.656 19.3363H30.3343C27.7235 19.3342 25.6054 21.4491 25.6035 24.0599C25.6035 24.1017 25.604 24.1434 25.605 24.1852Z" fill="#DE0418"/>
<path d="M35.3982 23.8219L33.5989 59.9305H39.688L44.9388 24.783C45.3363 22.2026 43.5666 19.7888 40.9862 19.3913C40.748 19.3547 40.5075 19.3363 40.2665 19.3363H40.1193C37.6025 19.3361 35.5268 21.3083 35.3982 23.8219Z" fill="#FCE9CC"/>
<path d="M49.8365 19.3363C52.4472 19.3363 54.5637 21.4528 54.5637 24.0635C54.5637 24.4595 54.514 24.854 54.4156 25.2377L45.7771 59.9305H39.688L45.1601 23.345C45.515 21.0372 47.5016 19.3341 49.8365 19.3363Z" fill="#DE0418"/>
<path d="M17.3611 34.5591H43.7473V46.7374H17.3611V34.5591Z" fill="#FDB62F"/>
<path d="M10.2572 4.11346C10.2638 2.43755 8.91051 1.07371 7.23474 1.06712C6.11078 1.06268 5.07652 1.67996 4.54664 2.67122C4.42143 2.65067 4.29496 2.63824 4.1681 2.63367C2.48661 2.63367 1.12354 3.99675 1.12354 5.67824C1.12354 7.35972 2.48661 8.7228 4.1681 8.7228C4.30967 8.71849 4.45074 8.70428 4.59028 8.68018C5.41498 10.1378 7.26518 10.6508 8.72277 9.82607C10.1804 9.00138 10.6934 7.15117 9.86866 5.69359C9.85763 5.67418 9.84646 5.65489 9.83505 5.63574C10.1087 5.17487 10.2543 4.6493 10.2572 4.11346Z" fill="#FDB62F"/>
<path d="M59.985 6.14316C59.9916 4.46725 58.6383 3.10342 56.9625 3.09695C55.8386 3.09251 54.8043 3.70979 54.2744 4.70105C54.1492 4.6805 54.0227 4.66807 53.8959 4.6635C52.2144 4.6635 50.8513 6.02658 50.8513 7.70807C50.8513 9.38955 52.2144 10.7526 53.8959 10.7526C54.0375 10.7483 54.1785 10.7341 54.3181 10.71C55.1428 12.1676 56.993 12.6806 58.4506 11.8559C59.9081 11.0312 60.4212 9.181 59.5965 7.72342C59.5854 7.70401 59.5743 7.68472 59.5628 7.66544C59.8365 7.20457 59.9821 6.679 59.985 6.14316Z" fill="#FDB62F"/>
<path d="M55.3737 17.7957C55.1681 16.5712 54.4182 15.506 53.3349 14.8993C52.6984 14.5237 51.9699 14.3329 51.2311 14.3483C50.7435 12.5176 49.0656 11.2592 47.1716 11.3037C46.7903 9.8375 45.627 8.70391 44.1514 8.36063C43.8079 6.88516 42.6744 5.72201 41.2083 5.34042C41.2267 4.7716 41.1161 4.20607 40.8846 3.68621C40.2943 2.29687 38.9996 1.33479 37.4991 1.17038C36.7095 1.10239 35.9174 1.2687 35.2217 1.64838C33.8226 -0.0912068 31.2781 -0.367247 29.5385 1.03186C29.3556 1.17901 29.1857 1.34189 29.0311 1.51848C27.5568 -0.161612 24.9997 -0.328556 23.3196 1.14577C23.2487 1.20806 23.18 1.27276 23.1135 1.33974C22.4231 1.12028 21.6855 1.09643 20.9823 1.27073C19.4297 1.65663 18.2419 2.90807 17.9377 4.47868C17.8053 5.20684 17.8756 5.95745 18.1407 6.64844C17.7316 6.84545 17.3584 7.10957 17.0365 7.42988C16.22 7.16881 15.3403 7.182 14.5319 7.46743C13.3614 7.86957 12.4375 8.7823 12.0211 9.94774C11.8031 10.5534 11.7335 11.2024 11.8182 11.8404C10.8604 12.3817 10.162 13.2872 9.88181 14.3512C9.14389 14.3251 8.41446 14.5152 7.78309 14.8982C6.69758 15.5051 5.94557 16.5713 5.73816 17.7976C5.58035 18.8377 5.83533 19.8983 6.44856 20.7529C5.49256 22.0915 5.15969 23.7772 5.53519 25.3786L14.542 60.9452H46.5708L55.4001 25.4892C55.8107 23.8992 55.5148 22.2092 54.5882 20.8534C55.2579 19.9849 55.5419 18.8795 55.3737 17.7957ZM8.79186 16.655C9.28457 16.3433 9.89741 16.2882 10.438 16.5069C10.9649 16.6979 11.5469 16.4256 11.7379 15.8986C11.785 15.7684 11.8051 15.6302 11.7968 15.492C11.7968 15.4666 11.7826 15.3905 11.7796 15.3621C11.7848 14.4484 12.4 13.6507 13.2826 13.4136C13.8235 13.2668 14.1431 12.7093 13.9963 12.1684C13.9859 12.1301 13.9733 12.0925 13.9585 12.0557C13.7693 11.5973 13.7588 11.0845 13.9291 10.6187C14.1403 10.0412 14.599 9.58886 15.1794 9.38563C15.7259 9.19078 16.3307 9.24952 16.8295 9.54598C17.2999 9.81238 17.8965 9.66332 18.1864 9.20702C18.5304 8.66179 19.1158 8.31547 19.7594 8.2764C20.3186 8.23796 20.7408 7.75349 20.7023 7.19431C20.6866 6.96457 20.5931 6.74714 20.4373 6.57753C20.0004 6.11133 19.812 5.46487 19.9299 4.83706C20.0863 4.05156 20.6848 3.42856 21.4633 3.24069C21.9586 3.117 22.4826 3.19477 22.9207 3.45685C23.3911 3.72325 23.9877 3.57419 24.2775 3.11789C24.8814 2.17344 26.1365 1.89727 27.0809 2.50111C27.6603 2.87153 28.0127 3.51001 28.0173 4.1977C28.0173 4.75815 28.4717 5.21255 29.0321 5.21255C29.5926 5.21255 30.047 4.75815 30.047 4.1977C30.046 3.08009 30.9512 2.17331 32.0688 2.1723C32.9204 2.17154 33.6814 2.70408 33.9724 3.50455C34.0945 3.8359 34.3802 4.07997 34.7265 4.14898C35.0724 4.22053 35.4305 4.10484 35.6693 3.84453C36.0925 3.38416 36.7043 3.14453 37.3275 3.19502C38.0872 3.29295 38.7353 3.79239 39.0234 4.50215C39.2251 4.94615 39.2343 5.45371 39.0487 5.90468C38.8571 6.43139 39.1287 7.01379 39.6554 7.20547C39.7667 7.24594 39.8842 7.26674 40.0027 7.26662C40.0474 7.26662 40.1499 7.25241 40.1945 7.24734C41.3155 7.24734 42.2242 8.15601 42.2242 9.27704C42.2242 9.8375 42.6786 10.2919 43.2391 10.2919C44.3491 10.2918 45.2533 11.1833 45.2688 12.2932C45.2688 12.3186 45.2536 12.4261 45.2515 12.4515C45.2178 13.0109 45.6439 13.4919 46.2035 13.5256C46.3421 13.534 46.481 13.5138 46.6114 13.4664C46.8309 13.3825 47.0636 13.3382 47.2985 13.3354C48.4085 13.3353 49.3127 14.2269 49.3282 15.3367C49.3282 15.3621 49.313 15.4697 49.311 15.4951C49.2775 16.0545 49.7037 16.5353 50.2633 16.5689C50.4014 16.5771 50.5398 16.5571 50.6698 16.5099C51.2119 16.2918 51.8258 16.3473 52.32 16.6591C52.8664 16.9551 53.2499 17.4821 53.3633 18.0931C53.4302 18.5313 53.3507 18.9794 53.137 19.3677L53.1126 19.3525C52.9025 19.2069 52.6828 19.0757 52.455 18.9598C52.4002 18.9314 52.3454 18.906 52.2895 18.8796C52.0726 18.7753 51.8492 18.6853 51.6208 18.6096C51.6005 18.6036 51.5822 18.5944 51.5619 18.5883C51.3145 18.5124 51.0622 18.4534 50.8068 18.4118C50.7449 18.4016 50.684 18.3925 50.6221 18.3833C50.362 18.345 50.0996 18.3243 49.8366 18.3214C47.9176 18.3233 46.1268 19.2862 45.0668 20.886L45.0536 20.9073L45.0425 20.887C43.9811 19.2854 42.1879 18.3221 40.2666 18.3214H40.1194C38.2223 18.3251 36.4502 19.268 35.3871 20.8393C34.3242 19.2684 32.5525 18.3256 30.6559 18.3214H30.3342C28.4397 18.3219 26.6681 19.2592 25.6019 20.8251C24.5359 19.2599 22.7654 18.3227 20.8717 18.3214H20.7032C18.7849 18.3235 16.9947 19.2848 15.9334 20.8829C14.6652 18.9635 12.3682 17.9935 10.1081 18.4229C10.0066 18.4402 9.91327 18.4655 9.81585 18.4889C9.57456 18.5446 9.33734 18.6161 9.10545 18.703C9.01107 18.7385 8.91567 18.772 8.82332 18.8126C8.53687 18.9364 8.26134 19.0837 7.99926 19.2531C7.97896 19.2663 7.95562 19.2764 7.93532 19.2896L7.92619 19.2947C7.7425 18.9231 7.67831 18.5036 7.7425 18.0941C7.85629 17.4802 8.24219 16.951 8.79186 16.655ZM43.9353 24.6338L42.6048 33.5443H35.9331L36.4152 23.8737C36.4511 23.2082 36.6684 22.5653 37.0434 22.0145C37.7261 20.9801 38.881 20.3557 40.1204 20.3511H40.2676C41.511 20.3518 42.6714 20.9757 43.3578 22.0125C43.8721 22.7829 44.0782 23.7184 43.9353 24.6338ZM26.6239 24.1132C26.5947 22.0648 28.2317 20.3807 30.28 20.3515C30.2968 20.3513 30.3134 20.3511 30.3301 20.3511H30.6559C31.8972 20.3537 33.0548 20.9778 33.739 22.0135C34.1848 22.6729 34.4041 23.4593 34.3642 24.2543L33.8973 33.5443H27.1242L26.6259 24.169L26.6239 24.1132ZM17.615 22.0125C18.3012 20.9759 19.4612 20.3522 20.7042 20.3511H20.8727C22.8928 20.3632 24.5373 21.979 24.585 23.9985L24.5911 24.1091V24.1487L25.0874 33.5443H18.4249L17.0041 24.1974C16.9729 23.4226 17.1885 22.6578 17.6201 22.0135L17.615 22.0125ZM16.1211 58.9156L7.50807 24.8987C7.05303 22.8921 8.31082 20.8965 10.3174 20.4415C11.8259 20.0993 13.3889 20.725 14.2447 22.0135C14.5701 22.4924 14.7786 23.0408 14.8536 23.6149L14.9723 24.3933C14.9794 24.5263 14.9875 24.6592 15.0078 24.8185L16.3464 33.5443V47.7522H18.5274L18.7445 49.173L20.2384 58.9156H16.1211ZM22.2925 58.9156L21.2522 52.0938L20.5906 47.7522H25.8445L26.4392 58.9156H22.2925ZM32.6328 58.9156H28.4719L27.8792 47.7522H33.193L32.6328 58.9156ZM38.8133 58.9156H34.6656L35.2227 47.7522H40.4827L38.8133 58.9156ZM35.3242 45.7225H18.3761V35.574H42.7327V45.7225H35.3242ZM53.4292 24.9931L44.9836 58.9156H40.8663L42.5358 47.7522H44.7624V33.5443L46.1639 23.4972C46.4827 21.4719 48.3831 20.0885 50.4084 20.4073C52.4337 20.7261 53.817 22.6266 53.4982 24.6518C53.4802 24.7663 53.4569 24.8798 53.4282 24.9921L53.4292 24.9931Z" fill="black"/>
<path d="M11.2721 7.15803C11.2713 6.63563 11.1677 6.11831 10.9677 5.63575C11.1677 5.15318 11.2713 4.63586 11.2721 4.11346C11.2778 1.87774 9.47001 0.0605158 7.23429 0.0548073C5.97955 0.0516359 4.79407 0.630483 4.02506 1.622C1.78312 1.64102 -0.0188792 3.47385 0.000149324 5.71592C0.0191779 7.95799 1.85213 9.75986 4.09407 9.74083C5.51208 11.4694 8.06292 11.7211 9.79147 10.3031C10.733 9.53076 11.2767 8.3756 11.2721 7.15803ZM5.46717 8.17288L5.0521 7.5934L4.3762 7.6888C4.30745 7.70021 4.23793 7.70668 4.16816 7.70808C3.04712 7.70808 2.13845 6.7994 2.13845 5.67837C2.13845 4.55734 3.04712 3.64866 4.16816 3.64866C4.25252 3.65348 4.33662 3.66338 4.41984 3.67809L5.10791 3.76537L5.43876 3.15646C5.96369 2.17167 7.18748 1.79883 8.17227 2.32377C8.83306 2.67592 9.24484 3.36475 9.24243 4.11346C9.24065 4.4712 9.14247 4.82171 8.95827 5.12832L8.66092 5.63575L8.95827 6.14317C9.14247 6.44979 9.24065 6.80029 9.24243 7.15803C9.24243 8.27906 8.33375 9.18774 7.21272 9.18774C6.49078 9.18799 5.82415 8.80044 5.46717 8.17288Z" fill="black"/>
<path d="M60.9999 6.14316C61.0056 3.90743 59.1978 2.09021 56.9621 2.0845C55.7073 2.08133 54.5218 2.66018 53.7528 3.65169C51.5109 3.67072 49.7089 5.50367 49.7279 7.74562C49.747 9.98756 51.5799 11.7896 53.8218 11.7705C55.2398 13.4991 57.7907 13.7508 59.5192 12.3328C60.4606 11.5605 61.0045 10.4054 60.9999 9.18772C60.999 8.66533 60.8955 8.14801 60.6954 7.66544C60.8955 7.18275 60.999 6.66556 60.9999 6.14316ZM58.686 8.17287C58.8702 8.47948 58.9684 8.82999 58.9702 9.18772C58.9702 10.3088 58.0615 11.2174 56.9405 11.2174C56.2184 11.2177 55.5519 10.8301 55.1949 10.2026L54.7799 9.6231L54.104 9.71849C54.035 9.73093 53.9651 9.73841 53.8949 9.74082C52.7739 9.74082 51.8652 8.83214 51.8652 7.71111C51.8652 6.59008 52.7739 5.6814 53.8949 5.6814C53.9793 5.68622 54.0634 5.69612 54.1466 5.71083L54.8347 5.79811L55.1655 5.1892C55.6893 4.2039 56.9128 3.82967 57.8981 4.35359C58.5596 4.70524 58.9722 5.39407 58.9702 6.14316C58.9684 6.5009 58.8702 6.8514 58.686 7.15801L58.3887 7.66544L58.686 8.17287Z" fill="black"/>
</g>
<defs>
<clipPath id="clip0">
<rect width="61" height="61" fill="white"/>
</clipPath>
</defs>
</svg>
