<svg width="78" height="78" viewBox="0 0 78 78" fill="none" xmlns="http://www.w3.org/2000/svg">
<g clip-path="url(#clip0)">
<path d="M74.3575 34.9331C74.3575 38.584 73.6047 42.0582 72.2467 45.2098C70.9352 48.2549 69.057 50.9983 66.7463 53.3072C62.0439 58.0102 55.5472 60.9185 48.3722 60.9185H43.2705C28.9198 60.9185 17.2852 49.2856 17.2852 34.9331H74.3575Z" fill="#F29500"/>
<path d="M74.3575 34.9331C74.3575 38.584 73.6047 42.0582 72.2467 45.2098C67.812 48.7333 62.1997 50.8394 56.0935 50.8394H50.9935C40.2152 50.8394 30.9704 44.2785 27.0327 34.9331H74.3575Z" fill="#FFA90B"/>
<path d="M76.8533 31.7006V34.6808C76.8533 36.0739 75.7244 37.2046 74.3313 37.2046H17.3131C15.9194 37.2046 14.7893 36.0739 14.7893 34.6808V31.7006C14.7893 30.3057 15.9194 29.1774 17.3131 29.1774H74.3313C75.7244 29.1774 76.8533 30.3057 76.8533 31.7006Z" fill="#FFB52D"/>
<path d="M76.8532 31.7006V32.6962H27.013C25.6199 32.6962 24.491 31.5673 24.491 30.1742V29.1774H74.3312C75.7243 29.1774 76.8532 30.3057 76.8532 31.7006Z" fill="#FFCD71"/>
<path d="M75.2881 59.3635L49.0124 72.6864C45.4817 74.9329 40.9905 74.8942 37.5164 72.6561C35.8858 71.6045 35.3735 71.5034 26.7976 67.2633C22.9872 65.3983 19.5154 64.805 13.8567 64.1076V47.6485H32.6223C33.7881 47.6485 34.9039 48.1121 35.7281 48.9363C35.9864 49.1939 34.0166 47.2248 44.1695 57.3753C44.9408 58.1465 45.3228 59.176 45.2942 60.1948L45.4746 60.071L73.0172 53.137C76.6663 52.6758 78.3011 57.4514 75.2881 59.3635Z" fill="#F2BB88"/>
<path d="M44.2743 62.6508C42.8258 64.1486 40.4431 64.1718 38.9654 62.6972L31.9475 55.6781C31.5726 55.3032 31.065 55.0925 30.5348 55.0925H13.8567V47.6485H32.6229C33.7887 47.6485 34.9051 48.1115 35.7287 48.9351C35.9864 49.1933 34.0166 47.2242 44.1695 57.3747C45.6019 58.8071 45.7037 61.1714 44.2743 62.6508Z" fill="#F2D1A5"/>
<path d="M14.7958 47.192V67.5401C14.7958 67.8293 14.7678 68.1137 14.7178 68.3893C14.7178 68.3893 14.7178 68.3893 14.716 68.3893C14.3155 70.5423 12.416 72.1859 10.1499 72.1859H5.79262C3.23729 72.1859 1.14673 70.096 1.14673 67.5401V47.192C1.14673 44.9146 2.80644 43.0079 4.97615 42.6194C5.24216 42.5706 5.51471 42.5462 5.79262 42.5462H10.1499C12.7052 42.5462 14.7958 44.6367 14.7958 47.192Z" fill="#F44545"/>
<path d="M14.7959 47.192V67.5401C14.7959 67.8293 14.7679 68.1137 14.7179 68.3893C14.7179 68.3893 14.7179 68.3893 14.7161 68.3893C14.4501 68.438 14.1776 68.4624 13.8979 68.4624H9.54237C6.98705 68.4624 4.89648 66.3719 4.89648 63.8166V43.468C4.89648 43.1793 4.92445 42.8949 4.97623 42.6194C5.24223 42.5706 5.51479 42.5462 5.79269 42.5462H10.15C12.7053 42.5462 14.7959 44.6367 14.7959 47.192Z" fill="#FB5858"/>
<path d="M10.7187 64.8675C10.7187 66.385 9.48866 67.615 7.97118 67.615C6.45369 67.615 5.22363 66.385 5.22363 64.8675C5.22363 63.35 6.45369 62.1199 7.97118 62.1199C9.48866 62.1199 10.7187 63.35 10.7187 64.8675Z" fill="#C42D2D"/>
<path d="M5.69923 62.9424C5.09462 62.7507 4.45073 63.0846 4.25851 63.688C3.46049 66.2023 5.34872 68.7624 7.97129 68.7624C10.119 68.7624 11.8662 67.0152 11.8662 64.8675C11.8662 63.3089 10.9408 61.9039 9.50901 61.2886C8.92761 61.0381 8.25277 61.307 8.00224 61.889C7.7523 62.4704 8.02069 63.1453 8.60269 63.3958C10.2011 64.0831 9.69587 66.4683 7.97129 66.4683C6.88704 66.4683 6.11877 65.4096 6.44488 64.3825C6.6365 63.7791 6.30266 63.134 5.69923 62.9424Z" fill="black"/>
<path d="M57.7943 10.642C58.3025 10.642 58.716 11.0556 58.716 11.5638V13.9281C58.716 14.5619 59.2296 15.0755 59.8634 15.0755C60.4966 15.0755 61.0101 14.5619 61.0101 13.9281V11.5638C61.0101 9.79106 59.5676 8.34856 57.7943 8.34856C57.286 8.34856 56.8725 7.93497 56.8725 7.42676V3.58424C56.8725 2.95107 56.3589 2.4375 55.7257 2.4375C55.0919 2.4375 54.5784 2.95107 54.5784 3.58424V7.42676C54.5784 9.19954 56.0215 10.642 57.7943 10.642Z" fill="black"/>
<path d="M33.8489 10.642C34.3571 10.642 34.7707 11.0556 34.7707 11.5638V13.9281C34.7707 14.5619 35.2837 15.0755 35.9175 15.0755C36.5513 15.0755 37.0642 14.5619 37.0642 13.9281V11.5638C37.0642 9.79106 35.6217 8.34856 33.8489 8.34856C33.3401 8.34856 32.9271 7.93497 32.9271 7.42676V3.58424C32.9271 2.95107 32.4136 2.4375 31.7798 2.4375C31.1466 2.4375 30.6331 2.95107 30.6331 3.58424V7.42676C30.6331 9.19954 32.0756 10.642 33.8489 10.642Z" fill="black"/>
<path d="M50.8942 17.4719C51.722 17.4719 52.3963 18.1456 52.3963 18.9739V22.0012C52.3963 22.6343 52.9092 23.1479 53.543 23.1479C54.1768 23.1479 54.6897 22.6343 54.6897 22.0012V18.9739C54.6897 16.881 52.9872 15.1778 50.8942 15.1778C50.0659 15.1778 49.3922 14.5042 49.3922 13.6758V8.75618C49.3922 8.123 48.8787 7.60944 48.2455 7.60944C47.6117 7.60944 47.0981 8.123 47.0981 8.75618V13.6758C47.0981 15.7688 48.8013 17.4719 50.8942 17.4719Z" fill="black"/>
<path d="M78 34.6808V31.7006C78 29.6761 76.3546 28.0301 74.3313 28.0301H25.8479C25.2129 28.0301 24.7005 28.5442 24.7005 29.1774C24.7005 29.8106 25.2129 30.3241 25.8479 30.3241H74.3313C75.09 30.3241 75.7059 30.9407 75.7059 31.7006C75.6363 34.9468 75.9386 34.7034 75.4994 35.4027C75.2596 35.796 74.8252 36.0573 74.3313 36.0573C72.8304 36.0573 19.0537 36.0573 17.313 36.0573C16.8191 36.0573 16.3847 35.796 16.1431 35.4027C15.7896 34.8403 15.9955 34.4606 15.9366 31.7006C15.9366 30.9407 16.5543 30.3241 17.313 30.3241H21.2597C21.8929 30.3241 22.407 29.8106 22.407 29.1774C22.407 28.5442 21.8929 28.0301 21.2597 28.0301H17.313C15.2879 28.0301 13.6425 29.6761 13.6425 31.7006V34.6808C13.6425 36.3661 14.7851 37.7914 16.3371 38.218C16.6947 41.1697 17.5285 43.9762 18.7579 46.5571H15.9074C15.5908 43.6608 13.1289 41.3988 10.1499 41.3988H5.79263C2.59818 41.3988 0 43.9976 0 47.192V47.9919C0 48.625 0.513565 49.1386 1.14674 49.1386C1.77992 49.1386 2.29408 48.625 2.29408 47.9919V47.192C2.29408 45.2622 3.86453 43.6929 5.79263 43.6929H10.1499C11.8608 43.6929 13.2908 44.9301 13.5907 46.5571C13.6806 47.0433 13.6485 45.7763 13.6485 67.5401C13.6485 69.4705 12.078 71.041 10.1499 71.041H5.79263C3.86453 71.041 2.29408 69.4705 2.29408 67.5401V52.7324C2.29408 52.0992 1.77992 51.5856 1.14674 51.5856C0.513565 51.5856 0 52.0992 0 52.7324V67.5401C0 70.7351 2.59818 73.3345 5.79263 73.3345H10.1499C13.3426 73.3345 15.9425 70.7351 15.9425 67.5401V65.5108C18.7454 66.1065 21.9964 66.1547 26.3936 68.3077C35.2051 72.6602 35.4384 72.6352 36.9713 73.6219C40.8186 76.1017 45.7543 76.1296 49.6319 73.688L60.5376 68.1595C61.1017 67.8721 61.3279 67.1824 61.0405 66.6183C60.7548 66.0523 60.0651 65.8274 59.4992 66.1136C47.777 72.0586 48.5405 71.6646 48.4483 71.7212C45.3121 73.7189 41.3155 73.6927 38.2145 71.6956C36.5119 70.5965 35.974 70.4858 27.401 66.2463C22.5909 63.8927 18.9864 63.8291 15.9425 63.1822V48.8512H32.7093C33.5733 48.8512 34.3868 49.1874 34.9986 49.7992L43.4203 58.2209C45.0551 59.8556 43.9958 62.6633 41.666 62.6633C40.4639 62.6633 39.8206 61.8694 39.7808 61.842C33.596 55.6555 32.4564 54.5153 32.2885 54.3468C32.2874 54.3463 32.2868 54.3457 32.2862 54.3451C32.2814 54.3403 32.2755 54.3344 32.2707 54.3296C32.2731 54.3314 32.2755 54.3338 32.2784 54.3367C32.2743 54.3326 32.2689 54.3278 32.263 54.3213C31.8148 53.8732 31.0882 53.8732 30.6401 54.3213C30.192 54.7694 30.192 55.496 30.6401 55.9441C31.8559 57.1599 36.9612 62.2675 38.2288 63.5339C40.9864 66.282 45.7388 64.8348 46.419 61.0119C46.7785 61.0274 73.0643 54.2986 73.4731 54.2986C75.675 54.2986 76.5444 57.1783 74.7121 58.4L63.7273 63.9695C63.1631 64.2557 62.937 64.9455 63.2227 65.5108C63.5154 66.0851 64.2105 66.2975 64.7639 66.0154C76.4879 60.0699 75.819 60.4162 75.9005 60.3632C77.2157 59.5253 78 58.0971 78 56.5374C78 53.4393 74.9692 51.5106 72.7394 52.0688L68.5124 53.1329C72.1871 49.0624 74.6234 43.8875 75.3072 38.218C76.8574 37.7902 78 36.3661 78 34.6808ZM63.9814 54.2742L46.3012 58.7244C46.0739 57.946 45.6543 57.2116 45.0432 56.5999L36.6196 48.1769C35.5752 47.1325 34.1869 46.5571 32.7093 46.5571H21.324C19.9892 44.0464 19.0727 41.2798 18.6675 38.3513H72.9762C72.1003 44.7147 68.8106 50.3728 63.9814 54.2742Z" fill="black"/>
</g>
<defs>
<clipPath id="clip0">
<rect width="78" height="78" fill="white"/>
</clipPath>
</defs>
</svg>
