<svg width="43" height="37" viewBox="0 0 43 37" fill="none" xmlns="http://www.w3.org/2000/svg">
<path fill-rule="evenodd" clip-rule="evenodd" d="M18.1347 3.85668L8.92695 7.71838H6.5077C4.64521 7.71838 3.95838 7.75234 3.52371 7.86609C1.86689 8.29958 0.59074 9.58546 0.156841 11.2585C-0.0522802 12.0649 -0.0522802 18.8086 0.156841 19.615C0.59074 21.2881 1.86689 22.574 3.52371 23.0074C3.95848 23.1212 4.65251 23.1555 6.5417 23.1566C7.89104 23.1575 9.04741 23.1915 9.11148 23.2324C9.20004 23.289 9.23453 24.6804 9.25557 29.0439L9.28323 34.781L9.54211 35.2737C9.92548 36.0037 10.215 36.3042 10.8873 36.6703L11.4926 37H13.846H16.1995L16.8048 36.6703C17.4771 36.3042 17.7666 36.0037 18.15 35.2737L18.4089 34.781L18.4381 30.9842C18.465 27.469 18.4793 27.1909 18.6302 27.2329C18.7198 27.2578 20.7349 28.0919 23.1084 29.0865C27.0225 30.7267 27.4633 30.8904 27.8503 30.8465C28.3103 30.7945 28.6559 30.5828 28.9694 30.161C29.1674 29.8946 29.1675 29.8886 29.1675 15.4368C29.1675 0.984962 29.1674 0.978884 28.9694 0.712503C28.6436 0.274099 28.2975 0.0717809 27.8057 0.0323206C27.3763 -0.00221912 26.6685 0.277669 18.1347 3.85668ZM36.2488 1.67923C33.8319 2.89053 32.8278 3.4425 32.6456 3.65996C31.8163 4.64984 32.5565 6.17471 33.8665 6.17471C34.3499 6.17471 40.8038 2.93376 41.1549 2.51475C41.9842 1.52486 41.2439 0 39.934 0C39.6932 0 38.6611 0.470242 36.2488 1.67923ZM26.1184 21.2106L26.0936 26.9844L17.8325 23.5279L9.57141 20.0713L6.95072 20.0695C4.01506 20.0676 3.87404 20.0422 3.41229 19.4344L3.13544 19.0701L3.10797 15.5628C3.07733 11.6422 3.0804 11.6208 3.74158 11.1139L4.08057 10.854L6.922 10.8034L9.76353 10.7528L17.9286 7.32069L26.0936 3.88852L26.1184 9.66264C26.132 12.8384 26.132 18.035 26.1184 21.2106ZM34.7341 14.027C34.0976 14.3094 33.7323 15.0477 33.8684 15.7765C33.9526 16.2269 34.4318 16.7602 34.8679 16.8885C35.0978 16.9561 36.404 16.9816 38.6464 16.962C41.9336 16.9335 42.0845 16.9241 42.3387 16.7333C42.8428 16.3552 43 16.0468 43 15.4368C43 14.8267 42.8428 14.5184 42.3387 14.1403C42.0836 13.9489 41.9409 13.9405 38.5503 13.9192C35.7675 13.9017 34.9655 13.9243 34.7341 14.027ZM13.8594 25.2195L15.335 25.8366L15.36 29.8988L15.3851 33.9609H13.8471H12.3091V29.2816C12.3091 26.708 12.3259 24.6023 12.3465 24.6023C12.367 24.6023 13.0478 24.88 13.8594 25.2195ZM33.1972 24.8346C32.5738 25.1072 32.1901 25.8643 32.3269 26.5514C32.4682 27.2607 32.6926 27.4119 36.2418 29.1907C39.7968 30.9724 39.9566 31.0283 40.6091 30.7173C41.5237 30.2814 41.7924 29.1198 41.1549 28.3588C40.9727 28.1413 39.9686 27.5894 37.5517 26.3781C34.0274 24.6118 33.8501 24.5489 33.1972 24.8346Z" fill="#6346BF"/>
</svg>
