<svg width="10" height="10" viewBox="0 0 10 10" fill="none" xmlns="http://www.w3.org/2000/svg">
<g clip-path="url(#clip0)">
<path d="M0.0143585 3.85264C0.0488119 3.74656 0.140471 3.66926 0.250823 3.65324L3.35087 3.20276L4.73729 0.393647C4.78662 0.293647 4.88848 0.230347 4.99998 0.230347C5.11151 0.230347 5.21334 0.293647 5.2627 0.393647L6.64918 3.20276L9.74916 3.65324C9.8595 3.66926 9.95119 3.74656 9.98565 3.85262C10.0201 3.95869 9.99137 4.07512 9.91151 4.15295L7.66839 6.33954L8.19784 9.42709C8.21671 9.53701 8.17151 9.64806 8.0813 9.71363C8.03026 9.7507 7.96982 9.76957 7.90907 9.76957C7.86243 9.76957 7.81564 9.75845 7.77278 9.73591L5 8.27815L2.22734 9.73589C2.12861 9.78779 2.00902 9.77916 1.9188 9.71361C1.82859 9.64806 1.78337 9.53697 1.80222 9.42705L2.33185 6.33954L0.08848 4.15293C0.00863647 4.07512 -0.020133 3.95869 0.0143585 3.85264Z" fill="#32C1DB"/>
</g>
<defs>
<clipPath id="clip0">
<rect width="10" height="10" fill="white" transform="matrix(-1 0 0 1 10 0)"/>
</clipPath>
</defs>
</svg>
