<svg width="76" height="76" viewBox="0 0 76 76" fill="none" xmlns="http://www.w3.org/2000/svg">
<path fill-rule="evenodd" clip-rule="evenodd" d="M51.4766 58.9228C50.795 57.6816 49.4738 56.8359 47.9634 56.8359H39.8892C38.7026 56.8359 38.5344 56.6382 37.7896 55.9396C31.8359 50.3351 26.9762 50.6086 21.0268 52.9564C19.7477 53.4614 19.5794 53.4571 18.4055 53.5075H15.3171V68.592H19.9411C20.5681 68.592 20.5134 68.6214 21.4348 68.8697L36.8007 72.9806C42.2031 74.4405 44.3701 75.787 49.5032 72.3662L68.4413 58.8765C70.1705 57.6437 70.8143 55.3631 69.6951 53.5539C68.5801 51.7446 66.266 51.3279 64.3726 52.3L51.4766 58.9228Z" fill="#FFDCD5"/>
<path fill-rule="evenodd" clip-rule="evenodd" d="M15.3173 68.592V53.5075V53.2594C15.3173 51.9088 14.2107 50.802 12.8601 50.802H6.92323C5.58109 50.802 4.47868 51.9003 4.47021 53.2467V53.2594V68.8403V68.8529C4.47868 70.1952 5.58094 71.2933 6.92323 71.2933H12.86C14.2106 71.2933 15.3172 70.1867 15.3172 68.8403V68.592H15.3173Z" fill="#F74F43"/>
<path fill-rule="evenodd" clip-rule="evenodd" d="M67.7639 20.4228C67.2506 18.1549 66.3585 16.0301 65.151 14.1197L66.5142 12.7565C67.2295 12.0412 67.2295 10.8673 66.5142 10.152L62.8622 6.50391C62.1469 5.78445 60.973 5.78445 60.2577 6.50391L58.8945 7.86713C56.9885 6.65947 54.8637 5.76338 52.5916 5.24994V3.32728C52.5916 2.31318 51.7627 1.48433 50.7486 1.48433H45.5903C44.5763 1.48433 43.7473 2.31318 43.7473 3.32728V5.25009C41.4752 5.76338 39.3504 6.65962 37.4402 7.86728L36.077 6.50406C35.3617 5.7846 34.1879 5.7846 33.4726 6.50406L29.8247 10.1521C29.1094 10.8674 29.1094 12.0414 29.8247 12.7567L31.1879 14.1199C29.9804 16.0301 29.0841 18.1551 28.575 20.423H26.6479C25.6339 20.423 24.8049 21.2518 24.8049 22.2659V27.4288C24.8049 28.4386 25.6338 29.2717 26.6479 29.2717H28.575C29.0841 31.5396 29.9804 33.6645 31.1879 35.5748L29.8247 36.938C29.1094 37.6533 29.1094 38.8273 29.8247 39.5426L33.4726 43.1906C34.1879 43.9101 35.3617 43.9101 36.077 43.1906L37.4402 41.8274C39.3504 43.0351 41.4752 43.9312 43.7473 44.4403V35.0823C39.2999 33.4329 36.1107 29.1411 36.1107 24.1383C36.1107 20.1453 38.1429 16.6066 41.227 14.4986C44.4626 12.2896 43.8358 15.7819 43.8358 16.3709V23.3767C43.8358 25.8255 45.7586 27.8494 48.1696 28.0093C50.5805 27.8494 52.4991 25.8255 52.4991 23.3767V16.3709C52.4991 15.7818 51.8764 12.2894 55.1078 14.4986C58.192 16.6066 60.2242 20.1453 60.2242 24.1383C60.2242 29.1411 57.0349 33.4329 52.5917 35.0823V44.4402C54.8638 43.931 56.9886 43.0348 58.8947 41.8273L60.2579 43.1905C60.9732 43.9099 62.147 43.9099 62.8623 43.1905L66.5144 39.5424C67.2297 38.8271 67.2297 37.6532 66.5144 36.9379L65.1511 35.5747C66.3587 33.6645 67.2508 31.5395 67.764 29.2716H69.6868C70.7008 29.2716 71.5298 28.4384 71.5298 27.4286V22.2658C71.5298 21.2517 70.7009 20.4228 69.6868 20.4228H67.7639Z" fill="#FDB62F"/>
<path fill-rule="evenodd" clip-rule="evenodd" d="M52.5916 44.4402V35.0823C57.0348 33.4329 60.2241 29.1411 60.2241 24.1383C60.2241 20.1453 58.1919 16.6066 55.1077 14.4986C51.8763 12.2896 52.499 15.7819 52.499 16.3709V23.3767C52.499 25.8255 50.5803 27.8494 48.1695 28.0093C45.7586 27.8494 43.8357 25.8255 43.8357 23.3767V16.3709C43.8357 15.7818 44.4627 12.2894 41.227 14.4986C38.1428 16.6066 36.1106 20.1453 36.1106 24.1383C36.1106 29.1411 39.2998 33.4329 43.7472 35.0823V44.4402V46.3673C43.7472 47.3814 44.5761 48.2102 45.5902 48.2102H50.7485C51.7625 48.2102 52.5915 47.3814 52.5915 46.3673V44.4402H52.5916Z" fill="#F3EFF0"/>
<path d="M69.6866 18.9385H68.9163C68.4609 17.3391 67.8247 15.8046 67.016 14.3538L67.5636 13.8061C68.1901 13.1799 68.535 12.3446 68.535 11.4542C68.535 10.5637 68.1901 9.72864 67.5632 9.10166L63.9147 5.45746C63.2881 4.82706 62.4518 4.48003 61.5598 4.48003C60.6678 4.48003 59.8314 4.82706 59.208 5.45435L58.661 6.00132C57.2092 5.19013 55.6741 4.55276 54.0757 4.09751V3.32729C54.0759 1.49265 52.5834 0 50.7486 0H45.5902C43.7556 0 42.2629 1.49265 42.2629 3.32729V4.09751C40.6649 4.55261 39.1289 5.19013 37.6741 6.00192L37.1296 5.45746C36.5028 4.82706 35.6665 4.48003 34.7746 4.48018C33.8827 4.48018 33.0464 4.82736 32.423 5.45449L28.7752 9.1024C28.1487 9.72864 27.8038 10.5639 27.8038 11.4543C27.8038 12.3448 28.1487 13.1799 28.7751 13.8061L29.3225 14.3537C28.5104 15.8089 27.8739 17.3437 27.421 18.9385H26.6478C24.8132 18.9385 23.3206 20.4312 23.3206 22.2658V27.4286C23.3206 29.2633 24.8132 30.7559 26.6478 30.7559H27.421C27.8739 32.3505 28.5104 33.8853 29.3225 35.3407L28.7751 35.8883C28.1485 36.5145 27.8037 37.3498 27.8037 38.2402C27.8037 39.1305 28.1485 39.9658 28.7749 40.592L32.4198 44.237C33.0464 44.8674 33.8825 45.2144 34.7744 45.2144H34.7746C35.6665 45.2144 36.503 44.8674 37.1265 44.2401L37.674 43.6925C39.1302 44.505 40.6662 45.1417 42.2628 45.5944V46.3673C42.2628 48.2019 43.7554 49.6946 45.5901 49.6946H50.7484C52.5831 49.6946 54.0757 48.2019 54.0757 46.3673V45.5944C55.6727 45.1415 57.2075 44.5052 58.661 43.6931L59.2049 44.237C59.8314 44.8674 60.6677 45.2144 61.5596 45.2144C62.4517 45.2144 63.2881 44.8672 63.9109 44.2407L67.5636 40.592C68.19 39.9656 68.5348 39.1304 68.5348 38.2401C68.5348 37.3496 68.19 36.5145 67.5636 35.8883L67.0159 35.3406C67.8246 33.8898 68.4606 32.3553 68.9161 30.7559H69.6865C71.5211 30.7559 73.0138 29.2633 73.0138 27.4286V22.2658C73.0139 20.4312 71.5214 18.9385 69.6866 18.9385ZM51.1072 46.3671C51.1072 46.5616 50.943 46.7257 50.7486 46.7257H45.5902C45.3958 46.7257 45.2316 46.5616 45.2316 46.3671V44.44V35.0823C45.2316 34.4616 44.8454 33.9064 44.2635 33.6906C40.2748 32.2113 37.595 28.3725 37.595 24.1383C37.595 20.7827 39.2659 17.637 42.0639 15.7245C42.1895 15.6387 42.3005 15.5686 42.3976 15.5112C42.3922 15.7041 42.3786 15.8876 42.3713 15.9833C42.3602 16.134 42.3512 16.2529 42.3512 16.3709V23.3765C42.3512 26.5921 44.8638 29.2775 48.071 29.4902C48.1364 29.4945 48.2021 29.4945 48.2675 29.4902C51.4725 29.2777 53.9831 26.5922 53.9831 23.3765V16.3709C53.9831 16.2535 53.9743 16.1353 53.9634 15.9856C53.9562 15.8894 53.9426 15.7049 53.9374 15.511C54.0342 15.5683 54.1446 15.6382 54.2697 15.7239C57.0685 17.6369 58.7394 20.7825 58.7394 24.1381C58.7394 28.3719 56.061 32.2109 52.0747 33.6906C51.493 33.9066 51.1069 34.4616 51.1069 35.0822V44.4399V46.3671H51.1072ZM70.0453 27.4286C70.0453 27.6197 69.8777 27.7872 69.6866 27.7872H67.7638C67.0704 27.7872 66.4692 28.2674 66.3162 28.9438C65.8461 31.0209 65.0319 32.9849 63.8963 34.7814C63.5255 35.368 63.6107 36.1334 64.1014 36.6241L65.4648 37.9875C65.5532 38.0759 65.5664 38.1837 65.5664 38.2401C65.5664 38.2963 65.5532 38.4043 65.4652 38.4921L61.8094 42.1439C61.7259 42.2279 61.6274 42.2456 61.5598 42.2456C61.4922 42.2456 61.394 42.2279 61.3073 42.1406L59.9439 40.7773C59.4524 40.286 58.6864 40.2013 58.0998 40.573C56.8327 41.3759 55.4841 42.013 54.0759 42.4838V36.0695C58.6809 33.9265 61.7083 29.2563 61.7083 24.138C61.7083 19.8012 59.5538 15.7395 55.9454 13.2729C55.3926 12.8952 53.7116 11.7459 52.2414 12.5921C50.7977 13.4233 50.9416 15.3718 51.0029 16.2039C51.0082 16.2762 51.0134 16.3369 51.0146 16.3709V23.3765C51.0146 25.0013 49.7728 26.3635 48.1694 26.5201C46.5638 26.3633 45.3201 25.0011 45.3201 23.3765L45.3199 16.3816C45.3213 16.3369 45.3266 16.2762 45.3319 16.2036C45.3938 15.3719 45.5389 13.4245 44.0964 12.5928C42.6267 11.7451 40.9432 12.8949 40.3894 13.2729C36.7807 15.7396 34.6263 19.8014 34.6263 24.1381C34.6263 29.2572 37.6554 33.9276 42.2629 36.0701V42.484C40.8544 42.0131 39.5041 41.3758 38.2334 40.5724C37.9891 40.4181 37.7142 40.3428 37.4406 40.3428C37.0572 40.3428 36.6769 40.4911 36.3906 40.7776L35.0244 42.1439C34.9408 42.2281 34.8424 42.2457 34.7747 42.2457C34.7071 42.2457 34.6089 42.2281 34.5223 42.1409L30.8743 38.4929C30.7857 38.4044 30.7725 38.2965 30.7725 38.2402C30.7725 38.1838 30.7857 38.0761 30.8743 37.9875L32.2376 36.6241C32.7283 36.1334 32.8135 35.368 32.4427 34.7814C31.3012 32.9754 30.4872 31.0123 30.0234 28.9464C29.8714 28.2688 29.2696 27.7871 28.5751 27.7871H26.6481C26.4571 27.7871 26.2895 27.6195 26.2895 27.4285V22.2657C26.2895 22.0712 26.4537 21.907 26.6481 21.907H28.5751C29.2696 21.907 29.8712 21.4254 30.0234 20.7478C30.4872 18.6819 31.3011 16.7185 32.4427 14.9127C32.8135 14.3261 32.7283 13.5608 32.2376 13.07L30.8742 11.7067C30.7857 11.6182 30.7725 11.5104 30.7725 11.454C30.7725 11.3976 30.7857 11.2899 30.8743 11.2013L34.5254 7.55008C34.6089 7.46607 34.7072 7.4484 34.7749 7.4484C34.8426 7.4484 34.9408 7.46607 35.0275 7.5532L36.3907 8.91656C36.8818 9.40743 37.6471 9.49249 38.2335 9.1217C40.0372 7.98143 42.0026 7.16579 44.0746 6.69778C44.7514 6.54489 45.2319 5.94358 45.2319 5.24995V3.32729C45.2319 3.13284 45.3961 2.96867 45.5905 2.96867H50.7489C50.9433 2.96867 51.1075 3.13284 51.1075 3.32729V5.25025C51.1075 5.94403 51.588 6.54519 52.2647 6.69807C54.3386 7.16653 56.3018 7.98173 58.1001 9.12125C58.6868 9.49293 59.4527 9.40832 59.9442 8.91701L61.3105 7.55053C61.3941 7.46651 61.4925 7.44885 61.5601 7.44885C61.6277 7.44885 61.726 7.46651 61.8133 7.55424L65.465 11.2017C65.5535 11.2902 65.5667 11.3979 65.5667 11.4543C65.5667 11.5107 65.5535 11.6185 65.4649 11.7071L64.1017 13.0705C63.611 13.5612 63.5258 14.3265 63.8965 14.9131C65.0321 16.7096 65.8464 18.6736 66.3165 20.7507C66.4695 21.4272 67.0707 21.9073 67.7641 21.9073H69.687C69.8814 21.9073 70.0456 22.0715 70.0456 22.2659V27.4286H70.0453Z" fill="black"/>
<path d="M56.8183 65.3585C56.2386 65.9382 56.2386 66.8781 56.8183 67.4579C57.1082 67.7476 57.488 67.8926 57.8679 67.8926C58.2477 67.8926 58.6276 67.7476 58.9175 67.4579L58.9216 67.4537C59.5013 66.8741 59.4992 65.9362 58.9194 65.3566C58.3396 64.7769 57.3979 64.7792 56.8183 65.3585Z" fill="black"/>
<path d="M63.6946 50.9796L51.9103 57.0314C50.9114 55.9968 49.5116 55.3514 47.9633 55.3514H39.8891C39.437 55.3514 39.3266 55.3155 39.3191 55.3129C39.2537 55.2785 39.0468 55.0841 38.8807 54.9279L38.807 54.8587C32.2748 48.7096 26.7568 49.0992 20.4817 51.5757C19.4664 51.9764 19.4468 51.9773 18.4272 52.0208L16.6015 52.0222C16.0814 50.4531 14.6012 49.3176 12.8599 49.3176H6.92319C4.75205 49.3176 2.98584 51.0858 2.98584 53.2592V68.8402C2.98584 71.0112 4.75205 72.7775 6.92319 72.7775H12.8599C14.6011 72.7775 16.0811 71.6433 16.6014 70.0762H19.9411C20.2361 70.0762 20.2361 70.0762 20.5791 70.1728C20.7038 70.208 20.8555 70.2507 21.0514 70.3034L36.4134 74.4133C37.0906 74.5961 37.7116 74.7762 38.3123 74.9501C40.2805 75.5204 41.935 75.9999 43.6593 75.9999C45.6083 75.9999 47.6461 75.3874 50.3264 73.6012C50.3393 73.5926 50.3522 73.5837 50.365 73.5746L53.2977 71.4833C53.9652 71.0073 54.1205 70.0805 53.6445 69.413C53.1685 68.7453 52.2413 68.5902 51.5743 69.0662L48.661 71.1436C44.7714 73.7306 43.1198 73.2524 39.1385 72.0987C38.5252 71.9211 37.8911 71.7373 37.1844 71.5464L21.8212 67.4364C21.6413 67.388 21.5001 67.3483 21.3843 67.3156C20.8239 67.1577 20.6143 67.1078 19.9413 67.1078H16.8016V54.992H18.4057C18.4271 54.992 18.4482 54.9916 18.4696 54.9907L18.5542 54.9871C19.7985 54.934 20.1466 54.9 21.5718 54.3373C27.083 52.1624 31.3371 51.904 36.7742 57.0225L36.8477 57.0915C37.7769 57.9647 38.312 58.3204 39.8893 58.3204H47.9635C48.9111 58.3204 49.7374 58.8464 50.1682 59.6214C50.1728 59.63 50.1781 59.6382 50.1829 59.6468C50.3752 60.0026 50.4848 60.4096 50.4848 60.8418C50.4848 62.2298 49.3539 63.3589 47.9636 63.3589H34.8782C34.0585 63.3589 33.3938 64.0235 33.3938 64.8433C33.3938 65.6631 34.0585 66.3276 34.8782 66.3276H47.9636C50.9908 66.3276 53.4534 63.8667 53.4534 60.8418C53.4534 60.4306 53.4065 60.0305 53.3204 59.645L65.0509 53.6208C66.1612 53.0508 67.6793 53.112 68.4331 54.3351C69.0998 55.4131 68.7331 56.8461 67.5805 57.6678L62.4347 61.3327C61.7669 61.8083 61.6111 62.7351 62.0866 63.4029C62.3762 63.8094 62.8331 64.0263 63.297 64.0263C63.5949 64.0263 63.8956 63.9368 64.1567 63.751L69.303 60.0857C71.7472 58.3432 72.4585 55.1997 70.959 52.7756C69.4844 50.3826 66.3617 49.6104 63.6946 50.9796ZM13.8328 68.8402C13.8328 69.3653 13.3873 69.8088 12.8599 69.8088H6.92319C6.39803 69.8088 5.95451 69.3652 5.95451 68.8402V53.2594C5.95451 52.7229 6.38913 52.2864 6.92319 52.2864H12.8599C13.3873 52.2864 13.8328 52.7318 13.8328 53.2594V68.8402Z" fill="black"/>
</svg>
