<svg width="22" height="19" viewBox="0 0 22 19" fill="none" xmlns="http://www.w3.org/2000/svg">
<path d="M21.7812 2.73038C20.9856 3.07939 20.1377 3.31074 19.2538 3.42307C20.1631 2.88015 20.8572 2.02699 21.1835 0.99865C20.3357 1.50413 19.3996 1.86117 18.402 2.06042C17.597 1.20325 16.4496 0.672363 15.198 0.672363C12.7696 0.672363 10.8145 2.64345 10.8145 5.05985C10.8145 5.40753 10.8439 5.74184 10.9161 6.0601C7.26949 5.88225 4.04273 4.13448 1.87506 1.47203C1.49662 2.12862 1.27464 2.88015 1.27464 3.68918C1.27464 5.20828 2.05693 6.55488 3.223 7.33449C2.51827 7.32112 1.82692 7.11652 1.24121 6.79425C1.24121 6.80762 1.24121 6.825 1.24121 6.84239C1.24121 8.97395 2.76165 10.7445 4.75548 11.1523C4.39843 11.2499 4.0093 11.2967 3.60545 11.2967C3.32463 11.2967 3.04113 11.2807 2.77502 11.2218C3.34335 12.9589 4.95606 14.236 6.87366 14.2774C5.3813 15.4448 3.48643 16.1482 1.43511 16.1482C1.07539 16.1482 0.730384 16.1322 0.385376 16.0881C2.32839 17.3411 4.63111 18.0565 7.11437 18.0565C15.1859 18.0565 19.5988 11.3703 19.5988 5.57468C19.5988 5.38078 19.5921 5.19357 19.5828 5.00769C20.4533 4.38989 21.1848 3.6183 21.7812 2.73038Z" fill="#fff"/>
</svg>
