<svg width="13" height="13" viewBox="0 0 13 13" fill="none" xmlns="http://www.w3.org/2000/svg">
<path d="M6.50102 0C4.64386 0 3.12573 1.51813 3.12573 3.37529C3.12573 5.23244 4.64386 6.75058 6.50102 6.75058C8.35817 6.75058 9.8763 5.23244 9.8763 3.37529C9.8763 1.51813 8.35817 0 6.50102 0Z" fill="#32C1DB"/>
<path d="M12.2933 9.44789C12.2049 9.22679 12.087 9.02045 11.9544 8.82883C11.2763 7.82655 10.2299 7.1633 9.05074 7.00116C8.90336 6.98644 8.74123 7.01589 8.6233 7.10433C8.00425 7.56125 7.2673 7.79707 6.50084 7.79707C5.73438 7.79707 4.99743 7.56125 4.37838 7.10433C4.26046 7.01589 4.09832 6.97168 3.95095 7.00116C2.7718 7.1633 1.71059 7.82655 1.04733 8.82883C0.914678 9.02045 0.796753 9.24154 0.708337 9.44789C0.664129 9.53633 0.678855 9.6395 0.723063 9.72794C0.840989 9.93428 0.988367 10.1407 1.12102 10.3175C1.32736 10.5976 1.54846 10.8481 1.79903 11.0839C2.00537 11.2903 2.2412 11.4819 2.47705 11.6735C3.64143 12.5431 5.04167 13 6.48611 13C7.93056 13 9.3308 12.5431 10.4952 11.6735C10.731 11.4967 10.9668 11.2903 11.1732 11.0839C11.409 10.8481 11.6448 10.5975 11.8512 10.3175C11.9986 10.1259 12.1313 9.93428 12.2492 9.72794C12.3228 9.6395 12.3376 9.5363 12.2933 9.44789Z" fill="#32C1DB"/>
</svg>
