<svg width="77" height="77" viewBox="0 0 77 77" fill="none" xmlns="http://www.w3.org/2000/svg">
<path d="M38.5 77C59.763 77 77 59.763 77 38.5C77 17.237 59.763 0 38.5 0C17.237 0 0 17.237 0 38.5C0 59.763 17.237 77 38.5 77Z" fill="#FE7058"/>
<path d="M50.8711 56.0054L51.4648 58.7871C51.4873 58.8928 51.5454 58.9875 51.6294 59.0556C51.7134 59.1236 51.8182 59.1606 51.9262 59.1606H54.8625C54.9705 59.1606 55.0753 59.1236 55.1593 59.0556C55.2433 58.9875 55.3014 58.8928 55.3239 58.7871L55.9176 56.0054H50.8711Z" fill="#3A556A"/>
<path d="M21.0818 56.0054L21.6755 58.7871C21.698 58.8928 21.7561 58.9875 21.8401 59.0556C21.9241 59.1236 22.0289 59.1606 22.1369 59.1606H25.0738C25.1818 59.1606 25.2866 59.1236 25.3706 59.0556C25.4546 58.9875 25.5127 58.8928 25.5352 58.7871L26.1289 56.0054H21.0818Z" fill="#3A556A"/>
<path d="M55.2123 17.8401H21.7895C20.1293 17.8401 18.7834 19.1859 18.7834 20.8461V54.2689C18.7834 55.9291 20.1293 57.2749 21.7895 57.2749H55.2123C56.8724 57.2749 58.2183 55.9291 58.2183 54.2689V20.8461C58.2183 19.1859 56.8724 17.8401 55.2123 17.8401Z" fill="#D5D6DB"/>
<path d="M58.2174 27.6219V20.8453C58.2174 20.4503 58.1396 20.0592 57.9884 19.6943C57.8373 19.3294 57.6157 18.9978 57.3364 18.7185C57.0571 18.4392 56.7255 18.2176 56.3606 18.0665C55.9957 17.9153 55.6046 17.8375 55.2096 17.8375H21.7886C20.9909 17.8375 20.2258 18.1544 19.6617 18.7185C19.0977 19.2826 18.7808 20.0476 18.7808 20.8453V27.6219H58.2174Z" fill="#E1E6E9"/>
<path d="M52.742 21.326C52.4396 21.326 52.144 21.4157 51.8927 21.5836C51.6413 21.7516 51.4454 21.9904 51.3297 22.2697C51.214 22.5491 51.1838 22.8565 51.2428 23.153C51.3018 23.4495 51.4475 23.7219 51.6613 23.9356C51.8751 24.1494 52.1476 24.2949 52.4441 24.3538C52.7407 24.4127 53.048 24.3824 53.3273 24.2666C53.6066 24.1508 53.8453 23.9548 54.0132 23.7034C54.1811 23.4519 54.2706 23.1563 54.2705 22.854C54.2705 22.6533 54.231 22.4545 54.1542 22.2691C54.0773 22.0837 53.9647 21.9152 53.8228 21.7733C53.6808 21.6314 53.5123 21.5189 53.3269 21.4421C53.1414 21.3654 52.9427 21.3259 52.742 21.326Z" fill="#3E6B82"/>
<path d="M52.742 21.8463C52.5427 21.8463 52.3479 21.9054 52.1822 22.0161C52.0165 22.1268 51.8873 22.2842 51.8111 22.4683C51.7348 22.6525 51.7149 22.855 51.7537 23.0505C51.7926 23.246 51.8886 23.4255 52.0295 23.5664C52.1704 23.7073 52.35 23.8033 52.5454 23.8422C52.7409 23.8811 52.9435 23.8611 53.1276 23.7848C53.3117 23.7086 53.4691 23.5794 53.5798 23.4137C53.6905 23.248 53.7496 23.0532 53.7496 22.8539C53.7497 22.7216 53.7237 22.5905 53.6731 22.4682C53.6225 22.346 53.5482 22.2348 53.4547 22.1413C53.3611 22.0477 53.25 21.9735 53.1277 21.9229C53.0054 21.8722 52.8743 21.8462 52.742 21.8463Z" fill="#758FA0"/>
<path d="M48.3373 21.326C48.0349 21.3259 47.7393 21.4154 47.4878 21.5833C47.2364 21.7513 47.0403 21.99 46.9246 22.2693C46.8088 22.5487 46.7785 22.8561 46.8374 23.1526C46.8964 23.4492 47.042 23.7216 47.2558 23.9354C47.4696 24.1492 47.742 24.2948 48.0386 24.3538C48.3352 24.4127 48.6426 24.3824 48.9219 24.2667C49.2012 24.1509 49.44 23.9549 49.6079 23.7034C49.7758 23.4519 49.8654 23.1563 49.8652 22.854C49.8651 22.4488 49.7041 22.0602 49.4175 21.7737C49.131 21.4872 48.7425 21.3261 48.3373 21.326Z" fill="#3E6B82"/>
<path d="M48.3372 21.8463C48.1379 21.8463 47.9431 21.9054 47.7774 22.0161C47.6117 22.1268 47.4826 22.2842 47.4063 22.4683C47.33 22.6525 47.3101 22.855 47.349 23.0505C47.3878 23.246 47.4838 23.4255 47.6247 23.5664C47.7656 23.7073 47.9452 23.8033 48.1406 23.8422C48.3361 23.8811 48.5387 23.8611 48.7228 23.7848C48.9069 23.7086 49.0643 23.5794 49.175 23.4137C49.2857 23.248 49.3448 23.0532 49.3448 22.8539C49.3448 22.5867 49.2387 22.3304 49.0497 22.1414C48.8608 21.9525 48.6045 21.8463 48.3372 21.8463Z" fill="#758FA0"/>
<path d="M43.9321 21.326C43.6298 21.326 43.3342 21.4157 43.0828 21.5836C42.8315 21.7516 42.6355 21.9904 42.5199 22.2697C42.4042 22.5491 42.374 22.8565 42.433 23.153C42.492 23.4495 42.6377 23.7219 42.8515 23.9356C43.0653 24.1494 43.3377 24.2949 43.6343 24.3538C43.9309 24.4127 44.2382 24.3824 44.5175 24.2666C44.7968 24.1508 45.0355 23.9548 45.2034 23.7034C45.3713 23.4519 45.4608 23.1563 45.4607 22.854C45.4607 22.6533 45.4212 22.4545 45.3443 22.2691C45.2675 22.0837 45.1549 21.9152 45.013 21.7733C44.871 21.6314 44.7025 21.5189 44.5171 21.4421C44.3316 21.3654 44.1328 21.3259 43.9321 21.326Z" fill="#3E6B82"/>
<path d="M43.9322 21.8463C43.7329 21.8463 43.5381 21.9054 43.3724 22.0161C43.2067 22.1268 43.0775 22.2842 43.0013 22.4683C42.925 22.6525 42.905 22.855 42.9439 23.0505C42.9828 23.246 43.0788 23.4255 43.2197 23.5664C43.3606 23.7073 43.5401 23.8033 43.7356 23.8422C43.9311 23.8811 44.1337 23.8611 44.3178 23.7848C44.5019 23.7086 44.6593 23.5794 44.77 23.4137C44.8807 23.248 44.9398 23.0532 44.9398 22.8539C44.9399 22.7216 44.9139 22.5905 44.8633 22.4682C44.8126 22.346 44.7384 22.2348 44.6448 22.1413C44.5513 22.0477 44.4402 21.9735 44.3179 21.9229C44.1956 21.8722 44.0645 21.8462 43.9322 21.8463Z" fill="#758FA0"/>
<path d="M46.4342 44.6731C48.2465 40.3007 46.1712 35.287 41.7989 33.4747C37.4265 31.6623 32.4128 33.7376 30.6004 38.11C28.7881 42.4823 30.8634 47.4961 35.2357 49.3084C39.6081 51.1208 44.6218 49.0455 46.4342 44.6731Z" fill="#3E6B82"/>
<path d="M44.5448 43.89C45.9246 40.561 44.3446 36.7438 41.0157 35.364C37.6867 33.9841 33.8695 35.5642 32.4897 38.8931C31.1098 42.222 32.6898 46.0392 36.0188 47.4191C39.3477 48.7989 43.1649 47.2189 44.5448 43.89Z" fill="#89C5CD"/>
<path d="M31.9827 41.4963C32.0059 43.2095 32.7028 44.8446 33.9225 46.0479C35.1422 47.2511 36.7867 47.9257 38.5 47.9257C40.2133 47.9257 41.8577 47.2511 43.0774 46.0479C44.2972 44.8446 44.994 43.2095 45.0173 41.4963H31.9827Z" fill="#029BC5"/>
<path d="M31.8124 20.1313H22.6957C22.605 20.1313 22.5315 20.2048 22.5315 20.2955V25.1014C22.5315 25.1921 22.605 25.2656 22.6957 25.2656H31.8124C31.9031 25.2656 31.9766 25.1921 31.9766 25.1014V20.2955C31.9766 20.2048 31.9031 20.1313 31.8124 20.1313Z" fill="#3A556A"/>
<path d="M31.375 20.7328V24.6641H23.1324V20.7328H31.375Z" fill="#89C5CD"/>
<path d="M24.5642 23.1108C24.5257 23.1463 24.4878 23.183 24.4505 23.2203L23.9392 22.7095C23.9837 22.665 24.0282 22.6223 24.074 22.5802L24.5642 23.1108Z" fill="#3A556A"/>
<path d="M25.0551 22.724C25.0124 22.7523 24.9709 22.7811 24.9294 22.8112L24.5083 22.2259C24.557 22.1904 24.607 22.1555 24.6569 22.1224L25.0551 22.724Z" fill="#3A556A"/>
<path d="M25.5875 22.4251C25.5424 22.4461 25.4972 22.4678 25.4527 22.4906L25.1243 21.8463C25.1772 21.8199 25.2301 21.794 25.2837 21.7693L25.5875 22.4251Z" fill="#3A556A"/>
<path d="M26.1512 22.2145C26.1037 22.2283 26.0562 22.2427 26.0099 22.2584L25.7825 21.572C25.8378 21.554 25.8938 21.5365 25.9497 21.5203C26.0171 21.7521 26.0843 21.9835 26.1512 22.2145Z" fill="#3A556A"/>
<path d="M26.7346 22.093C26.6859 22.0996 26.6372 22.1068 26.5891 22.1146L26.4688 21.4024C26.5253 21.3928 26.583 21.3843 26.6402 21.3765L26.7346 22.093Z" fill="#3A556A"/>
<path d="M27.3272 22.0599C27.2785 22.0599 27.2298 22.0599 27.1805 22.0599C27.1761 21.8193 27.1716 21.5786 27.1672 21.338H27.3411C27.3363 21.5782 27.3317 21.8189 27.3272 22.0599Z" fill="#3A556A"/>
<path d="M27.919 22.1146C27.8709 22.1068 27.8222 22.0996 27.7734 22.093L27.8685 21.3765C27.9256 21.3843 27.9828 21.3928 28.0399 21.4024L27.919 22.1146Z" fill="#3A556A"/>
<path d="M28.4985 22.2578C28.4516 22.2421 28.4047 22.2277 28.3572 22.2139C28.4246 21.9829 28.4915 21.7515 28.5581 21.5197C28.6146 21.5359 28.67 21.5533 28.7253 21.5714C28.6503 21.8012 28.5747 22.03 28.4985 22.2578Z" fill="#3A556A"/>
<path d="M29.0554 22.4906C29.0109 22.4678 28.9658 22.4461 28.9207 22.4251C29.0217 22.2069 29.123 21.9883 29.2244 21.7693C29.278 21.794 29.3309 21.8199 29.3839 21.8463L29.0554 22.4906Z" fill="#3A556A"/>
<path d="M29.5789 22.8112C29.5373 22.7811 29.4952 22.7511 29.4531 22.724L29.8538 22.1224C29.9037 22.1555 29.9536 22.1904 30.0024 22.2259C29.8612 22.4208 29.72 22.6159 29.5789 22.8112Z" fill="#3A556A"/>
<path d="M30.0578 23.2203C30.0205 23.183 29.9826 23.1463 29.9441 23.1108L30.4344 22.5802C30.4801 22.6223 30.5246 22.665 30.5685 22.7095L30.0578 23.2203Z" fill="#3A556A"/>
<path d="M27.2537 24.1617C27.1506 24.1617 27.0497 24.1923 26.964 24.2496C26.8782 24.3069 26.8114 24.3884 26.7719 24.4837C26.7324 24.579 26.7221 24.6839 26.7422 24.785C26.7623 24.8862 26.812 24.9792 26.8849 25.0521C26.9579 25.125 27.0508 25.1747 27.152 25.1948C27.2532 25.215 27.358 25.2046 27.4533 25.1652C27.5486 25.1257 27.6301 25.0588 27.6874 24.9731C27.7447 24.8873 27.7753 24.7865 27.7753 24.6833C27.7753 24.545 27.7203 24.4123 27.6225 24.3145C27.5247 24.2167 27.3921 24.1617 27.2537 24.1617Z" fill="#3A556A"/>
<path d="M27.2539 22.4666L26.9856 24.4577H27.5198L27.2539 22.4666Z" fill="#3A556A"/>
</svg>
