<svg width="58" height="58" viewBox="0 0 58 58" fill="none" xmlns="http://www.w3.org/2000/svg">
<path d="M13.8203 20.3904H15.5195V39.3085H13.8203V20.3904Z" fill="white"/>
<path d="M54.1038 0H17.7164L13.8203 3.8962V18.6913H15.5195V15.2929H56.3008V52.9023H48.6543V54.6016H55.0993L53.4001 56.3008H22.3163V58H54.1038L58 54.1038V3.8962L54.1038 0ZM18.4202 1.69922H53.4001L55.0993 3.39844H16.721L18.4202 1.69922ZM15.5195 13.5936V5.09766H56.3008V13.5936H15.5195Z" fill="white"/>
<path d="M20.9004 35.7968C20.9004 44.0732 27.6337 50.8065 35.9102 50.8065C44.1866 50.8065 50.9198 44.0732 50.9198 35.7968C50.9198 27.5203 44.1866 20.7871 35.9102 20.7871C27.6337 20.7871 20.9004 27.5203 20.9004 35.7968ZM49.2206 35.7968C49.2206 43.1363 43.2495 49.1073 35.9102 49.1073C28.5707 49.1073 22.5996 43.1363 22.5996 35.7968C22.5996 28.4573 28.5707 22.4863 35.9102 22.4863C43.2495 22.4863 49.2206 28.4573 49.2206 35.7968Z" fill="white"/>
<path d="M24.2932 35.7968C24.2932 42.2024 29.5046 47.4138 35.9102 47.4138C38.6739 47.4138 41.352 46.4265 43.4511 44.6336L42.3475 43.3416C40.5559 44.8719 38.2696 45.7146 35.9102 45.7146C30.4416 45.7146 25.9924 41.2656 25.9924 35.7968C25.9924 35.5106 26.0053 35.2274 26.0292 34.9472H33.8591L37.2575 38.3456H45.4936C45.1151 39.7687 44.4232 41.1005 43.4548 42.2343L44.7469 43.3378C46.5397 41.2389 47.5271 38.5608 47.5271 35.7968C47.5271 29.3912 42.3158 24.1799 35.9102 24.1799C29.5046 24.1799 24.2932 29.3912 24.2932 35.7968ZM45.4953 33.2481H39.7473V34.9473H45.791C45.8149 35.2275 45.8279 35.5107 45.8279 35.7969C45.8279 36.0815 45.8149 36.3649 45.7907 36.6465H37.9612L34.5628 33.2481H26.325C27.4529 29.0106 31.3224 25.8792 35.9102 25.8792C40.4979 25.8792 44.3674 29.0106 45.4953 33.2481Z" fill="white"/>
<path d="M52.0527 6.79688C50.6474 6.79688 49.5039 7.94022 49.5039 9.3457C49.5039 10.7512 50.6474 11.8945 52.0527 11.8945C53.4581 11.8945 54.6016 10.7511 54.6016 9.3457C54.6016 7.94034 53.4581 6.79688 52.0527 6.79688ZM52.0527 10.1953C51.5842 10.1953 51.2031 9.81423 51.2031 9.3457C51.2031 8.87717 51.5842 8.49609 52.0527 8.49609C52.5213 8.49609 52.9023 8.87717 52.9023 9.3457C52.9023 9.81423 52.5213 10.1953 52.0527 10.1953Z" fill="white"/>
<path d="M45.2559 6.79688C43.8505 6.79688 42.707 7.94022 42.707 9.3457C42.707 10.7512 43.8505 11.8945 45.2559 11.8945C46.6612 11.8945 47.8047 10.7512 47.8047 9.3457C47.8047 7.94022 46.6612 6.79688 45.2559 6.79688ZM45.2559 10.1953C44.7873 10.1953 44.4062 9.81423 44.4062 9.3457C44.4062 8.87717 44.7873 8.49609 45.2559 8.49609C45.7244 8.49609 46.1055 8.87717 46.1055 9.3457C46.1055 9.81423 45.7244 10.1953 45.2559 10.1953Z" fill="white"/>
<path d="M38.4592 6.79688C37.0539 6.79688 35.9104 7.94022 35.9104 9.3457C35.9104 10.7512 37.0539 11.8945 38.4592 11.8945C39.8646 11.8945 41.0081 10.7512 41.0081 9.3457C41.0081 7.94022 39.8646 6.79688 38.4592 6.79688ZM38.4592 10.1953C37.9907 10.1953 37.6096 9.81423 37.6096 9.3457C37.6096 8.87717 37.9907 8.49609 38.4592 8.49609C38.9278 8.49609 39.3088 8.87717 39.3088 9.3457C39.3088 9.81423 38.9278 10.1953 38.4592 10.1953Z" fill="white"/>
<path d="M17.2188 11.8945H29.1132V6.79688H17.2188V11.8945ZM18.918 8.49609H27.4139V10.1953H18.918V8.49609Z" fill="white"/>
<path d="M2.19698 41.0078L0 43.2047V45.6077L1.34725 46.9551L0 48.3023V50.7054L1.34725 52.0527L0 53.4V55.803L2.19698 58H18.4202L20.6172 55.803V53.4L19.2698 52.0527L20.6172 50.7054V48.3023L19.2698 46.9551L20.6172 45.6077V43.2047L18.4202 41.0078H2.19698ZM18.918 55.0993L17.7164 56.3008H2.90068L1.69922 55.0993V54.1038L2.90068 52.9023H5.94727V51.2031H2.90068L1.69922 50.0017V49.0061L2.90068 47.8047H17.7164L18.918 49.0061V50.0017L17.7164 51.2031H7.64648V52.9023H17.7165L18.918 54.1038V55.0993ZM18.918 44.904L17.7164 46.1055H2.90068L1.69922 44.904V43.9085L2.90068 42.707H17.7164L18.918 43.9085V44.904Z" fill="white"/>
<path d="M25.7148 53.7517H27.4141V55.4509H25.7148V53.7517Z" fill="white"/>
<path d="M44.4062 16.9919H46.1055V18.6912H44.4062V16.9919Z" fill="white"/>
<path d="M22.3164 53.7517H24.0156V55.4509H22.3164V53.7517Z" fill="white"/>
<path d="M47.8047 16.9919H54.6014V18.6912H47.8047V16.9919Z" fill="white"/>
</svg>
