<svg width="19" height="19" viewBox="0 0 19 19" fill="none" xmlns="http://www.w3.org/2000/svg">
<path d="M16.3342 2.66579C14.6152 0.946697 12.3296 0 9.89844 0C7.46733 0 5.18169 0.946697 3.4626 2.66579C1.74351 4.38488 0.79685 6.67045 0.79685 9.10156C0.79685 10.6416 1.18668 12.1549 1.92664 13.4954L0 19L5.50454 17.0734C6.84508 17.8133 8.3584 18.2031 9.89841 18.2031C12.3295 18.2031 14.6152 17.2564 16.3342 15.5374C18.0533 13.8183 19 11.5327 19 9.10156C19 6.67041 18.0533 4.38484 16.3342 2.66579ZM14.3979 12.4827L13.3471 13.5334C12.4767 14.4039 10.0069 13.3454 7.83075 11.1693C5.65458 8.99309 4.59611 6.52335 5.46658 5.65287L6.5173 4.60216C6.73491 4.38455 7.08774 4.38455 7.30535 4.60216L8.61876 5.91557C8.83637 6.13318 8.83637 6.48601 8.61876 6.70362L7.83071 7.49168C8.59513 9.10545 9.89455 10.4048 11.5083 11.1693L12.2964 10.3812C12.514 10.1636 12.8668 10.1636 13.0844 10.3812L14.3978 11.6946C14.6155 11.9123 14.6155 12.2651 14.3979 12.4827Z" fill="#3C9D00"/>
</svg>
